<?xml version="1.0" encoding="UTF-8" standalone="no"?><svg xmlns="http://www.w3.org/2000/svg" xmlns:xlink="http://www.w3.org/1999/xlink" clip-rule="evenodd" stroke-miterlimit="4.00" viewBox="0 0 1024 768"><desc>SVG generated by Keynote</desc><defs></defs><g transform="matrix(1.00, 0.00, -0.00, -1.00, 0.0, 768.0)"><path d="M 0.0 768.0 L 1024.0 768.0 L 1024.0 0.0 L 0.0 0.0 Z M 0.0 768.0 " fill="#FEFFFF"></path><image xlink:href="../../615F7CD4-E262-41F7-8138-806EC6AB1FAB/assets/160DC7B11EBBE6079C1E79740E8C03B9.png" width="134.00" height="45.00" transform="matrix(1.00, 0.00, -0.00, -1.00, 867.0, 64.0)"></image><text xml:space="preserve" font-family="Roboto-Bold" font-weight="bold" font-size="40.0" fill="#4185F4" transform="matrix(1.00, 0.00, -0.00, -1.00, 45.0, 683.0)">F</text><text xml:space="preserve" font-family="Roboto-Bold" font-weight="bold" font-size="40.0" fill="#4185F4" transform="matrix(1.00, 0.00, -0.00, -1.00, 68.1, 683.0)">i</text><text xml:space="preserve" font-family="Roboto-Bold" font-weight="bold" font-size="40.0" fill="#4185F4" transform="matrix(1.00, 0.00, -0.00, -1.00, 78.8, 683.0)">n</text><text xml:space="preserve" font-family="Roboto-Bold" font-weight="bold" font-size="40.0" fill="#4185F4" transform="matrix(1.00, 0.00, -0.00, -1.00, 101.4, 683.0)">a</text><text xml:space="preserve" font-family="Roboto-Bold" font-weight="bold" font-size="40.0" fill="#4185F4" transform="matrix(1.00, 0.00, -0.00, -1.00, 122.9, 683.0)">l</text><text xml:space="preserve" font-family="Roboto-Bold" font-weight="bold" font-size="40.0" fill="#4185F4" transform="matrix(1.00, 0.00, -0.00, -1.00, 133.6, 683.0)"> </text><text xml:space="preserve" font-family="Roboto-Bold" font-weight="bold" font-size="40.0" fill="#4185F4" transform="matrix(1.00, 0.00, -0.00, -1.00, 143.5, 683.0)">S</text><text xml:space="preserve" font-family="Roboto-Bold" font-weight="bold" font-size="40.0" fill="#4185F4" transform="matrix(1.00, 0.00, -0.00, -1.00, 168.9, 683.0)">o</text><text xml:space="preserve" font-family="Roboto-Bold" font-weight="bold" font-size="40.0" fill="#4185F4" transform="matrix(1.00, 0.00, -0.00, -1.00, 191.5, 683.0)">l</text><text xml:space="preserve" font-family="Roboto-Bold" font-weight="bold" font-size="40.0" fill="#4185F4" transform="matrix(1.00, 0.00, -0.00, -1.00, 202.2, 683.0)">u</text><text xml:space="preserve" font-family="Roboto-Bold" font-weight="bold" font-size="40.0" fill="#4185F4" transform="matrix(1.00, 0.00, -0.00, -1.00, 224.8, 683.0)">t</text><text xml:space="preserve" font-family="Roboto-Bold" font-weight="bold" font-size="40.0" fill="#4185F4" transform="matrix(1.00, 0.00, -0.00, -1.00, 238.7, 683.0)">i</text><text xml:space="preserve" font-family="Roboto-Bold" font-weight="bold" font-size="40.0" fill="#4185F4" transform="matrix(1.00, 0.00, -0.00, -1.00, 249.4, 683.0)">o</text><text xml:space="preserve" font-family="Roboto-Bold" font-weight="bold" font-size="40.0" fill="#4185F4" transform="matrix(1.00, 0.00, -0.00, -1.00, 272.0, 683.0)">n</text><image xlink:href="../../564EE93C-C29D-46D9-9AA0-1CB54A3EB50A/assets/257F3A09D9573B608BD3028EAF6DB4C0.png" width="304.00" height="541.00" transform="matrix(1.04, 0.00, -0.00, -1.04, 118.0, 626.0)"></image><text xml:space="preserve" font-family="Roboto-Medium" font-size="30.0" fill="#52575F" transform="matrix(1.00, 0.00, -0.00, -1.00, 478.0, 546.0)">O</text><text xml:space="preserve" font-family="Roboto-Medium" font-size="30.0" fill="#52575F" transform="matrix(1.00, 0.00, -0.00, -1.00, 498.5, 546.0)">b</text><text xml:space="preserve" font-family="Roboto-Medium" font-size="30.0" fill="#52575F" transform="matrix(1.00, 0.00, -0.00, -1.00, 515.5, 546.0)">s</text><text xml:space="preserve" font-family="Roboto-Medium" font-size="30.0" fill="#52575F" transform="matrix(1.00, 0.00, -0.00, -1.00, 531.1, 546.0)">e</text><text xml:space="preserve" font-family="Roboto-Medium" font-size="30.0" fill="#52575F" transform="matrix(1.00, 0.00, -0.00, -1.00, 547.0, 546.0)">r</text><text xml:space="preserve" font-family="Roboto-Medium" font-size="30.0" fill="#52575F" transform="matrix(1.00, 0.00, -0.00, -1.00, 557.7, 546.0)">v</text><text xml:space="preserve" font-family="Roboto-Medium" font-size="30.0" fill="#52575F" transform="matrix(1.00, 0.00, -0.00, -1.00, 572.7, 546.0)">e</text><text xml:space="preserve" font-family="Roboto-Medium" font-size="30.0" fill="#52575F" transform="matrix(1.00, 0.00, -0.00, -1.00, 588.6, 546.0)">r</text><text xml:space="preserve" font-family="Roboto-Light" font-size="30.0" fill="#52575F" transform="matrix(1.00, 0.00, -0.00, -1.00, 598.9, 546.0)"> </text><text xml:space="preserve" font-family="Roboto-Light" font-size="30.0" fill="#52575F" transform="matrix(1.00, 0.00, -0.00, -1.00, 606.2, 546.0)">i</text><text xml:space="preserve" font-family="Roboto-Light" font-size="30.0" fill="#52575F" transform="matrix(1.00, 0.00, -0.00, -1.00, 613.0, 546.0)">s</text><text xml:space="preserve" font-family="Roboto-Light" font-size="30.0" fill="#52575F" transform="matrix(1.00, 0.00, -0.00, -1.00, 628.3, 546.0)"> </text><text xml:space="preserve" font-family="Roboto-Light" font-size="30.0" fill="#52575F" transform="matrix(1.00, 0.00, -0.00, -1.00, 635.6, 546.0)">m</text><text xml:space="preserve" font-family="Roboto-Light" font-size="30.0" fill="#52575F" transform="matrix(1.00, 0.00, -0.00, -1.00, 662.2, 546.0)">o</text><text xml:space="preserve" font-family="Roboto-Light" font-size="30.0" fill="#52575F" transform="matrix(1.00, 0.00, -0.00, -1.00, 678.9, 546.0)">r</text><text xml:space="preserve" font-family="Roboto-Light" font-size="30.0" fill="#52575F" transform="matrix(1.00, 0.00, -0.00, -1.00, 688.8, 546.0)">e</text><text xml:space="preserve" font-family="Roboto-Light" font-size="30.0" fill="#52575F" transform="matrix(1.00, 0.00, -0.00, -1.00, 704.3, 546.0)"> </text><text xml:space="preserve" font-family="Roboto-Light" font-size="30.0" fill="#52575F" transform="matrix(1.00, 0.00, -0.00, -1.00, 711.6, 546.0)">t</text><text xml:space="preserve" font-family="Roboto-Light" font-size="30.0" fill="#52575F" transform="matrix(1.00, 0.00, -0.00, -1.00, 721.6, 546.0)">h</text><text xml:space="preserve" font-family="Roboto-Light" font-size="30.0" fill="#52575F" transform="matrix(1.00, 0.00, -0.00, -1.00, 738.3, 546.0)">a</text><text xml:space="preserve" font-family="Roboto-Light" font-size="30.0" fill="#52575F" transform="matrix(1.00, 0.00, -0.00, -1.00, 754.4, 546.0)">n</text><text xml:space="preserve" font-family="Roboto-Light" font-size="30.0" fill="#52575F" transform="matrix(1.00, 0.00, -0.00, -1.00, 771.1, 546.0)"> </text><text xml:space="preserve" font-family="Roboto-Light" font-size="30.0" fill="#52575F" transform="matrix(1.00, 0.00, -0.00, -1.00, 778.4, 546.0)">a</text><text xml:space="preserve" font-family="Roboto-Light" font-size="30.0" fill="#52575F" transform="matrix(1.00, 0.00, -0.00, -1.00, 794.5, 546.0)">n</text><text xml:space="preserve" font-family="Roboto-Light" font-size="30.0" fill="#52575F" transform="matrix(1.00, 0.00, -0.00, -1.00, 811.2, 546.0)"> </text><text xml:space="preserve" font-family="Roboto-Light" font-size="30.0" fill="#52575F" transform="matrix(1.00, 0.00, -0.00, -1.00, 818.5, 546.0)">o</text><text xml:space="preserve" font-family="Roboto-Light" font-size="30.0" fill="#52575F" transform="matrix(1.00, 0.00, -0.00, -1.00, 835.2, 546.0)">b</text><text xml:space="preserve" font-family="Roboto-Light" font-size="30.0" fill="#52575F" transform="matrix(1.00, 0.00, -0.00, -1.00, 851.8, 546.0)">s</text><text xml:space="preserve" font-family="Roboto-Light" font-size="30.0" fill="#52575F" transform="matrix(1.00, 0.00, -0.00, -1.00, 867.1, 546.0)">e</text><text xml:space="preserve" font-family="Roboto-Light" font-size="30.0" fill="#52575F" transform="matrix(1.00, 0.00, -0.00, -1.00, 882.6, 546.0)">r</text><text xml:space="preserve" font-family="Roboto-Light" font-size="30.0" fill="#52575F" transform="matrix(1.00, 0.00, -0.00, -1.00, 893.1, 546.0)">v</text><text xml:space="preserve" font-family="Roboto-Light" font-size="30.0" fill="#52575F" transform="matrix(1.00, 0.00, -0.00, -1.00, 907.6, 546.0)">e</text><text xml:space="preserve" font-family="Roboto-Light" font-size="30.0" fill="#52575F" transform="matrix(1.00, 0.00, -0.00, -1.00, 923.0, 546.0)">r</text><text xml:space="preserve" font-family="Roboto-Light" font-size="30.0" fill="#52575F" transform="matrix(1.00, 0.00, -0.00, -1.00, 931.4, 546.0)">.</text><text xml:space="preserve" font-family="Roboto-Light" font-size="30.0" fill="#52575F" transform="matrix(1.00, 0.00, -0.00, -1.00, 938.6, 546.0)"> </text><text xml:space="preserve" font-family="Roboto-Light" font-size="30.0" fill="#52575F" transform="matrix(1.00, 0.00, -0.00, -1.00, 945.9, 546.0)">I</text><text xml:space="preserve" font-family="Roboto-Light" font-size="30.0" fill="#52575F" transform="matrix(1.00, 0.00, -0.00, -1.00, 954.0, 546.0)">t</text><text xml:space="preserve" font-family="Roboto-Light" font-size="30.0" fill="#52575F" transform="matrix(1.00, 0.00, -0.00, -1.00, 964.0, 546.0)"> </text><text xml:space="preserve" font-family="Roboto-Light" font-size="30.0" fill="#52575F" transform="matrix(1.00, 0.00, -0.00, -1.00, 478.0, 507.0)">g</text><text xml:space="preserve" font-family="Roboto-Light" font-size="30.0" fill="#52575F" transform="matrix(1.00, 0.00, -0.00, -1.00, 494.7, 507.0)">i</text><text xml:space="preserve" font-family="Roboto-Light" font-size="30.0" fill="#52575F" transform="matrix(1.00, 0.00, -0.00, -1.00, 501.5, 507.0)">v</text><text xml:space="preserve" font-family="Roboto-Light" font-size="30.0" fill="#52575F" transform="matrix(1.00, 0.00, -0.00, -1.00, 516.0, 507.0)">e</text><text xml:space="preserve" font-family="Roboto-Light" font-size="30.0" fill="#52575F" transform="matrix(1.00, 0.00, -0.00, -1.00, 531.5, 507.0)">s</text><text xml:space="preserve" font-family="Roboto-Light" font-size="30.0" fill="#52575F" transform="matrix(1.00, 0.00, -0.00, -1.00, 546.8, 507.0)"> </text><text xml:space="preserve" font-family="Roboto-Light" font-size="30.0" fill="#52575F" transform="matrix(1.00, 0.00, -0.00, -1.00, 554.1, 507.0)">u</text><text xml:space="preserve" font-family="Roboto-Light" font-size="30.0" fill="#52575F" transform="matrix(1.00, 0.00, -0.00, -1.00, 570.8, 507.0)">s</text><text xml:space="preserve" font-family="Roboto-Light" font-size="30.0" fill="#52575F" transform="matrix(1.00, 0.00, -0.00, -1.00, 586.0, 507.0)">e</text><text xml:space="preserve" font-family="Roboto-Light" font-size="30.0" fill="#52575F" transform="matrix(1.00, 0.00, -0.00, -1.00, 601.5, 507.0)">r</text><text xml:space="preserve" font-family="Roboto-Light" font-size="30.0" fill="#52575F" transform="matrix(1.00, 0.00, -0.00, -1.00, 611.7, 507.0)"> </text><text xml:space="preserve" font-family="Roboto-Light" font-size="30.0" fill="#52575F" transform="matrix(1.00, 0.00, -0.00, -1.00, 619.0, 507.0)">i</text><text xml:space="preserve" font-family="Roboto-Light" font-size="30.0" fill="#52575F" transform="matrix(1.00, 0.00, -0.00, -1.00, 625.8, 507.0)">n</text><text xml:space="preserve" font-family="Roboto-Light" font-size="30.0" fill="#52575F" transform="matrix(1.00, 0.00, -0.00, -1.00, 642.5, 507.0)">s</text><text xml:space="preserve" font-family="Roboto-Light" font-size="30.0" fill="#52575F" transform="matrix(1.00, 0.00, -0.00, -1.00, 657.8, 507.0)">i</text><text xml:space="preserve" font-family="Roboto-Light" font-size="30.0" fill="#52575F" transform="matrix(1.00, 0.00, -0.00, -1.00, 664.6, 507.0)">g</text><text xml:space="preserve" font-family="Roboto-Light" font-size="30.0" fill="#52575F" transform="matrix(1.00, 0.00, -0.00, -1.00, 681.3, 507.0)">h</text><text xml:space="preserve" font-family="Roboto-Light" font-size="30.0" fill="#52575F" transform="matrix(1.00, 0.00, -0.00, -1.00, 698.0, 507.0)">t</text><text xml:space="preserve" font-family="Roboto-Light" font-size="30.0" fill="#52575F" transform="matrix(1.00, 0.00, -0.00, -1.00, 708.0, 507.0)">s</text><text xml:space="preserve" font-family="Roboto-Light" font-size="30.0" fill="#52575F" transform="matrix(1.00, 0.00, -0.00, -1.00, 723.3, 507.0)"> </text><text xml:space="preserve" font-family="Roboto-Light" font-size="30.0" fill="#52575F" transform="matrix(1.00, 0.00, -0.00, -1.00, 730.6, 507.0)">b</text><text xml:space="preserve" font-family="Roboto-Light" font-size="30.0" fill="#52575F" transform="matrix(1.00, 0.00, -0.00, -1.00, 747.3, 507.0)">u</text><text xml:space="preserve" font-family="Roboto-Light" font-size="30.0" fill="#52575F" transform="matrix(1.00, 0.00, -0.00, -1.00, 764.0, 507.0)">t</text><text xml:space="preserve" font-family="Roboto-Light" font-size="30.0" fill="#52575F" transform="matrix(1.00, 0.00, -0.00, -1.00, 773.9, 507.0)"> </text><text xml:space="preserve" font-family="Roboto-Medium" font-size="30.0" fill="#52575F" transform="matrix(1.00, 0.00, -0.00, -1.00, 781.2, 507.0)">i</text><text xml:space="preserve" font-family="Roboto-Medium" font-size="30.0" fill="#52575F" transform="matrix(1.00, 0.00, -0.00, -1.00, 789.0, 507.0)">t</text><text xml:space="preserve" font-family="Roboto-Medium" font-size="30.0" fill="#52575F" transform="matrix(1.00, 0.00, -0.00, -1.00, 799.4, 507.0)"> </text><text xml:space="preserve" font-family="Roboto-Medium" font-size="30.0" fill="#52575F" transform="matrix(1.00, 0.00, -0.00, -1.00, 806.9, 507.0)">a</text><text xml:space="preserve" font-family="Roboto-Medium" font-size="30.0" fill="#52575F" transform="matrix(1.00, 0.00, -0.00, -1.00, 823.2, 507.0)">l</text><text xml:space="preserve" font-family="Roboto-Medium" font-size="30.0" fill="#52575F" transform="matrix(1.00, 0.00, -0.00, -1.00, 831.0, 507.0)">s</text><text xml:space="preserve" font-family="Roboto-Medium" font-size="30.0" fill="#52575F" transform="matrix(1.00, 0.00, -0.00, -1.00, 846.6, 507.0)">o</text><text xml:space="preserve" font-family="Roboto-Medium" font-size="30.0" fill="#52575F" transform="matrix(1.00, 0.00, -0.00, -1.00, 863.6, 507.0)"> </text><text xml:space="preserve" font-family="Roboto-Medium" font-size="30.0" fill="#52575F" transform="matrix(1.00, 0.00, -0.00, -1.00, 871.0, 507.0)">a</text><text xml:space="preserve" font-family="Roboto-Medium" font-size="30.0" fill="#52575F" transform="matrix(1.00, 0.00, -0.00, -1.00, 887.4, 507.0)">l</text><text xml:space="preserve" font-family="Roboto-Medium" font-size="30.0" fill="#52575F" transform="matrix(1.00, 0.00, -0.00, -1.00, 895.1, 507.0)">l</text><text xml:space="preserve" font-family="Roboto-Medium" font-size="30.0" fill="#52575F" transform="matrix(1.00, 0.00, -0.00, -1.00, 902.9, 507.0)">o</text><text xml:space="preserve" font-family="Roboto-Medium" font-size="30.0" fill="#52575F" transform="matrix(1.00, 0.00, -0.00, -1.00, 919.9, 507.0)">w</text><text xml:space="preserve" font-family="Roboto-Medium" font-size="30.0" fill="#52575F" transform="matrix(1.00, 0.00, -0.00, -1.00, 942.3, 507.0)"> </text><text xml:space="preserve" font-family="Roboto-Medium" font-size="30.0" fill="#52575F" transform="matrix(1.00, 0.00, -0.00, -1.00, 478.0, 468.0)">u</text><text xml:space="preserve" font-family="Roboto-Medium" font-size="30.0" fill="#52575F" transform="matrix(1.00, 0.00, -0.00, -1.00, 495.0, 468.0)">s</text><text xml:space="preserve" font-family="Roboto-Medium" font-size="30.0" fill="#52575F" transform="matrix(1.00, 0.00, -0.00, -1.00, 510.6, 468.0)">e</text><text xml:space="preserve" font-family="Roboto-Medium" font-size="30.0" fill="#52575F" transform="matrix(1.00, 0.00, -0.00, -1.00, 526.5, 468.0)">r</text><text xml:space="preserve" font-family="Roboto-Medium" font-size="30.0" fill="#52575F" transform="matrix(1.00, 0.00, -0.00, -1.00, 536.9, 468.0)">s</text><text xml:space="preserve" font-family="Roboto-Medium" font-size="30.0" fill="#52575F" transform="matrix(1.00, 0.00, -0.00, -1.00, 552.5, 468.0)"> </text><text xml:space="preserve" font-family="Roboto-Medium" font-size="30.0" fill="#52575F" transform="matrix(1.00, 0.00, -0.00, -1.00, 560.0, 468.0)">t</text><text xml:space="preserve" font-family="Roboto-Medium" font-size="30.0" fill="#52575F" transform="matrix(1.00, 0.00, -0.00, -1.00, 570.4, 468.0)">o</text><text xml:space="preserve" font-family="Roboto-Medium" font-size="30.0" fill="#52575F" transform="matrix(1.00, 0.00, -0.00, -1.00, 587.4, 468.0)"> </text><text xml:space="preserve" font-family="Roboto-Medium" font-size="30.0" fill="#52575F" transform="matrix(1.00, 0.00, -0.00, -1.00, 594.9, 468.0)">t</text><text xml:space="preserve" font-family="Roboto-Medium" font-size="30.0" fill="#52575F" transform="matrix(1.00, 0.00, -0.00, -1.00, 605.3, 468.0)">a</text><text xml:space="preserve" font-family="Roboto-Medium" font-size="30.0" fill="#52575F" transform="matrix(1.00, 0.00, -0.00, -1.00, 621.6, 468.0)">k</text><text xml:space="preserve" font-family="Roboto-Medium" font-size="30.0" fill="#52575F" transform="matrix(1.00, 0.00, -0.00, -1.00, 637.0, 468.0)">e</text><text xml:space="preserve" font-family="Roboto-Medium" font-size="30.0" fill="#52575F" transform="matrix(1.00, 0.00, -0.00, -1.00, 652.9, 468.0)"> </text><text xml:space="preserve" font-family="Roboto-Medium" font-size="30.0" fill="#52575F" transform="matrix(1.00, 0.00, -0.00, -1.00, 660.4, 468.0)">c</text><text xml:space="preserve" font-family="Roboto-Medium" font-size="30.0" fill="#52575F" transform="matrix(1.00, 0.00, -0.00, -1.00, 676.1, 468.0)">o</text><text xml:space="preserve" font-family="Roboto-Medium" font-size="30.0" fill="#52575F" transform="matrix(1.00, 0.00, -0.00, -1.00, 693.1, 468.0)">r</text><text xml:space="preserve" font-family="Roboto-Medium" font-size="30.0" fill="#52575F" transform="matrix(1.00, 0.00, -0.00, -1.00, 703.5, 468.0)">r</text><text xml:space="preserve" font-family="Roboto-Medium" font-size="30.0" fill="#52575F" transform="matrix(1.00, 0.00, -0.00, -1.00, 713.9, 468.0)">e</text><text xml:space="preserve" font-family="Roboto-Medium" font-size="30.0" fill="#52575F" transform="matrix(1.00, 0.00, -0.00, -1.00, 729.8, 468.0)">c</text><text xml:space="preserve" font-family="Roboto-Medium" font-size="30.0" fill="#52575F" transform="matrix(1.00, 0.00, -0.00, -1.00, 745.5, 468.0)">t</text><text xml:space="preserve" font-family="Roboto-Medium" font-size="30.0" fill="#52575F" transform="matrix(1.00, 0.00, -0.00, -1.00, 755.9, 468.0)">i</text><text xml:space="preserve" font-family="Roboto-Medium" font-size="30.0" fill="#52575F" transform="matrix(1.00, 0.00, -0.00, -1.00, 763.7, 468.0)">v</text><text xml:space="preserve" font-family="Roboto-Medium" font-size="30.0" fill="#52575F" transform="matrix(1.00, 0.00, -0.00, -1.00, 778.7, 468.0)">e</text><text xml:space="preserve" font-family="Roboto-Medium" font-size="30.0" fill="#52575F" transform="matrix(1.00, 0.00, -0.00, -1.00, 794.6, 468.0)"> </text><text xml:space="preserve" font-family="Roboto-Medium" font-size="30.0" fill="#52575F" transform="matrix(1.00, 0.00, -0.00, -1.00, 802.1, 468.0)">a</text><text xml:space="preserve" font-family="Roboto-Medium" font-size="30.0" fill="#52575F" transform="matrix(1.00, 0.00, -0.00, -1.00, 818.4, 468.0)">c</text><text xml:space="preserve" font-family="Roboto-Medium" font-size="30.0" fill="#52575F" transform="matrix(1.00, 0.00, -0.00, -1.00, 834.1, 468.0)">t</text><text xml:space="preserve" font-family="Roboto-Medium" font-size="30.0" fill="#52575F" transform="matrix(1.00, 0.00, -0.00, -1.00, 844.6, 468.0)">i</text><text xml:space="preserve" font-family="Roboto-Medium" font-size="30.0" fill="#52575F" transform="matrix(1.00, 0.00, -0.00, -1.00, 852.3, 468.0)">o</text><text xml:space="preserve" font-family="Roboto-Medium" font-size="30.0" fill="#52575F" transform="matrix(1.00, 0.00, -0.00, -1.00, 869.4, 468.0)">n</text><text xml:space="preserve" font-family="Roboto-Medium" font-size="30.0" fill="#52575F" transform="matrix(1.00, 0.00, -0.00, -1.00, 886.4, 468.0)">s</text><text xml:space="preserve" font-family="Roboto-Medium" font-size="30.0" fill="#52575F" transform="matrix(1.00, 0.00, -0.00, -1.00, 902.0, 468.0)"> </text><text xml:space="preserve" font-family="Roboto-Medium" font-size="30.0" fill="#52575F" transform="matrix(1.00, 0.00, -0.00, -1.00, 909.4, 468.0)">o</text><text xml:space="preserve" font-family="Roboto-Medium" font-size="30.0" fill="#52575F" transform="matrix(1.00, 0.00, -0.00, -1.00, 926.4, 468.0)">n</text><text xml:space="preserve" font-family="Roboto-Medium" font-size="30.0" fill="#52575F" transform="matrix(1.00, 0.00, -0.00, -1.00, 943.4, 468.0)"> </text><text xml:space="preserve" font-family="Roboto-Medium" font-size="30.0" fill="#52575F" transform="matrix(1.00, 0.00, -0.00, -1.00, 950.9, 468.0)">t</text><text xml:space="preserve" font-family="Roboto-Medium" font-size="30.0" fill="#52575F" transform="matrix(1.00, 0.00, -0.00, -1.00, 961.3, 468.0)">h</text><text xml:space="preserve" font-family="Roboto-Medium" font-size="30.0" fill="#52575F" transform="matrix(1.00, 0.00, -0.00, -1.00, 978.3, 468.0)">e</text><text xml:space="preserve" font-family="Roboto-Medium" font-size="30.0" fill="#52575F" transform="matrix(1.00, 0.00, -0.00, -1.00, 994.2, 468.0)"> </text><text xml:space="preserve" font-family="Roboto-Medium" font-size="30.0" fill="#52575F" transform="matrix(1.00, 0.00, -0.00, -1.00, 478.0, 429.0)">s</text><text xml:space="preserve" font-family="Roboto-Medium" font-size="30.0" fill="#52575F" transform="matrix(1.00, 0.00, -0.00, -1.00, 493.6, 429.0)">p</text><text xml:space="preserve" font-family="Roboto-Medium" font-size="30.0" fill="#52575F" transform="matrix(1.00, 0.00, -0.00, -1.00, 510.6, 429.0)">o</text><text xml:space="preserve" font-family="Roboto-Medium" font-size="30.0" fill="#52575F" transform="matrix(1.00, 0.00, -0.00, -1.00, 527.6, 429.0)">t</text><text xml:space="preserve" font-family="Roboto-Medium" font-size="30.0" fill="#52575F" transform="matrix(1.00, 0.00, -0.00, -1.00, 538.0, 429.0)">.</text><text xml:space="preserve" font-family="Roboto-Medium" font-size="30.0" fill="#52575F" transform="matrix(1.00, 0.00, -0.00, -1.00, 546.4, 429.0)"> </text><text xml:space="preserve" font-family="Roboto-Light" font-size="30.0" fill="#52575F" transform="matrix(1.00, 0.00, -0.00, -1.00, 478.0, 351.0)">T</text><text xml:space="preserve" font-family="Roboto-Light" font-size="30.0" fill="#52575F" transform="matrix(1.00, 0.00, -0.00, -1.00, 495.8, 351.0)">h</text><text xml:space="preserve" font-family="Roboto-Light" font-size="30.0" fill="#52575F" transform="matrix(1.00, 0.00, -0.00, -1.00, 512.5, 351.0)">i</text><text xml:space="preserve" font-family="Roboto-Light" font-size="30.0" fill="#52575F" transform="matrix(1.00, 0.00, -0.00, -1.00, 519.3, 351.0)">s</text><text xml:space="preserve" font-family="Roboto-Light" font-size="30.0" fill="#52575F" transform="matrix(1.00, 0.00, -0.00, -1.00, 534.6, 351.0)"> </text><text xml:space="preserve" font-family="Roboto-Light" font-size="30.0" fill="#52575F" transform="matrix(1.00, 0.00, -0.00, -1.00, 541.9, 351.0)">i</text><text xml:space="preserve" font-family="Roboto-Light" font-size="30.0" fill="#52575F" transform="matrix(1.00, 0.00, -0.00, -1.00, 548.7, 351.0)">s</text><text xml:space="preserve" font-family="Roboto-Light" font-size="30.0" fill="#52575F" transform="matrix(1.00, 0.00, -0.00, -1.00, 564.0, 351.0)"> </text><text xml:space="preserve" font-family="Roboto-Light" font-size="30.0" fill="#52575F" transform="matrix(1.00, 0.00, -0.00, -1.00, 571.3, 351.0)">a</text><text xml:space="preserve" font-family="Roboto-Light" font-size="30.0" fill="#52575F" transform="matrix(1.00, 0.00, -0.00, -1.00, 587.4, 351.0)">n</text><text xml:space="preserve" font-family="Roboto-Light" font-size="30.0" fill="#52575F" transform="matrix(1.00, 0.00, -0.00, -1.00, 604.1, 351.0)"> </text><text xml:space="preserve" font-family="Roboto-Light" font-size="30.0" fill="#52575F" transform="matrix(1.00, 0.00, -0.00, -1.00, 611.4, 351.0)">e</text><text xml:space="preserve" font-family="Roboto-Light" font-size="30.0" fill="#52575F" transform="matrix(1.00, 0.00, -0.00, -1.00, 626.8, 351.0)">n</text><text xml:space="preserve" font-family="Roboto-Light" font-size="30.0" fill="#52575F" transform="matrix(1.00, 0.00, -0.00, -1.00, 643.5, 351.0)">t</text><text xml:space="preserve" font-family="Roboto-Light" font-size="30.0" fill="#52575F" transform="matrix(1.00, 0.00, -0.00, -1.00, 653.5, 351.0)">r</text><text xml:space="preserve" font-family="Roboto-Light" font-size="30.0" fill="#52575F" transform="matrix(1.00, 0.00, -0.00, -1.00, 664.0, 351.0)">y</text><text xml:space="preserve" font-family="Roboto-Light" font-size="30.0" fill="#52575F" transform="matrix(1.00, 0.00, -0.00, -1.00, 678.6, 351.0)"> </text><text xml:space="preserve" font-family="Roboto-Light" font-size="30.0" fill="#52575F" transform="matrix(1.00, 0.00, -0.00, -1.00, 686.0, 351.0)">s</text><text xml:space="preserve" font-family="Roboto-Light" font-size="30.0" fill="#52575F" transform="matrix(1.00, 0.00, -0.00, -1.00, 701.2, 351.0)">c</text><text xml:space="preserve" font-family="Roboto-Light" font-size="30.0" fill="#52575F" transform="matrix(1.00, 0.00, -0.00, -1.00, 716.8, 351.0)">r</text><text xml:space="preserve" font-family="Roboto-Light" font-size="30.0" fill="#52575F" transform="matrix(1.00, 0.00, -0.00, -1.00, 726.7, 351.0)">e</text><text xml:space="preserve" font-family="Roboto-Light" font-size="30.0" fill="#52575F" transform="matrix(1.00, 0.00, -0.00, -1.00, 742.2, 351.0)">e</text><text xml:space="preserve" font-family="Roboto-Light" font-size="30.0" fill="#52575F" transform="matrix(1.00, 0.00, -0.00, -1.00, 757.6, 351.0)">n</text><text xml:space="preserve" font-family="Roboto-Light" font-size="30.0" fill="#52575F" transform="matrix(1.00, 0.00, -0.00, -1.00, 774.3, 351.0)"> </text><text xml:space="preserve" font-family="Roboto-Light" font-size="30.0" fill="#52575F" transform="matrix(1.00, 0.00, -0.00, -1.00, 781.6, 351.0)">f</text><text xml:space="preserve" font-family="Roboto-Light" font-size="30.0" fill="#52575F" transform="matrix(1.00, 0.00, -0.00, -1.00, 791.5, 351.0)">r</text><text xml:space="preserve" font-family="Roboto-Light" font-size="30.0" fill="#52575F" transform="matrix(1.00, 0.00, -0.00, -1.00, 801.4, 351.0)">o</text><text xml:space="preserve" font-family="Roboto-Light" font-size="30.0" fill="#52575F" transform="matrix(1.00, 0.00, -0.00, -1.00, 818.1, 351.0)">m</text><text xml:space="preserve" font-family="Roboto-Light" font-size="30.0" fill="#52575F" transform="matrix(1.00, 0.00, -0.00, -1.00, 844.7, 351.0)"> </text><text xml:space="preserve" font-family="Roboto-Light" font-size="30.0" fill="#52575F" transform="matrix(1.00, 0.00, -0.00, -1.00, 852.0, 351.0)">t</text><text xml:space="preserve" font-family="Roboto-Light" font-size="30.0" fill="#52575F" transform="matrix(1.00, 0.00, -0.00, -1.00, 861.9, 351.0)">h</text><text xml:space="preserve" font-family="Roboto-Light" font-size="30.0" fill="#52575F" transform="matrix(1.00, 0.00, -0.00, -1.00, 878.6, 351.0)">e</text><text xml:space="preserve" font-family="Roboto-Light" font-size="30.0" fill="#52575F" transform="matrix(1.00, 0.00, -0.00, -1.00, 894.1, 351.0)"> </text><text xml:space="preserve" font-family="Roboto-Light" font-size="30.0" fill="#52575F" transform="matrix(1.00, 0.00, -0.00, -1.00, 478.0, 312.0)">N</text><text xml:space="preserve" font-family="Roboto-Light" font-size="30.0" fill="#52575F" transform="matrix(1.00, 0.00, -0.00, -1.00, 499.3, 312.0)">e</text><text xml:space="preserve" font-family="Roboto-Light" font-size="30.0" fill="#52575F" transform="matrix(1.00, 0.00, -0.00, -1.00, 514.8, 312.0)">g</text><text xml:space="preserve" font-family="Roboto-Light" font-size="30.0" fill="#52575F" transform="matrix(1.00, 0.00, -0.00, -1.00, 531.5, 312.0)">a</text><text xml:space="preserve" font-family="Roboto-Light" font-size="30.0" fill="#52575F" transform="matrix(1.00, 0.00, -0.00, -1.00, 547.6, 312.0)">t</text><text xml:space="preserve" font-family="Roboto-Light" font-size="30.0" fill="#52575F" transform="matrix(1.00, 0.00, -0.00, -1.00, 557.5, 312.0)">i</text><text xml:space="preserve" font-family="Roboto-Light" font-size="30.0" fill="#52575F" transform="matrix(1.00, 0.00, -0.00, -1.00, 564.4, 312.0)">v</text><text xml:space="preserve" font-family="Roboto-Light" font-size="30.0" fill="#52575F" transform="matrix(1.00, 0.00, -0.00, -1.00, 578.9, 312.0)">e</text><text xml:space="preserve" font-family="Roboto-Light" font-size="30.0" fill="#52575F" transform="matrix(1.00, 0.00, -0.00, -1.00, 594.3, 312.0)"> </text><text xml:space="preserve" font-family="Roboto-Light" font-size="30.0" fill="#52575F" transform="matrix(1.00, 0.00, -0.00, -1.00, 601.6, 312.0)">K</text><text xml:space="preserve" font-family="Roboto-Light" font-size="30.0" fill="#52575F" transform="matrix(1.00, 0.00, -0.00, -1.00, 620.4, 312.0)">e</text><text xml:space="preserve" font-family="Roboto-Light" font-size="30.0" fill="#52575F" transform="matrix(1.00, 0.00, -0.00, -1.00, 635.7, 312.0)">y</text><text xml:space="preserve" font-family="Roboto-Light" font-size="30.0" fill="#52575F" transform="matrix(1.00, 0.00, -0.00, -1.00, 650.3, 312.0)">w</text><text xml:space="preserve" font-family="Roboto-Light" font-size="30.0" fill="#52575F" transform="matrix(1.00, 0.00, -0.00, -1.00, 673.0, 312.0)">o</text><text xml:space="preserve" font-family="Roboto-Light" font-size="30.0" fill="#52575F" transform="matrix(1.00, 0.00, -0.00, -1.00, 689.7, 312.0)">r</text><text xml:space="preserve" font-family="Roboto-Light" font-size="30.0" fill="#52575F" transform="matrix(1.00, 0.00, -0.00, -1.00, 699.7, 312.0)">d</text><text xml:space="preserve" font-family="Roboto-Light" font-size="30.0" fill="#52575F" transform="matrix(1.00, 0.00, -0.00, -1.00, 716.4, 312.0)"> </text><text xml:space="preserve" font-family="Roboto-Light" font-size="30.0" fill="#52575F" transform="matrix(1.00, 0.00, -0.00, -1.00, 723.7, 312.0)">e</text><text xml:space="preserve" font-family="Roboto-Light" font-size="30.0" fill="#52575F" transform="matrix(1.00, 0.00, -0.00, -1.00, 739.1, 312.0)">x</text><text xml:space="preserve" font-family="Roboto-Light" font-size="30.0" fill="#52575F" transform="matrix(1.00, 0.00, -0.00, -1.00, 753.8, 312.0)">a</text><text xml:space="preserve" font-family="Roboto-Light" font-size="30.0" fill="#52575F" transform="matrix(1.00, 0.00, -0.00, -1.00, 769.9, 312.0)">m</text><text xml:space="preserve" font-family="Roboto-Light" font-size="30.0" fill="#52575F" transform="matrix(1.00, 0.00, -0.00, -1.00, 796.5, 312.0)">p</text><text xml:space="preserve" font-family="Roboto-Light" font-size="30.0" fill="#52575F" transform="matrix(1.00, 0.00, -0.00, -1.00, 813.2, 312.0)">l</text><text xml:space="preserve" font-family="Roboto-Light" font-size="30.0" fill="#52575F" transform="matrix(1.00, 0.00, -0.00, -1.00, 820.0, 312.0)">e</text><text xml:space="preserve" font-family="Roboto-Light" font-size="30.0" fill="#52575F" transform="matrix(1.00, 0.00, -0.00, -1.00, 835.5, 312.0)">.</text><text xml:space="preserve" font-family="Roboto-Light" font-size="30.0" fill="#52575F" transform="matrix(1.00, 0.00, -0.00, -1.00, 842.6, 312.0)"> </text><text xml:space="preserve" font-family="Roboto-Light" font-size="30.0" fill="#52575F" transform="matrix(1.00, 0.00, -0.00, -1.00, 849.9, 312.0)"> </text><text xml:space="preserve" font-family="Roboto-Light" font-size="30.0" fill="#52575F" transform="matrix(1.00, 0.00, -0.00, -1.00, 478.0, 234.0)">T</text><text xml:space="preserve" font-family="Roboto-Light" font-size="30.0" fill="#52575F" transform="matrix(1.00, 0.00, -0.00, -1.00, 495.8, 234.0)">h</text><text xml:space="preserve" font-family="Roboto-Light" font-size="30.0" fill="#52575F" transform="matrix(1.00, 0.00, -0.00, -1.00, 512.5, 234.0)">e</text><text xml:space="preserve" font-family="Roboto-Light" font-size="30.0" fill="#52575F" transform="matrix(1.00, 0.00, -0.00, -1.00, 527.9, 234.0)"> </text><text xml:space="preserve" font-family="Roboto-Medium" font-size="30.0" fill="#52575F" transform="matrix(1.00, 0.00, -0.00, -1.00, 535.2, 234.0)">u</text><text xml:space="preserve" font-family="Roboto-Medium" font-size="30.0" fill="#52575F" transform="matrix(1.00, 0.00, -0.00, -1.00, 552.2, 234.0)">s</text><text xml:space="preserve" font-family="Roboto-Medium" font-size="30.0" fill="#52575F" transform="matrix(1.00, 0.00, -0.00, -1.00, 567.8, 234.0)">e</text><text xml:space="preserve" font-family="Roboto-Medium" font-size="30.0" fill="#52575F" transform="matrix(1.00, 0.00, -0.00, -1.00, 583.7, 234.0)">r</text><text xml:space="preserve" font-family="Roboto-Medium" font-size="30.0" fill="#52575F" transform="matrix(1.00, 0.00, -0.00, -1.00, 594.1, 234.0)"> </text><text xml:space="preserve" font-family="Roboto-Medium" font-size="30.0" fill="#52575F" transform="matrix(1.00, 0.00, -0.00, -1.00, 601.6, 234.0)">g</text><text xml:space="preserve" font-family="Roboto-Medium" font-size="30.0" fill="#52575F" transform="matrix(1.00, 0.00, -0.00, -1.00, 618.6, 234.0)">e</text><text xml:space="preserve" font-family="Roboto-Medium" font-size="30.0" fill="#52575F" transform="matrix(1.00, 0.00, -0.00, -1.00, 634.5, 234.0)">t</text><text xml:space="preserve" font-family="Roboto-Medium" font-size="30.0" fill="#52575F" transform="matrix(1.00, 0.00, -0.00, -1.00, 644.9, 234.0)">s</text><text xml:space="preserve" font-family="Roboto-Medium" font-size="30.0" fill="#52575F" transform="matrix(1.00, 0.00, -0.00, -1.00, 660.5, 234.0)"> </text><text xml:space="preserve" font-family="Roboto-Medium" font-size="30.0" fill="#52575F" transform="matrix(1.00, 0.00, -0.00, -1.00, 668.0, 234.0)">t</text><text xml:space="preserve" font-family="Roboto-Medium" font-size="30.0" fill="#52575F" transform="matrix(1.00, 0.00, -0.00, -1.00, 678.4, 234.0)">h</text><text xml:space="preserve" font-family="Roboto-Medium" font-size="30.0" fill="#52575F" transform="matrix(1.00, 0.00, -0.00, -1.00, 695.4, 234.0)">e</text><text xml:space="preserve" font-family="Roboto-Medium" font-size="30.0" fill="#52575F" transform="matrix(1.00, 0.00, -0.00, -1.00, 711.3, 234.0)"> </text><text xml:space="preserve" font-family="Roboto-Medium" font-size="30.0" fill="#52575F" transform="matrix(1.00, 0.00, -0.00, -1.00, 718.7, 234.0)">i</text><text xml:space="preserve" font-family="Roboto-Medium" font-size="30.0" fill="#52575F" transform="matrix(1.00, 0.00, -0.00, -1.00, 726.5, 234.0)">n</text><text xml:space="preserve" font-family="Roboto-Medium" font-size="30.0" fill="#52575F" transform="matrix(1.00, 0.00, -0.00, -1.00, 743.5, 234.0)">s</text><text xml:space="preserve" font-family="Roboto-Medium" font-size="30.0" fill="#52575F" transform="matrix(1.00, 0.00, -0.00, -1.00, 759.1, 234.0)">i</text><text xml:space="preserve" font-family="Roboto-Medium" font-size="30.0" fill="#52575F" transform="matrix(1.00, 0.00, -0.00, -1.00, 766.9, 234.0)">g</text><text xml:space="preserve" font-family="Roboto-Medium" font-size="30.0" fill="#52575F" transform="matrix(1.00, 0.00, -0.00, -1.00, 783.9, 234.0)">h</text><text xml:space="preserve" font-family="Roboto-Medium" font-size="30.0" fill="#52575F" transform="matrix(1.00, 0.00, -0.00, -1.00, 800.9, 234.0)">t</text><text xml:space="preserve" font-family="Roboto-Medium" font-size="30.0" fill="#52575F" transform="matrix(1.00, 0.00, -0.00, -1.00, 811.3, 234.0)"> </text><text xml:space="preserve" font-family="Roboto-Medium" font-size="30.0" fill="#52575F" transform="matrix(1.00, 0.00, -0.00, -1.00, 818.8, 234.0)">a</text><text xml:space="preserve" font-family="Roboto-Medium" font-size="30.0" fill="#52575F" transform="matrix(1.00, 0.00, -0.00, -1.00, 835.1, 234.0)">n</text><text xml:space="preserve" font-family="Roboto-Medium" font-size="30.0" fill="#52575F" transform="matrix(1.00, 0.00, -0.00, -1.00, 852.1, 234.0)">d</text><text xml:space="preserve" font-family="Roboto-Medium" font-size="30.0" fill="#52575F" transform="matrix(1.00, 0.00, -0.00, -1.00, 869.1, 234.0)"> </text><text xml:space="preserve" font-family="Roboto-Medium" font-size="30.0" fill="#52575F" transform="matrix(1.00, 0.00, -0.00, -1.00, 876.6, 234.0)">c</text><text xml:space="preserve" font-family="Roboto-Medium" font-size="30.0" fill="#52575F" transform="matrix(1.00, 0.00, -0.00, -1.00, 892.4, 234.0)">a</text><text xml:space="preserve" font-family="Roboto-Medium" font-size="30.0" fill="#52575F" transform="matrix(1.00, 0.00, -0.00, -1.00, 908.7, 234.0)">n</text><text xml:space="preserve" font-family="Roboto-Medium" font-size="30.0" fill="#52575F" transform="matrix(1.00, 0.00, -0.00, -1.00, 925.7, 234.0)"> </text><text xml:space="preserve" font-family="Roboto-Medium" font-size="30.0" fill="#52575F" transform="matrix(1.00, 0.00, -0.00, -1.00, 478.0, 195.0)">c</text><text xml:space="preserve" font-family="Roboto-Medium" font-size="30.0" fill="#52575F" transform="matrix(1.00, 0.00, -0.00, -1.00, 493.7, 195.0)">o</text><text xml:space="preserve" font-family="Roboto-Medium" font-size="30.0" fill="#52575F" transform="matrix(1.00, 0.00, -0.00, -1.00, 510.7, 195.0)">r</text><text xml:space="preserve" font-family="Roboto-Medium" font-size="30.0" fill="#52575F" transform="matrix(1.00, 0.00, -0.00, -1.00, 521.1, 195.0)">r</text><text xml:space="preserve" font-family="Roboto-Medium" font-size="30.0" fill="#52575F" transform="matrix(1.00, 0.00, -0.00, -1.00, 531.5, 195.0)">e</text><text xml:space="preserve" font-family="Roboto-Medium" font-size="30.0" fill="#52575F" transform="matrix(1.00, 0.00, -0.00, -1.00, 547.4, 195.0)">c</text><text xml:space="preserve" font-family="Roboto-Medium" font-size="30.0" fill="#52575F" transform="matrix(1.00, 0.00, -0.00, -1.00, 563.2, 195.0)">t</text><text xml:space="preserve" font-family="Roboto-Medium" font-size="30.0" fill="#52575F" transform="matrix(1.00, 0.00, -0.00, -1.00, 573.6, 195.0)"> </text><text xml:space="preserve" font-family="Roboto-Medium" font-size="30.0" fill="#52575F" transform="matrix(1.00, 0.00, -0.00, -1.00, 581.1, 195.0)">t</text><text xml:space="preserve" font-family="Roboto-Medium" font-size="30.0" fill="#52575F" transform="matrix(1.00, 0.00, -0.00, -1.00, 591.5, 195.0)">h</text><text xml:space="preserve" font-family="Roboto-Medium" font-size="30.0" fill="#52575F" transform="matrix(1.00, 0.00, -0.00, -1.00, 608.5, 195.0)">e</text><text xml:space="preserve" font-family="Roboto-Medium" font-size="30.0" fill="#52575F" transform="matrix(1.00, 0.00, -0.00, -1.00, 624.4, 195.0)"> </text><text xml:space="preserve" font-family="Roboto-Medium" font-size="30.0" fill="#52575F" transform="matrix(1.00, 0.00, -0.00, -1.00, 631.8, 195.0)">i</text><text xml:space="preserve" font-family="Roboto-Medium" font-size="30.0" fill="#52575F" transform="matrix(1.00, 0.00, -0.00, -1.00, 639.6, 195.0)">s</text><text xml:space="preserve" font-family="Roboto-Medium" font-size="30.0" fill="#52575F" transform="matrix(1.00, 0.00, -0.00, -1.00, 655.2, 195.0)">s</text><text xml:space="preserve" font-family="Roboto-Medium" font-size="30.0" fill="#52575F" transform="matrix(1.00, 0.00, -0.00, -1.00, 670.8, 195.0)">u</text><text xml:space="preserve" font-family="Roboto-Medium" font-size="30.0" fill="#52575F" transform="matrix(1.00, 0.00, -0.00, -1.00, 687.8, 195.0)">e</text><text xml:space="preserve" font-family="Roboto-Medium" font-size="30.0" fill="#52575F" transform="matrix(1.00, 0.00, -0.00, -1.00, 703.7, 195.0)"> </text><text xml:space="preserve" font-family="Roboto-Medium" font-size="30.0" fill="#52575F" transform="matrix(1.00, 0.00, -0.00, -1.00, 711.2, 195.0)">i</text><text xml:space="preserve" font-family="Roboto-Medium" font-size="30.0" fill="#52575F" transform="matrix(1.00, 0.00, -0.00, -1.00, 719.0, 195.0)">n</text><text xml:space="preserve" font-family="Roboto-Medium" font-size="30.0" fill="#52575F" transform="matrix(1.00, 0.00, -0.00, -1.00, 736.0, 195.0)"> </text><text xml:space="preserve" font-family="Roboto-Medium" font-size="30.0" fill="#52575F" transform="matrix(1.00, 0.00, -0.00, -1.00, 743.5, 195.0)">a</text><text xml:space="preserve" font-family="Roboto-Medium" font-size="30.0" fill="#52575F" transform="matrix(1.00, 0.00, -0.00, -1.00, 759.8, 195.0)"> </text><text xml:space="preserve" font-family="Roboto-Medium" font-size="30.0" fill="#52575F" transform="matrix(1.00, 0.00, -0.00, -1.00, 767.2, 195.0)">m</text><text xml:space="preserve" font-family="Roboto-Medium" font-size="30.0" fill="#52575F" transform="matrix(1.00, 0.00, -0.00, -1.00, 793.3, 195.0)">a</text><text xml:space="preserve" font-family="Roboto-Medium" font-size="30.0" fill="#52575F" transform="matrix(1.00, 0.00, -0.00, -1.00, 809.6, 195.0)">t</text><text xml:space="preserve" font-family="Roboto-Medium" font-size="30.0" fill="#52575F" transform="matrix(1.00, 0.00, -0.00, -1.00, 820.1, 195.0)">t</text><text xml:space="preserve" font-family="Roboto-Medium" font-size="30.0" fill="#52575F" transform="matrix(1.00, 0.00, -0.00, -1.00, 830.5, 195.0)">e</text><text xml:space="preserve" font-family="Roboto-Medium" font-size="30.0" fill="#52575F" transform="matrix(1.00, 0.00, -0.00, -1.00, 846.4, 195.0)">r</text><text xml:space="preserve" font-family="Roboto-Medium" font-size="30.0" fill="#52575F" transform="matrix(1.00, 0.00, -0.00, -1.00, 856.8, 195.0)"> </text><text xml:space="preserve" font-family="Roboto-Medium" font-size="30.0" fill="#52575F" transform="matrix(1.00, 0.00, -0.00, -1.00, 864.2, 195.0)">o</text><text xml:space="preserve" font-family="Roboto-Medium" font-size="30.0" fill="#52575F" transform="matrix(1.00, 0.00, -0.00, -1.00, 881.2, 195.0)">f</text><text xml:space="preserve" font-family="Roboto-Medium" font-size="30.0" fill="#52575F" transform="matrix(1.00, 0.00, -0.00, -1.00, 891.8, 195.0)"> </text><text xml:space="preserve" font-family="Roboto-Medium" font-size="30.0" fill="#52575F" transform="matrix(1.00, 0.00, -0.00, -1.00, 478.0, 156.0)">s</text><text xml:space="preserve" font-family="Roboto-Medium" font-size="30.0" fill="#52575F" transform="matrix(1.00, 0.00, -0.00, -1.00, 493.6, 156.0)">e</text><text xml:space="preserve" font-family="Roboto-Medium" font-size="30.0" fill="#52575F" transform="matrix(1.00, 0.00, -0.00, -1.00, 509.5, 156.0)">c</text><text xml:space="preserve" font-family="Roboto-Medium" font-size="30.0" fill="#52575F" transform="matrix(1.00, 0.00, -0.00, -1.00, 525.2, 156.0)">o</text><text xml:space="preserve" font-family="Roboto-Medium" font-size="30.0" fill="#52575F" transform="matrix(1.00, 0.00, -0.00, -1.00, 542.2, 156.0)">n</text><text xml:space="preserve" font-family="Roboto-Medium" font-size="30.0" fill="#52575F" transform="matrix(1.00, 0.00, -0.00, -1.00, 559.2, 156.0)">d</text><text xml:space="preserve" font-family="Roboto-Medium" font-size="30.0" fill="#52575F" transform="matrix(1.00, 0.00, -0.00, -1.00, 576.2, 156.0)">s</text><text xml:space="preserve" font-family="Roboto-Medium" font-size="30.0" fill="#52575F" transform="matrix(1.00, 0.00, -0.00, -1.00, 591.8, 156.0)">.</text><image xlink:href="../../5F02FCC0-0D98-4E12-919B-FA92687AA202/assets/083F07B6A1CFAEAB00B9E7635974005A.png" width="304.00" height="541.00" transform="matrix(1.04, 0.00, -0.00, -1.04, 118.0, 626.0)"></image><image xlink:href="76A25D9385F596064D8340986B017E21.png" width="304.00" height="541.00" transform="matrix(1.04, 0.00, -0.00, -1.04, 118.0, 626.0)"></image></g></svg>