<?xml version="1.0" encoding="UTF-8" standalone="no"?><svg xmlns="http://www.w3.org/2000/svg" xmlns:xlink="http://www.w3.org/1999/xlink" clip-rule="evenodd" stroke-miterlimit="4.00" viewBox="0 0 1024 768"><desc>SVG generated by Keynote</desc><defs></defs><g transform="matrix(1.00, 0.00, -0.00, -1.00, 0.0, 768.0)"><path d="M 0.0 768.0 L 1024.0 768.0 L 1024.0 0.0 L 0.0 0.0 Z M 0.0 768.0 " fill="#FEFFFF"></path><image xlink:href="../../615F7CD4-E262-41F7-8138-806EC6AB1FAB/assets/160DC7B11EBBE6079C1E79740E8C03B9.png" width="134.00" height="45.00" transform="matrix(1.00, 0.00, -0.00, -1.00, 867.0, 64.0)"></image><text xml:space="preserve" font-family="Roboto-Bold" font-weight="bold" font-size="40.0" fill="#4185F4" transform="matrix(1.00, 0.00, -0.00, -1.00, 459.0, 683.0)">B</text><text xml:space="preserve" font-family="Roboto-Bold" font-weight="bold" font-size="40.0" fill="#4185F4" transform="matrix(1.00, 0.00, -0.00, -1.00, 484.6, 683.0)">r</text><text xml:space="preserve" font-family="Roboto-Bold" font-weight="bold" font-size="40.0" fill="#4185F4" transform="matrix(1.00, 0.00, -0.00, -1.00, 498.7, 683.0)">a</text><text xml:space="preserve" font-family="Roboto-Bold" font-weight="bold" font-size="40.0" fill="#4185F4" transform="matrix(1.00, 0.00, -0.00, -1.00, 520.2, 683.0)">n</text><text xml:space="preserve" font-family="Roboto-Bold" font-weight="bold" font-size="40.0" fill="#4185F4" transform="matrix(1.00, 0.00, -0.00, -1.00, 542.8, 683.0)">d</text><g><clipPath id="clip-58"><path d="M 160.0 450.0 L 394.7 450.0 L 394.7 433.6 L 160.0 433.6 L 160.0 450.0 Z M 160.0 450.0 "></path></clipPath><g clip-path="url(#clip-58)"><g><clipPath id="clip-59"><path d="M 160.0 408.0 L 864.0 408.0 L 864.0 450.0 L 160.0 450.0 Z M 160.0 408.0 "></path></clipPath><g clip-path="url(#clip-59)"><path d="M 157.8 431.4 L 396.9 431.4 L 396.9 452.2 L 157.8 452.2 Z M 157.8 431.4 " fill="#FA7D87"></path></g></g></g></g><g><clipPath id="clip-60"><path d="M 629.3 450.0 L 864.0 450.0 L 864.0 433.6 L 629.3 433.6 L 629.3 450.0 Z M 629.3 450.0 "></path></clipPath><g clip-path="url(#clip-60)"><g><clipPath id="clip-61"><path d="M 160.0 408.0 L 864.0 408.0 L 864.0 450.0 L 160.0 450.0 Z M 160.0 408.0 "></path></clipPath><g clip-path="url(#clip-61)"><path d="M 627.1 431.4 L 866.2 431.4 L 866.2 452.2 L 627.1 452.2 Z M 627.1 431.4 " fill="#DD414D"></path></g></g></g></g><g><clipPath id="clip-62"><path d="M 394.7 450.0 L 629.3 450.0 L 629.3 433.6 L 394.7 433.6 L 394.7 450.0 Z M 394.7 450.0 "></path></clipPath><g clip-path="url(#clip-62)"><g><clipPath id="clip-63"><path d="M 160.0 408.0 L 864.0 408.0 L 864.0 450.0 L 160.0 450.0 Z M 160.0 408.0 "></path></clipPath><g clip-path="url(#clip-63)"><path d="M 392.5 431.4 L 631.5 431.4 L 631.5 452.2 L 392.5 452.2 Z M 392.5 431.4 " fill="#F74551"></path></g></g></g></g><g><clipPath id="clip-64"><path d="M 160.0 408.0 L 864.0 408.0 L 864.0 450.0 L 160.0 450.0 Z M 160.0 408.0 "></path></clipPath><g clip-path="url(#clip-64)"><text xml:space="preserve" font-family="Roboto-Regular" font-size="35.0" fill="#4A494A" transform="matrix(0.44, 0.00, -0.00, -0.44, 226.4, 408.4)">H</text><text xml:space="preserve" font-family="Roboto-Regular" font-size="35.0" fill="#4A494A" transform="matrix(0.44, 0.00, -0.00, -0.44, 237.4, 408.4)">E</text><text xml:space="preserve" font-family="Roboto-Regular" font-size="35.0" fill="#4A494A" transform="matrix(0.44, 0.00, -0.00, -0.44, 246.4, 408.4)">X</text><text xml:space="preserve" font-family="Roboto-Regular" font-size="35.0" fill="#4A494A" transform="matrix(0.44, 0.00, -0.00, -0.44, 256.2, 408.4)">:</text><text xml:space="preserve" font-family="Roboto-Regular" font-size="35.0" fill="#4A494A" transform="matrix(0.44, 0.00, -0.00, -0.44, 260.1, 408.4)"> </text><text xml:space="preserve" font-family="Roboto-Regular" font-size="35.0" fill="#4A494A" transform="matrix(0.44, 0.00, -0.00, -0.44, 263.9, 408.4)">#</text><text xml:space="preserve" font-family="Roboto-Regular" font-size="35.0" fill="#4A494A" transform="matrix(0.44, 0.00, -0.00, -0.44, 273.5, 408.4)">F</text><text xml:space="preserve" font-family="Roboto-Regular" font-size="35.0" fill="#4A494A" transform="matrix(0.44, 0.00, -0.00, -0.44, 282.1, 408.4)">A</text><text xml:space="preserve" font-family="Roboto-Regular" font-size="35.0" fill="#4A494A" transform="matrix(0.44, 0.00, -0.00, -0.44, 292.1, 408.4)">7</text><text xml:space="preserve" font-family="Roboto-Regular" font-size="35.0" fill="#4A494A" transform="matrix(0.44, 0.00, -0.00, -0.44, 300.8, 408.4)">D</text><text xml:space="preserve" font-family="Roboto-Regular" font-size="35.0" fill="#4A494A" transform="matrix(0.44, 0.00, -0.00, -0.44, 310.9, 408.4)">8</text><text xml:space="preserve" font-family="Roboto-Regular" font-size="35.0" fill="#4A494A" transform="matrix(0.44, 0.00, -0.00, -0.44, 319.6, 408.4)">8</text><text xml:space="preserve" font-family="Roboto-Regular" font-size="35.0" fill="#4A494A" transform="matrix(0.44, 0.00, -0.00, -0.44, 328.3, 408.4)"> </text><text xml:space="preserve" font-family="Roboto-Regular" font-size="35.0" fill="#4A494A" transform="matrix(0.44, 0.00, -0.00, -0.44, 462.2, 408.4)">H</text><text xml:space="preserve" font-family="Roboto-Regular" font-size="35.0" fill="#4A494A" transform="matrix(0.44, 0.00, -0.00, -0.44, 473.2, 408.4)">E</text><text xml:space="preserve" font-family="Roboto-Regular" font-size="35.0" fill="#4A494A" transform="matrix(0.44, 0.00, -0.00, -0.44, 482.2, 408.4)">X</text><text xml:space="preserve" font-family="Roboto-Regular" font-size="35.0" fill="#4A494A" transform="matrix(0.44, 0.00, -0.00, -0.44, 492.0, 408.4)">:</text><text xml:space="preserve" font-family="Roboto-Regular" font-size="35.0" fill="#4A494A" transform="matrix(0.44, 0.00, -0.00, -0.44, 495.9, 408.4)"> </text><text xml:space="preserve" font-family="Roboto-Regular" font-size="35.0" fill="#4A494A" transform="matrix(0.44, 0.00, -0.00, -0.44, 499.8, 408.4)">#</text><text xml:space="preserve" font-family="Roboto-Regular" font-size="35.0" fill="#4A494A" transform="matrix(0.44, 0.00, -0.00, -0.44, 509.4, 408.4)">F</text><text xml:space="preserve" font-family="Roboto-Regular" font-size="35.0" fill="#4A494A" transform="matrix(0.44, 0.00, -0.00, -0.44, 518.4, 408.4)">8</text><text xml:space="preserve" font-family="Roboto-Regular" font-size="35.0" fill="#4A494A" transform="matrix(0.44, 0.00, -0.00, -0.44, 527.1, 408.4)">4</text><text xml:space="preserve" font-family="Roboto-Regular" font-size="35.0" fill="#4A494A" transform="matrix(0.44, 0.00, -0.00, -0.44, 535.8, 408.4)">6</text><text xml:space="preserve" font-family="Roboto-Regular" font-size="35.0" fill="#4A494A" transform="matrix(0.44, 0.00, -0.00, -0.44, 544.4, 408.4)">5</text><text xml:space="preserve" font-family="Roboto-Regular" font-size="35.0" fill="#4A494A" transform="matrix(0.44, 0.00, -0.00, -0.44, 553.1, 408.4)">1</text><text xml:space="preserve" font-family="Roboto-Regular" font-size="35.0" fill="#4A494A" transform="matrix(0.44, 0.00, -0.00, -0.44, 561.8, 408.4)"> </text><text xml:space="preserve" font-family="Roboto-Regular" font-size="35.0" fill="#4A494A" transform="matrix(0.44, 0.00, -0.00, -0.44, 695.4, 408.4)">H</text><text xml:space="preserve" font-family="Roboto-Regular" font-size="35.0" fill="#4A494A" transform="matrix(0.44, 0.00, -0.00, -0.44, 706.4, 408.4)">E</text><text xml:space="preserve" font-family="Roboto-Regular" font-size="35.0" fill="#4A494A" transform="matrix(0.44, 0.00, -0.00, -0.44, 715.4, 408.4)">X</text><text xml:space="preserve" font-family="Roboto-Regular" font-size="35.0" fill="#4A494A" transform="matrix(0.44, 0.00, -0.00, -0.44, 725.2, 408.4)">:</text><text xml:space="preserve" font-family="Roboto-Regular" font-size="35.0" fill="#4A494A" transform="matrix(0.44, 0.00, -0.00, -0.44, 729.1, 408.4)"> </text><text xml:space="preserve" font-family="Roboto-Regular" font-size="35.0" fill="#4A494A" transform="matrix(0.44, 0.00, -0.00, -0.44, 732.9, 408.4)">#</text><text xml:space="preserve" font-family="Roboto-Regular" font-size="35.0" fill="#4A494A" transform="matrix(0.44, 0.00, -0.00, -0.44, 742.6, 408.4)">D</text><text xml:space="preserve" font-family="Roboto-Regular" font-size="35.0" fill="#4A494A" transform="matrix(0.44, 0.00, -0.00, -0.44, 752.7, 408.4)">E</text><text xml:space="preserve" font-family="Roboto-Regular" font-size="35.0" fill="#4A494A" transform="matrix(0.44, 0.00, -0.00, -0.44, 761.7, 408.4)">4</text><text xml:space="preserve" font-family="Roboto-Regular" font-size="35.0" fill="#4A494A" transform="matrix(0.44, 0.00, -0.00, -0.44, 770.4, 408.4)">2</text><text xml:space="preserve" font-family="Roboto-Regular" font-size="35.0" fill="#4A494A" transform="matrix(0.44, 0.00, -0.00, -0.44, 779.1, 408.4)">4</text><text xml:space="preserve" font-family="Roboto-Regular" font-size="35.0" fill="#4A494A" transform="matrix(0.44, 0.00, -0.00, -0.44, 787.8, 408.4)">D</text><text xml:space="preserve" font-family="Roboto-Regular" font-size="35.0" fill="#4A494A" transform="matrix(0.44, 0.00, -0.00, -0.44, 798.0, 408.4)"> </text></g></g><image xlink:href="6FA5CA02DD26130488FE77AD23AD1753.png" width="768.00" height="79.00" transform="matrix(1.00, 0.00, -0.00, -1.00, 128.0, 598.0)"></image><g><clipPath id="clip-65"><path d="M 266.0 190.0 L 819.0 190.0 L 819.0 328.0 L 266.0 328.0 Z M 266.0 190.0 "></path></clipPath><g clip-path="url(#clip-65)"><text xml:space="preserve" font-family="Roboto-Regular" font-size="80.0" fill="#000000" transform="matrix(0.43, 0.00, -0.00, -0.43, 266.0, 301.7)">o</text><text xml:space="preserve" font-family="Roboto-Regular" font-size="80.0" fill="#000000" transform="matrix(0.43, 0.00, -0.00, -0.43, 285.7, 301.7)">b</text><text xml:space="preserve" font-family="Roboto-Regular" font-size="80.0" fill="#000000" transform="matrix(0.43, 0.00, -0.00, -0.43, 305.3, 301.7)">·</text><text xml:space="preserve" font-family="Roboto-Regular" font-size="80.0" fill="#000000" transform="matrix(0.43, 0.00, -0.00, -0.43, 314.5, 301.7)">s</text><text xml:space="preserve" font-family="Roboto-Regular" font-size="80.0" fill="#000000" transform="matrix(0.43, 0.00, -0.00, -0.43, 332.6, 301.7)">e</text><text xml:space="preserve" font-family="Roboto-Regular" font-size="80.0" fill="#000000" transform="matrix(0.43, 0.00, -0.00, -0.43, 350.8, 301.7)">r</text><text xml:space="preserve" font-family="Roboto-Regular" font-size="80.0" fill="#000000" transform="matrix(0.43, 0.00, -0.00, -0.43, 363.0, 301.7)">v</text><text xml:space="preserve" font-family="Roboto-Regular" font-size="80.0" fill="#000000" transform="matrix(0.43, 0.00, -0.00, -0.43, 380.4, 301.7)">·</text><text xml:space="preserve" font-family="Roboto-Regular" font-size="80.0" fill="#000000" transform="matrix(0.43, 0.00, -0.00, -0.43, 389.5, 301.7)">e</text><text xml:space="preserve" font-family="Roboto-Regular" font-size="80.0" fill="#000000" transform="matrix(0.43, 0.00, -0.00, -0.43, 407.8, 301.7)">r</text><text xml:space="preserve" font-family="Roboto-Regular" font-size="80.0" fill="#000000" transform="matrix(0.43, 0.00, -0.00, -0.43, 416.8, 301.7)">:</text><text xml:space="preserve" font-family="Roboto-Regular" font-size="80.0" fill="#000000" transform="matrix(0.43, 0.00, -0.00, -0.43, 425.5, 301.7)"> </text><text xml:space="preserve" font-family="Roboto-Regular" font-size="47.0" fill="#858585" transform="matrix(0.43, 0.00, -0.00, -0.43, 266.0, 275.0)">n</text><text xml:space="preserve" font-family="Roboto-Regular" font-size="47.0" fill="#858585" transform="matrix(0.43, 0.00, -0.00, -0.43, 277.6, 275.0)">o</text><text xml:space="preserve" font-family="Roboto-Regular" font-size="47.0" fill="#858585" transform="matrix(0.43, 0.00, -0.00, -0.43, 289.2, 275.0)">u</text><text xml:space="preserve" font-family="Roboto-Regular" font-size="47.0" fill="#858585" transform="matrix(0.43, 0.00, -0.00, -0.43, 300.7, 275.0)">n</text><text xml:space="preserve" font-family="Roboto-Regular" font-size="47.0" fill="#858585" transform="matrix(0.43, 0.00, -0.00, -0.43, 312.3, 275.0)">:</text><text xml:space="preserve" font-family="Roboto-Regular" font-size="47.0" fill="#858585" transform="matrix(0.43, 0.00, -0.00, -0.43, 317.5, 275.0)"> </text><text xml:space="preserve" font-family="Roboto-Bold" font-weight="bold" font-size="47.0" fill="#858585" transform="matrix(0.43, 0.00, -0.00, -0.43, 322.5, 275.0)">o</text><text xml:space="preserve" font-family="Roboto-Bold" font-weight="bold" font-size="47.0" fill="#858585" transform="matrix(0.43, 0.00, -0.00, -0.43, 334.0, 275.0)">b</text><text xml:space="preserve" font-family="Roboto-Bold" font-weight="bold" font-size="47.0" fill="#858585" transform="matrix(0.43, 0.00, -0.00, -0.43, 345.5, 275.0)">s</text><text xml:space="preserve" font-family="Roboto-Bold" font-weight="bold" font-size="47.0" fill="#858585" transform="matrix(0.43, 0.00, -0.00, -0.43, 356.0, 275.0)">e</text><text xml:space="preserve" font-family="Roboto-Bold" font-weight="bold" font-size="47.0" fill="#858585" transform="matrix(0.43, 0.00, -0.00, -0.43, 366.8, 275.0)">r</text><text xml:space="preserve" font-family="Roboto-Bold" font-weight="bold" font-size="47.0" fill="#858585" transform="matrix(0.43, 0.00, -0.00, -0.43, 374.2, 275.0)">v</text><text xml:space="preserve" font-family="Roboto-Bold" font-weight="bold" font-size="47.0" fill="#858585" transform="matrix(0.43, 0.00, -0.00, -0.43, 384.5, 275.0)">e</text><text xml:space="preserve" font-family="Roboto-Bold" font-weight="bold" font-size="47.0" fill="#858585" transform="matrix(0.43, 0.00, -0.00, -0.43, 395.3, 275.0)">r</text><text xml:space="preserve" font-family="Roboto-Regular" font-size="47.0" fill="#858585" transform="matrix(0.43, 0.00, -0.00, -0.43, 402.4, 275.0)">;</text><text xml:space="preserve" font-family="Roboto-Regular" font-size="47.0" fill="#858585" transform="matrix(0.43, 0.00, -0.00, -0.43, 407.6, 275.0)"> </text><text xml:space="preserve" font-family="Roboto-Regular" font-size="47.0" fill="#858585" transform="matrix(0.43, 0.00, -0.00, -0.43, 412.7, 275.0)">p</text><text xml:space="preserve" font-family="Roboto-Regular" font-size="47.0" fill="#858585" transform="matrix(0.43, 0.00, -0.00, -0.43, 424.3, 275.0)">l</text><text xml:space="preserve" font-family="Roboto-Regular" font-size="47.0" fill="#858585" transform="matrix(0.43, 0.00, -0.00, -0.43, 429.5, 275.0)">u</text><text xml:space="preserve" font-family="Roboto-Regular" font-size="47.0" fill="#858585" transform="matrix(0.43, 0.00, -0.00, -0.43, 441.0, 275.0)">r</text><text xml:space="preserve" font-family="Roboto-Regular" font-size="47.0" fill="#858585" transform="matrix(0.43, 0.00, -0.00, -0.43, 448.0, 275.0)">a</text><text xml:space="preserve" font-family="Roboto-Regular" font-size="47.0" fill="#858585" transform="matrix(0.43, 0.00, -0.00, -0.43, 459.2, 275.0)">l</text><text xml:space="preserve" font-family="Roboto-Regular" font-size="47.0" fill="#858585" transform="matrix(0.43, 0.00, -0.00, -0.43, 464.4, 275.0)"> </text><text xml:space="preserve" font-family="Roboto-Regular" font-size="47.0" fill="#858585" transform="matrix(0.43, 0.00, -0.00, -0.43, 469.4, 275.0)">n</text><text xml:space="preserve" font-family="Roboto-Regular" font-size="47.0" fill="#858585" transform="matrix(0.43, 0.00, -0.00, -0.43, 481.0, 275.0)">o</text><text xml:space="preserve" font-family="Roboto-Regular" font-size="47.0" fill="#858585" transform="matrix(0.43, 0.00, -0.00, -0.43, 492.6, 275.0)">u</text><text xml:space="preserve" font-family="Roboto-Regular" font-size="47.0" fill="#858585" transform="matrix(0.43, 0.00, -0.00, -0.43, 504.2, 275.0)">n</text><text xml:space="preserve" font-family="Roboto-Regular" font-size="47.0" fill="#858585" transform="matrix(0.43, 0.00, -0.00, -0.43, 515.7, 275.0)">:</text><text xml:space="preserve" font-family="Roboto-Regular" font-size="47.0" fill="#858585" transform="matrix(0.43, 0.00, -0.00, -0.43, 520.9, 275.0)"> </text><text xml:space="preserve" font-family="Roboto-Regular" font-size="47.0" fill="#858585" transform="matrix(0.43, 0.00, -0.00, -0.43, 526.0, 275.0)">o</text><text xml:space="preserve" font-family="Roboto-Regular" font-size="47.0" fill="#858585" transform="matrix(0.43, 0.00, -0.00, -0.43, 537.6, 275.0)">b</text><text xml:space="preserve" font-family="Roboto-Regular" font-size="47.0" fill="#858585" transform="matrix(0.43, 0.00, -0.00, -0.43, 549.1, 275.0)">s</text><text xml:space="preserve" font-family="Roboto-Regular" font-size="47.0" fill="#858585" transform="matrix(0.43, 0.00, -0.00, -0.43, 559.8, 275.0)">e</text><text xml:space="preserve" font-family="Roboto-Regular" font-size="47.0" fill="#858585" transform="matrix(0.43, 0.00, -0.00, -0.43, 570.6, 275.0)">r</text><text xml:space="preserve" font-family="Roboto-Regular" font-size="47.0" fill="#858585" transform="matrix(0.43, 0.00, -0.00, -0.43, 577.7, 275.0)">v</text><text xml:space="preserve" font-family="Roboto-Regular" font-size="47.0" fill="#858585" transform="matrix(0.43, 0.00, -0.00, -0.43, 587.8, 275.0)">e</text><text xml:space="preserve" font-family="Roboto-Regular" font-size="47.0" fill="#858585" transform="matrix(0.43, 0.00, -0.00, -0.43, 598.6, 275.0)">r</text><text xml:space="preserve" font-family="Roboto-Regular" font-size="47.0" fill="#858585" transform="matrix(0.43, 0.00, -0.00, -0.43, 605.6, 275.0)">s</text><text xml:space="preserve" font-family="Roboto-Regular" font-size="47.0" fill="#000000" transform="matrix(0.43, 0.00, -0.00, -0.43, 266.0, 248.2)">-</text><text xml:space="preserve" font-family="Roboto-Regular" font-size="47.0" fill="#000000" transform="matrix(0.43, 0.00, -0.00, -0.43, 271.6, 248.2)"> </text><text xml:space="preserve" font-family="Roboto-Regular" font-size="47.0" fill="#000000" transform="matrix(0.43, 0.00, -0.00, -0.43, 276.7, 248.2)">a</text><text xml:space="preserve" font-family="Roboto-Regular" font-size="47.0" fill="#000000" transform="matrix(0.43, 0.00, -0.00, -0.43, 287.9, 248.2)"> </text><text xml:space="preserve" font-family="Roboto-Regular" font-size="47.0" fill="#000000" transform="matrix(0.43, 0.00, -0.00, -0.43, 293.0, 248.2)">p</text><text xml:space="preserve" font-family="Roboto-Regular" font-size="47.0" fill="#000000" transform="matrix(0.43, 0.00, -0.00, -0.43, 304.5, 248.2)">e</text><text xml:space="preserve" font-family="Roboto-Regular" font-size="47.0" fill="#000000" transform="matrix(0.43, 0.00, -0.00, -0.43, 315.3, 248.2)">r</text><text xml:space="preserve" font-family="Roboto-Regular" font-size="47.0" fill="#000000" transform="matrix(0.43, 0.00, -0.00, -0.43, 322.3, 248.2)">s</text><text xml:space="preserve" font-family="Roboto-Regular" font-size="47.0" fill="#000000" transform="matrix(0.43, 0.00, -0.00, -0.43, 332.9, 248.2)">o</text><text xml:space="preserve" font-family="Roboto-Regular" font-size="47.0" fill="#000000" transform="matrix(0.43, 0.00, -0.00, -0.43, 344.5, 248.2)">n</text><text xml:space="preserve" font-family="Roboto-Regular" font-size="47.0" fill="#000000" transform="matrix(0.43, 0.00, -0.00, -0.43, 356.1, 248.2)"> </text><text xml:space="preserve" font-family="Roboto-Regular" font-size="47.0" fill="#000000" transform="matrix(0.43, 0.00, -0.00, -0.43, 361.2, 248.2)">w</text><text xml:space="preserve" font-family="Roboto-Regular" font-size="47.0" fill="#000000" transform="matrix(0.43, 0.00, -0.00, -0.43, 376.6, 248.2)">h</text><text xml:space="preserve" font-family="Roboto-Regular" font-size="47.0" fill="#000000" transform="matrix(0.43, 0.00, -0.00, -0.43, 388.2, 248.2)">o</text><text xml:space="preserve" font-family="Roboto-Regular" font-size="47.0" fill="#000000" transform="matrix(0.43, 0.00, -0.00, -0.43, 399.8, 248.2)"> </text><text xml:space="preserve" font-family="Roboto-Regular" font-size="47.0" fill="#000000" transform="matrix(0.43, 0.00, -0.00, -0.43, 404.9, 248.2)">w</text><text xml:space="preserve" font-family="Roboto-Regular" font-size="47.0" fill="#000000" transform="matrix(0.43, 0.00, -0.00, -0.43, 420.2, 248.2)">a</text><text xml:space="preserve" font-family="Roboto-Regular" font-size="47.0" fill="#000000" transform="matrix(0.43, 0.00, -0.00, -0.43, 431.4, 248.2)">t</text><text xml:space="preserve" font-family="Roboto-Regular" font-size="47.0" fill="#000000" transform="matrix(0.43, 0.00, -0.00, -0.43, 438.5, 248.2)">c</text><text xml:space="preserve" font-family="Roboto-Regular" font-size="47.0" fill="#000000" transform="matrix(0.43, 0.00, -0.00, -0.43, 449.3, 248.2)">h</text><text xml:space="preserve" font-family="Roboto-Regular" font-size="47.0" fill="#000000" transform="matrix(0.43, 0.00, -0.00, -0.43, 460.9, 248.2)">e</text><text xml:space="preserve" font-family="Roboto-Regular" font-size="47.0" fill="#000000" transform="matrix(0.43, 0.00, -0.00, -0.43, 471.6, 248.2)">s</text><text xml:space="preserve" font-family="Roboto-Regular" font-size="47.0" fill="#000000" transform="matrix(0.43, 0.00, -0.00, -0.43, 482.3, 248.2)"> </text><text xml:space="preserve" font-family="Roboto-Regular" font-size="47.0" fill="#000000" transform="matrix(0.43, 0.00, -0.00, -0.43, 487.4, 248.2)">o</text><text xml:space="preserve" font-family="Roboto-Regular" font-size="47.0" fill="#000000" transform="matrix(0.43, 0.00, -0.00, -0.43, 499.0, 248.2)">r</text><text xml:space="preserve" font-family="Roboto-Regular" font-size="47.0" fill="#000000" transform="matrix(0.43, 0.00, -0.00, -0.43, 506.0, 248.2)"> </text><text xml:space="preserve" font-family="Roboto-Regular" font-size="47.0" fill="#000000" transform="matrix(0.43, 0.00, -0.00, -0.43, 511.0, 248.2)">n</text><text xml:space="preserve" font-family="Roboto-Regular" font-size="47.0" fill="#000000" transform="matrix(0.43, 0.00, -0.00, -0.43, 522.6, 248.2)">o</text><text xml:space="preserve" font-family="Roboto-Regular" font-size="47.0" fill="#000000" transform="matrix(0.43, 0.00, -0.00, -0.43, 534.2, 248.2)">t</text><text xml:space="preserve" font-family="Roboto-Regular" font-size="47.0" fill="#000000" transform="matrix(0.43, 0.00, -0.00, -0.43, 541.3, 248.2)">i</text><text xml:space="preserve" font-family="Roboto-Regular" font-size="47.0" fill="#000000" transform="matrix(0.43, 0.00, -0.00, -0.43, 546.4, 248.2)">c</text><text xml:space="preserve" font-family="Roboto-Regular" font-size="47.0" fill="#000000" transform="matrix(0.43, 0.00, -0.00, -0.43, 557.2, 248.2)">e</text><text xml:space="preserve" font-family="Roboto-Regular" font-size="47.0" fill="#000000" transform="matrix(0.43, 0.00, -0.00, -0.43, 568.0, 248.2)">s</text><text xml:space="preserve" font-family="Roboto-Regular" font-size="47.0" fill="#000000" transform="matrix(0.43, 0.00, -0.00, -0.43, 578.6, 248.2)"> </text><text xml:space="preserve" font-family="Roboto-Regular" font-size="47.0" fill="#000000" transform="matrix(0.43, 0.00, -0.00, -0.43, 583.7, 248.2)">s</text><text xml:space="preserve" font-family="Roboto-Regular" font-size="47.0" fill="#000000" transform="matrix(0.43, 0.00, -0.00, -0.43, 594.4, 248.2)">o</text><text xml:space="preserve" font-family="Roboto-Regular" font-size="47.0" fill="#000000" transform="matrix(0.43, 0.00, -0.00, -0.43, 606.0, 248.2)">m</text><text xml:space="preserve" font-family="Roboto-Regular" font-size="47.0" fill="#000000" transform="matrix(0.43, 0.00, -0.00, -0.43, 623.7, 248.2)">e</text><text xml:space="preserve" font-family="Roboto-Regular" font-size="47.0" fill="#000000" transform="matrix(0.43, 0.00, -0.00, -0.43, 634.5, 248.2)">t</text><text xml:space="preserve" font-family="Roboto-Regular" font-size="47.0" fill="#000000" transform="matrix(0.43, 0.00, -0.00, -0.43, 641.5, 248.2)">h</text><text xml:space="preserve" font-family="Roboto-Regular" font-size="47.0" fill="#000000" transform="matrix(0.43, 0.00, -0.00, -0.43, 653.1, 248.2)">i</text><text xml:space="preserve" font-family="Roboto-Regular" font-size="47.0" fill="#000000" transform="matrix(0.43, 0.00, -0.00, -0.43, 658.3, 248.2)">n</text><text xml:space="preserve" font-family="Roboto-Regular" font-size="47.0" fill="#000000" transform="matrix(0.43, 0.00, -0.00, -0.43, 669.9, 248.2)">g</text><text xml:space="preserve" font-family="Roboto-Regular" font-size="47.0" fill="#000000" transform="matrix(0.43, 0.00, -0.00, -0.43, 681.5, 248.2)">.</text><text xml:space="preserve" font-family="Roboto-Regular" font-size="47.0" fill="#000000" transform="matrix(0.43, 0.00, -0.00, -0.43, 266.0, 221.5)">-</text><text xml:space="preserve" font-family="Roboto-Regular" font-size="47.0" fill="#000000" transform="matrix(0.43, 0.00, -0.00, -0.43, 271.6, 221.5)"> </text><text xml:space="preserve" font-family="Roboto-Regular" font-size="47.0" fill="#000000" transform="matrix(0.43, 0.00, -0.00, -0.43, 276.7, 221.5)">a</text><text xml:space="preserve" font-family="Roboto-Regular" font-size="47.0" fill="#000000" transform="matrix(0.43, 0.00, -0.00, -0.43, 287.9, 221.5)"> </text><text xml:space="preserve" font-family="Roboto-Regular" font-size="47.0" fill="#000000" transform="matrix(0.43, 0.00, -0.00, -0.43, 293.0, 221.5)">p</text><text xml:space="preserve" font-family="Roboto-Regular" font-size="47.0" fill="#000000" transform="matrix(0.43, 0.00, -0.00, -0.43, 304.5, 221.5)">e</text><text xml:space="preserve" font-family="Roboto-Regular" font-size="47.0" fill="#000000" transform="matrix(0.43, 0.00, -0.00, -0.43, 315.3, 221.5)">r</text><text xml:space="preserve" font-family="Roboto-Regular" font-size="47.0" fill="#000000" transform="matrix(0.43, 0.00, -0.00, -0.43, 322.3, 221.5)">s</text><text xml:space="preserve" font-family="Roboto-Regular" font-size="47.0" fill="#000000" transform="matrix(0.43, 0.00, -0.00, -0.43, 332.9, 221.5)">o</text><text xml:space="preserve" font-family="Roboto-Regular" font-size="47.0" fill="#000000" transform="matrix(0.43, 0.00, -0.00, -0.43, 344.5, 221.5)">n</text><text xml:space="preserve" font-family="Roboto-Regular" font-size="47.0" fill="#000000" transform="matrix(0.43, 0.00, -0.00, -0.43, 356.1, 221.5)"> </text><text xml:space="preserve" font-family="Roboto-Regular" font-size="47.0" fill="#000000" transform="matrix(0.43, 0.00, -0.00, -0.43, 361.2, 221.5)">w</text><text xml:space="preserve" font-family="Roboto-Regular" font-size="47.0" fill="#000000" transform="matrix(0.43, 0.00, -0.00, -0.43, 376.6, 221.5)">h</text><text xml:space="preserve" font-family="Roboto-Regular" font-size="47.0" fill="#000000" transform="matrix(0.43, 0.00, -0.00, -0.43, 388.2, 221.5)">o</text><text xml:space="preserve" font-family="Roboto-Regular" font-size="47.0" fill="#000000" transform="matrix(0.43, 0.00, -0.00, -0.43, 399.8, 221.5)"> </text><text xml:space="preserve" font-family="Roboto-Regular" font-size="47.0" fill="#000000" transform="matrix(0.43, 0.00, -0.00, -0.43, 404.9, 221.5)">a</text><text xml:space="preserve" font-family="Roboto-Regular" font-size="47.0" fill="#000000" transform="matrix(0.43, 0.00, -0.00, -0.43, 416.0, 221.5)">t</text><text xml:space="preserve" font-family="Roboto-Regular" font-size="47.0" fill="#000000" transform="matrix(0.43, 0.00, -0.00, -0.43, 423.1, 221.5)">t</text><text xml:space="preserve" font-family="Roboto-Regular" font-size="47.0" fill="#000000" transform="matrix(0.43, 0.00, -0.00, -0.43, 430.2, 221.5)">e</text><text xml:space="preserve" font-family="Roboto-Regular" font-size="47.0" fill="#000000" transform="matrix(0.43, 0.00, -0.00, -0.43, 440.9, 221.5)">n</text><text xml:space="preserve" font-family="Roboto-Regular" font-size="47.0" fill="#000000" transform="matrix(0.43, 0.00, -0.00, -0.43, 452.5, 221.5)">d</text><text xml:space="preserve" font-family="Roboto-Regular" font-size="47.0" fill="#000000" transform="matrix(0.43, 0.00, -0.00, -0.43, 464.1, 221.5)">s</text><text xml:space="preserve" font-family="Roboto-Regular" font-size="47.0" fill="#000000" transform="matrix(0.43, 0.00, -0.00, -0.43, 474.7, 221.5)"> </text><text xml:space="preserve" font-family="Roboto-Regular" font-size="47.0" fill="#000000" transform="matrix(0.43, 0.00, -0.00, -0.43, 479.8, 221.5)">a</text><text xml:space="preserve" font-family="Roboto-Regular" font-size="47.0" fill="#000000" transform="matrix(0.43, 0.00, -0.00, -0.43, 491.0, 221.5)"> </text><text xml:space="preserve" font-family="Roboto-Regular" font-size="47.0" fill="#000000" transform="matrix(0.43, 0.00, -0.00, -0.43, 496.1, 221.5)">c</text><text xml:space="preserve" font-family="Roboto-Regular" font-size="47.0" fill="#000000" transform="matrix(0.43, 0.00, -0.00, -0.43, 506.9, 221.5)">o</text><text xml:space="preserve" font-family="Roboto-Regular" font-size="47.0" fill="#000000" transform="matrix(0.43, 0.00, -0.00, -0.43, 518.5, 221.5)">n</text><text xml:space="preserve" font-family="Roboto-Regular" font-size="47.0" fill="#000000" transform="matrix(0.43, 0.00, -0.00, -0.43, 530.1, 221.5)">f</text><text xml:space="preserve" font-family="Roboto-Regular" font-size="47.0" fill="#000000" transform="matrix(0.43, 0.00, -0.00, -0.43, 536.9, 221.5)">e</text><text xml:space="preserve" font-family="Roboto-Regular" font-size="47.0" fill="#000000" transform="matrix(0.43, 0.00, -0.00, -0.43, 547.7, 221.5)">r</text><text xml:space="preserve" font-family="Roboto-Regular" font-size="47.0" fill="#000000" transform="matrix(0.43, 0.00, -0.00, -0.43, 554.5, 221.5)">e</text><text xml:space="preserve" font-family="Roboto-Regular" font-size="47.0" fill="#000000" transform="matrix(0.43, 0.00, -0.00, -0.43, 565.2, 221.5)">n</text><text xml:space="preserve" font-family="Roboto-Regular" font-size="47.0" fill="#000000" transform="matrix(0.43, 0.00, -0.00, -0.43, 576.8, 221.5)">c</text><text xml:space="preserve" font-family="Roboto-Regular" font-size="47.0" fill="#000000" transform="matrix(0.43, 0.00, -0.00, -0.43, 587.6, 221.5)">e</text><text xml:space="preserve" font-family="Roboto-Regular" font-size="47.0" fill="#000000" transform="matrix(0.43, 0.00, -0.00, -0.43, 598.4, 221.5)">,</text><text xml:space="preserve" font-family="Roboto-Regular" font-size="47.0" fill="#000000" transform="matrix(0.43, 0.00, -0.00, -0.43, 602.4, 221.5)"> </text><text xml:space="preserve" font-family="Roboto-Regular" font-size="47.0" fill="#000000" transform="matrix(0.43, 0.00, -0.00, -0.43, 607.5, 221.5)">i</text><text xml:space="preserve" font-family="Roboto-Regular" font-size="47.0" fill="#000000" transform="matrix(0.43, 0.00, -0.00, -0.43, 612.7, 221.5)">n</text><text xml:space="preserve" font-family="Roboto-Regular" font-size="47.0" fill="#000000" transform="matrix(0.43, 0.00, -0.00, -0.43, 624.3, 221.5)">q</text><text xml:space="preserve" font-family="Roboto-Regular" font-size="47.0" fill="#000000" transform="matrix(0.43, 0.00, -0.00, -0.43, 635.9, 221.5)">u</text><text xml:space="preserve" font-family="Roboto-Regular" font-size="47.0" fill="#000000" transform="matrix(0.43, 0.00, -0.00, -0.43, 647.4, 221.5)">i</text><text xml:space="preserve" font-family="Roboto-Regular" font-size="47.0" fill="#000000" transform="matrix(0.43, 0.00, -0.00, -0.43, 652.6, 221.5)">r</text><text xml:space="preserve" font-family="Roboto-Regular" font-size="47.0" fill="#000000" transform="matrix(0.43, 0.00, -0.00, -0.43, 659.8, 221.5)">y</text><text xml:space="preserve" font-family="Roboto-Regular" font-size="47.0" fill="#000000" transform="matrix(0.43, 0.00, -0.00, -0.43, 668.4, 221.5)">,</text><text xml:space="preserve" font-family="Roboto-Regular" font-size="47.0" fill="#000000" transform="matrix(0.43, 0.00, -0.00, -0.43, 672.4, 221.5)"> </text><text xml:space="preserve" font-family="Roboto-Regular" font-size="47.0" fill="#000000" transform="matrix(0.43, 0.00, -0.00, -0.43, 677.5, 221.5)">e</text><text xml:space="preserve" font-family="Roboto-Regular" font-size="47.0" fill="#000000" transform="matrix(0.43, 0.00, -0.00, -0.43, 688.3, 221.5)">t</text><text xml:space="preserve" font-family="Roboto-Regular" font-size="47.0" fill="#000000" transform="matrix(0.43, 0.00, -0.00, -0.43, 695.3, 221.5)">c</text><text xml:space="preserve" font-family="Roboto-Regular" font-size="47.0" fill="#000000" transform="matrix(0.43, 0.00, -0.00, -0.43, 706.1, 221.5)">.</text><text xml:space="preserve" font-family="Roboto-Regular" font-size="47.0" fill="#000000" transform="matrix(0.43, 0.00, -0.00, -0.43, 711.6, 221.5)">,</text><text xml:space="preserve" font-family="Roboto-Regular" font-size="47.0" fill="#000000" transform="matrix(0.43, 0.00, -0.00, -0.43, 715.6, 221.5)"> </text><text xml:space="preserve" font-family="Roboto-Regular" font-size="47.0" fill="#000000" transform="matrix(0.43, 0.00, -0.00, -0.43, 720.7, 221.5)">t</text><text xml:space="preserve" font-family="Roboto-Regular" font-size="47.0" fill="#000000" transform="matrix(0.43, 0.00, -0.00, -0.43, 727.8, 221.5)">o</text><text xml:space="preserve" font-family="Roboto-Regular" font-size="47.0" fill="#000000" transform="matrix(0.43, 0.00, -0.00, -0.43, 739.4, 221.5)"> </text><text xml:space="preserve" font-family="Roboto-Regular" font-size="47.0" fill="#000000" transform="matrix(0.43, 0.00, -0.00, -0.43, 744.4, 221.5)">n</text><text xml:space="preserve" font-family="Roboto-Regular" font-size="47.0" fill="#000000" transform="matrix(0.43, 0.00, -0.00, -0.43, 756.0, 221.5)">o</text><text xml:space="preserve" font-family="Roboto-Regular" font-size="47.0" fill="#000000" transform="matrix(0.43, 0.00, -0.00, -0.43, 767.6, 221.5)">t</text><text xml:space="preserve" font-family="Roboto-Regular" font-size="47.0" fill="#000000" transform="matrix(0.43, 0.00, -0.00, -0.43, 774.7, 221.5)">e</text><text xml:space="preserve" font-family="Roboto-Regular" font-size="47.0" fill="#000000" transform="matrix(0.43, 0.00, -0.00, -0.43, 785.4, 221.5)"> </text><text xml:space="preserve" font-family="Roboto-Regular" font-size="47.0" fill="#000000" transform="matrix(0.43, 0.00, -0.00, -0.43, 790.5, 221.5)">t</text><text xml:space="preserve" font-family="Roboto-Regular" font-size="47.0" fill="#000000" transform="matrix(0.43, 0.00, -0.00, -0.43, 797.6, 221.5)">h</text><text xml:space="preserve" font-family="Roboto-Regular" font-size="47.0" fill="#000000" transform="matrix(0.43, 0.00, -0.00, -0.43, 809.2, 221.5)">e</text><text xml:space="preserve" font-family="Roboto-Regular" font-size="47.0" fill="#000000" transform="matrix(0.43, 0.00, -0.00, -0.43, 819.9, 221.5)"> </text><text xml:space="preserve" font-family="Roboto-Regular" font-size="47.0" fill="#000000" transform="matrix(0.43, 0.00, -0.00, -0.43, 266.0, 194.7)">p</text><text xml:space="preserve" font-family="Roboto-Regular" font-size="47.0" fill="#000000" transform="matrix(0.43, 0.00, -0.00, -0.43, 277.6, 194.7)">r</text><text xml:space="preserve" font-family="Roboto-Regular" font-size="47.0" fill="#000000" transform="matrix(0.43, 0.00, -0.00, -0.43, 284.4, 194.7)">o</text><text xml:space="preserve" font-family="Roboto-Regular" font-size="47.0" fill="#000000" transform="matrix(0.43, 0.00, -0.00, -0.43, 296.0, 194.7)">c</text><text xml:space="preserve" font-family="Roboto-Regular" font-size="47.0" fill="#000000" transform="matrix(0.43, 0.00, -0.00, -0.43, 306.8, 194.7)">e</text><text xml:space="preserve" font-family="Roboto-Regular" font-size="47.0" fill="#000000" transform="matrix(0.43, 0.00, -0.00, -0.43, 317.5, 194.7)">e</text><text xml:space="preserve" font-family="Roboto-Regular" font-size="47.0" fill="#000000" transform="matrix(0.43, 0.00, -0.00, -0.43, 328.3, 194.7)">d</text><text xml:space="preserve" font-family="Roboto-Regular" font-size="47.0" fill="#000000" transform="matrix(0.43, 0.00, -0.00, -0.43, 339.8, 194.7)">i</text><text xml:space="preserve" font-family="Roboto-Regular" font-size="47.0" fill="#000000" transform="matrix(0.43, 0.00, -0.00, -0.43, 345.0, 194.7)">n</text><text xml:space="preserve" font-family="Roboto-Regular" font-size="47.0" fill="#000000" transform="matrix(0.43, 0.00, -0.00, -0.43, 356.6, 194.7)">g</text><text xml:space="preserve" font-family="Roboto-Regular" font-size="47.0" fill="#000000" transform="matrix(0.43, 0.00, -0.00, -0.43, 368.2, 194.7)">s</text><text xml:space="preserve" font-family="Roboto-Regular" font-size="47.0" fill="#000000" transform="matrix(0.43, 0.00, -0.00, -0.43, 378.8, 194.7)"> </text><text xml:space="preserve" font-family="Roboto-Regular" font-size="47.0" fill="#000000" transform="matrix(0.43, 0.00, -0.00, -0.43, 383.9, 194.7)">w</text><text xml:space="preserve" font-family="Roboto-Regular" font-size="47.0" fill="#000000" transform="matrix(0.43, 0.00, -0.00, -0.43, 399.3, 194.7)">i</text><text xml:space="preserve" font-family="Roboto-Regular" font-size="47.0" fill="#000000" transform="matrix(0.43, 0.00, -0.00, -0.43, 404.4, 194.7)">t</text><text xml:space="preserve" font-family="Roboto-Regular" font-size="47.0" fill="#000000" transform="matrix(0.43, 0.00, -0.00, -0.43, 411.5, 194.7)">h</text><text xml:space="preserve" font-family="Roboto-Regular" font-size="47.0" fill="#000000" transform="matrix(0.43, 0.00, -0.00, -0.43, 423.0, 194.7)">o</text><text xml:space="preserve" font-family="Roboto-Regular" font-size="47.0" fill="#000000" transform="matrix(0.43, 0.00, -0.00, -0.43, 434.6, 194.7)">u</text><text xml:space="preserve" font-family="Roboto-Regular" font-size="47.0" fill="#000000" transform="matrix(0.43, 0.00, -0.00, -0.43, 446.2, 194.7)">t</text><text xml:space="preserve" font-family="Roboto-Regular" font-size="47.0" fill="#000000" transform="matrix(0.43, 0.00, -0.00, -0.43, 453.2, 194.7)"> </text><text xml:space="preserve" font-family="Roboto-Regular" font-size="47.0" fill="#000000" transform="matrix(0.43, 0.00, -0.00, -0.43, 458.3, 194.7)">p</text><text xml:space="preserve" font-family="Roboto-Regular" font-size="47.0" fill="#000000" transform="matrix(0.43, 0.00, -0.00, -0.43, 469.9, 194.7)">a</text><text xml:space="preserve" font-family="Roboto-Regular" font-size="47.0" fill="#000000" transform="matrix(0.43, 0.00, -0.00, -0.43, 481.1, 194.7)">r</text><text xml:space="preserve" font-family="Roboto-Regular" font-size="47.0" fill="#000000" transform="matrix(0.43, 0.00, -0.00, -0.43, 488.2, 194.7)">t</text><text xml:space="preserve" font-family="Roboto-Regular" font-size="47.0" fill="#000000" transform="matrix(0.43, 0.00, -0.00, -0.43, 495.3, 194.7)">i</text><text xml:space="preserve" font-family="Roboto-Regular" font-size="47.0" fill="#000000" transform="matrix(0.43, 0.00, -0.00, -0.43, 500.5, 194.7)">c</text><text xml:space="preserve" font-family="Roboto-Regular" font-size="47.0" fill="#000000" transform="matrix(0.43, 0.00, -0.00, -0.43, 511.2, 194.7)">i</text><text xml:space="preserve" font-family="Roboto-Regular" font-size="47.0" fill="#000000" transform="matrix(0.43, 0.00, -0.00, -0.43, 516.4, 194.7)">p</text><text xml:space="preserve" font-family="Roboto-Regular" font-size="47.0" fill="#000000" transform="matrix(0.43, 0.00, -0.00, -0.43, 528.0, 194.7)">a</text><text xml:space="preserve" font-family="Roboto-Regular" font-size="47.0" fill="#000000" transform="matrix(0.43, 0.00, -0.00, -0.43, 539.2, 194.7)">t</text><text xml:space="preserve" font-family="Roboto-Regular" font-size="47.0" fill="#000000" transform="matrix(0.43, 0.00, -0.00, -0.43, 546.2, 194.7)">i</text><text xml:space="preserve" font-family="Roboto-Regular" font-size="47.0" fill="#000000" transform="matrix(0.43, 0.00, -0.00, -0.43, 551.4, 194.7)">n</text><text xml:space="preserve" font-family="Roboto-Regular" font-size="47.0" fill="#000000" transform="matrix(0.43, 0.00, -0.00, -0.43, 563.0, 194.7)">g</text><text xml:space="preserve" font-family="Roboto-Regular" font-size="47.0" fill="#000000" transform="matrix(0.43, 0.00, -0.00, -0.43, 574.5, 194.7)"> </text><text xml:space="preserve" font-family="Roboto-Regular" font-size="47.0" fill="#000000" transform="matrix(0.43, 0.00, -0.00, -0.43, 579.6, 194.7)">i</text><text xml:space="preserve" font-family="Roboto-Regular" font-size="47.0" fill="#000000" transform="matrix(0.43, 0.00, -0.00, -0.43, 584.8, 194.7)">n</text><text xml:space="preserve" font-family="Roboto-Regular" font-size="47.0" fill="#000000" transform="matrix(0.43, 0.00, -0.00, -0.43, 596.3, 194.7)"> </text><text xml:space="preserve" font-family="Roboto-Regular" font-size="47.0" fill="#000000" transform="matrix(0.43, 0.00, -0.00, -0.43, 601.4, 194.7)">t</text><text xml:space="preserve" font-family="Roboto-Regular" font-size="47.0" fill="#000000" transform="matrix(0.43, 0.00, -0.00, -0.43, 608.5, 194.7)">h</text><text xml:space="preserve" font-family="Roboto-Regular" font-size="47.0" fill="#000000" transform="matrix(0.43, 0.00, -0.00, -0.43, 620.0, 194.7)">e</text><text xml:space="preserve" font-family="Roboto-Regular" font-size="47.0" fill="#000000" transform="matrix(0.43, 0.00, -0.00, -0.43, 630.8, 194.7)">m</text><text xml:space="preserve" font-family="Roboto-Regular" font-size="47.0" fill="#000000" transform="matrix(0.43, 0.00, -0.00, -0.43, 648.6, 194.7)">.</text></g></g></g></svg>