<?xml version="1.0" encoding="UTF-8" standalone="no"?><svg xmlns="http://www.w3.org/2000/svg" xmlns:xlink="http://www.w3.org/1999/xlink" clip-rule="evenodd" stroke-miterlimit="4.00" viewBox="0 0 1024 768"><desc>SVG generated by Keynote</desc><defs></defs><g transform="matrix(1.00, 0.00, -0.00, -1.00, 0.0, 768.0)"><path d="M 0.0 768.0 L 1024.0 768.0 L 1024.0 0.0 L 0.0 0.0 Z M 0.0 768.0 " fill="#FEFFFF"></path><image xlink:href="../../615F7CD4-E262-41F7-8138-806EC6AB1FAB/assets/160DC7B11EBBE6079C1E79740E8C03B9.png" width="134.00" height="45.00" transform="matrix(1.00, 0.00, -0.00, -1.00, 867.0, 64.0)"></image><g><clipPath id="clip-0"><path d="M 41.0 221.0 L 225.0 221.0 L 225.0 547.0 L 41.0 547.0 Z M 41.0 221.0 "></path></clipPath><g clip-path="url(#clip-0)"><image xlink:href="785A2B8556ABB0DE1F275D597E02CECD.png" width="1242.00" height="2208.00" transform="matrix(0.15, 0.00, -0.00, -0.15, 41.0, 547.0)"></image></g></g><g><clipPath id="clip-1"><path d="M 41.8 386.1 L 223.3 386.1 L 223.3 317.0 L 41.8 317.0 L 41.8 386.1 Z M 41.8 386.1 "></path></clipPath><g clip-path="url(#clip-1)"><g><clipPath id="clip-2"><path d="M 41.0 221.0 L 225.0 221.0 L 225.0 547.0 L 41.0 547.0 Z M 41.0 221.0 "></path></clipPath><g clip-path="url(#clip-2)"><path d="M 0.0 0.0 L 660.0 0.0 L 660.0 252.0 L 0.0 252.0 L 0.0 0.0 Z M 0.0 0.0 " fill="none" stroke="#FF204A" stroke-width="12.00" stroke-miterlimit="0.00" transform="matrix(0.28, 0.00, 0.00, -0.27, 41.8, 386.1)"></path></g></g></g></g><g><clipPath id="clip-3"><path d="M 261.0 221.0 L 445.0 221.0 L 445.0 547.0 L 261.0 547.0 Z M 261.0 221.0 "></path></clipPath><g clip-path="url(#clip-3)"><image xlink:href="5ED88C5D3017E1EF05454538DC61FCC5.png" width="1242.00" height="2208.00" transform="matrix(0.15, 0.00, -0.00, -0.15, 261.0, 547.0)"></image></g></g><g><clipPath id="clip-4"><path d="M 261.0 330.0 L 441.4 330.0 L 441.4 285.9 L 261.0 285.9 L 261.0 330.0 Z M 261.0 330.0 "></path></clipPath><g clip-path="url(#clip-4)"><g><clipPath id="clip-5"><path d="M 261.0 221.0 L 445.0 221.0 L 445.0 547.0 L 261.0 547.0 Z M 261.0 221.0 "></path></clipPath><g clip-path="url(#clip-5)"><path d="M 0.0 0.0 L 660.0 0.0 L 660.0 162.0 L 0.0 162.0 L 0.0 0.0 Z M 0.0 0.0 " fill="none" stroke="#FF204A" stroke-width="12.00" stroke-miterlimit="0.00" transform="matrix(0.27, 0.00, 0.00, -0.27, 261.0, 330.0)"></path></g></g></g></g><g><clipPath id="clip-6"><path d="M 261.0 330.0 L 441.4 330.0 L 441.4 285.9 L 261.0 285.9 L 261.0 330.0 Z M 261.0 330.0 "></path></clipPath><g clip-path="url(#clip-6)"><g><clipPath id="clip-7"><path d="M 261.0 221.0 L 445.0 221.0 L 445.0 547.0 L 261.0 547.0 Z M 261.0 221.0 "></path></clipPath><g clip-path="url(#clip-7)"><path d="M 0.0 0.0 L 660.0 0.0 L 660.0 162.0 L 0.0 162.0 L 0.0 0.0 Z M 0.0 0.0 " fill="none" stroke="#FF204A" stroke-width="12.00" stroke-miterlimit="0.00" transform="matrix(0.27, 0.00, 0.00, -0.27, 261.0, 330.0)"></path></g></g></g></g><g><clipPath id="clip-8"><path d="M 481.0 216.0 L 670.0 216.0 L 670.0 552.0 L 481.0 552.0 Z M 481.0 216.0 "></path></clipPath><g clip-path="url(#clip-8)"><image xlink:href="2BD3E1ACACDF716FB034CCD8352D3447.png" width="1242.00" height="2208.00" transform="matrix(0.15, 0.00, -0.00, -0.15, 481.0, 552.0)"></image></g></g><g><clipPath id="clip-9"><path d="M 484.7 340.6 L 670.0 340.6 L 670.0 283.1 L 484.7 283.1 L 484.7 340.6 Z M 484.7 340.6 "></path></clipPath><g clip-path="url(#clip-9)"><g><clipPath id="clip-10"><path d="M 481.0 216.0 L 670.0 216.0 L 670.0 552.0 L 481.0 552.0 Z M 481.0 216.0 "></path></clipPath><g clip-path="url(#clip-10)"><path d="M 0.0 0.0 L 660.0 0.0 L 660.0 205.0 L 0.0 205.0 L 0.0 0.0 Z M 0.0 0.0 " fill="none" stroke="#FF204A" stroke-width="12.00" stroke-miterlimit="0.00" transform="matrix(0.28, 0.00, 0.00, -0.28, 484.7, 340.6)"></path></g></g></g></g><g><clipPath id="clip-11"><path d="M 707.0 544.0 L 971.0 544.0 L 971.0 224.0 L 707.0 224.0 Z M 706.7 544.0 "></path></clipPath><g clip-path="url(#clip-11)"><g><clipPath id="clip-12"><path d="M 569.0 224.0 L 1078.0 224.0 L 1078.0 605.0 L 569.0 605.0 Z M 569.0 224.0 "></path></clipPath><g clip-path="url(#clip-12)"><image xlink:href="065804302E71BA263269EC894FBD16DD.png" width="2048.00" height="1536.00" transform="matrix(0.25, 0.00, -0.00, -0.25, 569.0, 605.0)"></image></g></g></g></g><g><clipPath id="clip-13"><path d="M 707.0 544.0 L 971.0 544.0 L 971.0 224.0 L 707.0 224.0 Z M 706.7 544.0 "></path></clipPath><g clip-path="url(#clip-13)"><g><clipPath id="clip-14"><path d="M 755.2 285.6 L 965.3 285.6 L 965.3 249.1 L 755.2 249.1 L 755.2 285.6 Z M 755.2 285.6 "></path></clipPath><g clip-path="url(#clip-14)"><g><clipPath id="clip-15"><path d="M 569.0 224.0 L 1078.0 224.0 L 1078.0 605.0 L 569.0 605.0 Z M 569.0 224.0 "></path></clipPath><g clip-path="url(#clip-15)"><path d="M 753.6 247.5 L 966.9 247.5 L 966.9 287.2 L 753.6 287.2 Z M 753.6 247.5 " fill="#FF214A" fill-opacity="0.29"></path></g></g></g></g></g></g><g><clipPath id="clip-16"><path d="M 707.0 544.0 L 971.0 544.0 L 971.0 224.0 L 707.0 224.0 Z M 706.7 544.0 "></path></clipPath><g clip-path="url(#clip-16)"><g><clipPath id="clip-17"><path d="M 922.3 300.6 L 965.3 300.6 L 965.3 285.6 L 922.3 285.6 L 922.3 300.6 Z M 922.3 300.6 "></path></clipPath><g clip-path="url(#clip-17)"><g><clipPath id="clip-18"><path d="M 569.0 224.0 L 1078.0 224.0 L 1078.0 605.0 L 569.0 605.0 Z M 569.0 224.0 "></path></clipPath><g clip-path="url(#clip-18)"><path d="M 920.7 284.1 L 966.9 284.1 L 966.9 302.2 L 920.7 302.2 Z M 920.7 284.1 " fill="#FF214A" fill-opacity="0.29"></path></g></g></g></g></g></g><text xml:space="preserve" font-family="Helvetica" font-size="18.0" fill="#A6AAA8" transform="matrix(1.00, 0.00, -0.00, -1.00, 445.0, 163.0)">P</text><text xml:space="preserve" font-family="Helvetica" font-size="18.0" fill="#A6AAA8" transform="matrix(1.00, 0.00, -0.00, -1.00, 457.0, 163.0)">r</text><text xml:space="preserve" font-family="Helvetica" font-size="18.0" fill="#A6AAA8" transform="matrix(1.00, 0.00, -0.00, -1.00, 463.0, 163.0)">o</text><text xml:space="preserve" font-family="Helvetica" font-size="18.0" fill="#A6AAA8" transform="matrix(1.00, 0.00, -0.00, -1.00, 473.0, 163.0)">b</text><text xml:space="preserve" font-family="Helvetica" font-size="18.0" fill="#A6AAA8" transform="matrix(1.00, 0.00, -0.00, -1.00, 483.0, 163.0)">l</text><text xml:space="preserve" font-family="Helvetica" font-size="18.0" fill="#A6AAA8" transform="matrix(1.00, 0.00, -0.00, -1.00, 487.0, 163.0)">e</text><text xml:space="preserve" font-family="Helvetica" font-size="18.0" fill="#A6AAA8" transform="matrix(1.00, 0.00, -0.00, -1.00, 497.0, 163.0)">m</text><text xml:space="preserve" font-family="Helvetica" font-size="18.0" fill="#A6AAA8" transform="matrix(1.00, 0.00, -0.00, -1.00, 512.0, 163.0)"> </text><text xml:space="preserve" font-family="Helvetica" font-size="18.0" fill="#A6AAA8" transform="matrix(1.00, 0.00, -0.00, -1.00, 517.0, 163.0)">I</text><text xml:space="preserve" font-family="Helvetica" font-size="18.0" fill="#A6AAA8" transform="matrix(1.00, 0.00, -0.00, -1.00, 522.0, 163.0)">n</text><text xml:space="preserve" font-family="Helvetica" font-size="18.0" fill="#A6AAA8" transform="matrix(1.00, 0.00, -0.00, -1.00, 532.0, 163.0)">s</text><text xml:space="preserve" font-family="Helvetica" font-size="18.0" fill="#A6AAA8" transform="matrix(1.00, 0.00, -0.00, -1.00, 541.0, 163.0)">i</text><text xml:space="preserve" font-family="Helvetica" font-size="18.0" fill="#A6AAA8" transform="matrix(1.00, 0.00, -0.00, -1.00, 545.1, 163.0)">g</text><text xml:space="preserve" font-family="Helvetica" font-size="18.0" fill="#A6AAA8" transform="matrix(1.00, 0.00, -0.00, -1.00, 555.1, 163.0)">h</text><text xml:space="preserve" font-family="Helvetica" font-size="18.0" fill="#A6AAA8" transform="matrix(1.00, 0.00, -0.00, -1.00, 565.1, 163.0)">t</text><text xml:space="preserve" font-family="Helvetica" font-size="18.0" fill="#A6AAA8" transform="matrix(1.00, 0.00, -0.00, -1.00, 570.1, 163.0)">s</text><text xml:space="preserve" font-family="Roboto-Bold" font-weight="bold" font-size="40.0" fill="#4185F4" transform="matrix(1.00, 0.00, -0.00, -1.00, 436.0, 683.0)">P</text><text xml:space="preserve" font-family="Roboto-Bold" font-weight="bold" font-size="40.0" fill="#4185F4" transform="matrix(1.00, 0.00, -0.00, -1.00, 462.1, 683.0)">r</text><text xml:space="preserve" font-family="Roboto-Bold" font-weight="bold" font-size="40.0" fill="#4185F4" transform="matrix(1.00, 0.00, -0.00, -1.00, 476.1, 683.0)">o</text><text xml:space="preserve" font-family="Roboto-Bold" font-weight="bold" font-size="40.0" fill="#4185F4" transform="matrix(1.00, 0.00, -0.00, -1.00, 498.7, 683.0)">b</text><text xml:space="preserve" font-family="Roboto-Bold" font-weight="bold" font-size="40.0" fill="#4185F4" transform="matrix(1.00, 0.00, -0.00, -1.00, 521.3, 683.0)">l</text><text xml:space="preserve" font-family="Roboto-Bold" font-weight="bold" font-size="40.0" fill="#4185F4" transform="matrix(1.00, 0.00, -0.00, -1.00, 532.0, 683.0)">e</text><text xml:space="preserve" font-family="Roboto-Bold" font-weight="bold" font-size="40.0" fill="#4185F4" transform="matrix(1.00, 0.00, -0.00, -1.00, 553.2, 683.0)">m</text></g></svg>