<?xml version="1.0" encoding="UTF-8" standalone="no"?><svg xmlns="http://www.w3.org/2000/svg" xmlns:xlink="http://www.w3.org/1999/xlink" clip-rule="evenodd" stroke-miterlimit="4.00" viewBox="0 0 1024 768"><desc>SVG generated by Keynote</desc><defs></defs><g transform="matrix(1.00, 0.00, -0.00, -1.00, 0.0, 768.0)"><path d="M 0.0 768.0 L 1024.0 768.0 L 1024.0 0.0 L 0.0 0.0 Z M 0.0 768.0 " fill="#FEFFFF"></path><image xlink:href="../../615F7CD4-E262-41F7-8138-806EC6AB1FAB/assets/160DC7B11EBBE6079C1E79740E8C03B9.png" width="134.00" height="45.00" transform="matrix(1.00, 0.00, -0.00, -1.00, 867.0, 64.0)"></image><text xml:space="preserve" font-family="Roboto-Bold" font-weight="bold" font-size="40.0" fill="#4185F4" transform="matrix(1.00, 0.00, -0.00, -1.00, 332.0, 681.0)">T</text><text xml:space="preserve" font-family="Roboto-Bold" font-weight="bold" font-size="40.0" fill="#4185F4" transform="matrix(1.00, 0.00, -0.00, -1.00, 354.8, 681.0)">h</text><text xml:space="preserve" font-family="Roboto-Bold" font-weight="bold" font-size="40.0" fill="#4185F4" transform="matrix(1.00, 0.00, -0.00, -1.00, 377.4, 681.0)">a</text><text xml:space="preserve" font-family="Roboto-Bold" font-weight="bold" font-size="40.0" fill="#4185F4" transform="matrix(1.00, 0.00, -0.00, -1.00, 398.9, 681.0)">n</text><text xml:space="preserve" font-family="Roboto-Bold" font-weight="bold" font-size="40.0" fill="#4185F4" transform="matrix(1.00, 0.00, -0.00, -1.00, 421.5, 681.0)">k</text><text xml:space="preserve" font-family="Roboto-Bold" font-weight="bold" font-size="40.0" fill="#4185F4" transform="matrix(1.00, 0.00, -0.00, -1.00, 442.9, 681.0)">s</text><text xml:space="preserve" font-family="Roboto-Bold" font-weight="bold" font-size="40.0" fill="#4185F4" transform="matrix(1.00, 0.00, -0.00, -1.00, 463.5, 681.0)"> </text><text xml:space="preserve" font-family="Roboto-Bold" font-weight="bold" font-size="40.0" fill="#4185F4" transform="matrix(1.00, 0.00, -0.00, -1.00, 473.5, 681.0)">f</text><text xml:space="preserve" font-family="Roboto-Bold" font-weight="bold" font-size="40.0" fill="#4185F4" transform="matrix(1.00, 0.00, -0.00, -1.00, 487.8, 681.0)">o</text><text xml:space="preserve" font-family="Roboto-Bold" font-weight="bold" font-size="40.0" fill="#4185F4" transform="matrix(1.00, 0.00, -0.00, -1.00, 510.4, 681.0)">r</text><text xml:space="preserve" font-family="Roboto-Bold" font-weight="bold" font-size="40.0" fill="#4185F4" transform="matrix(1.00, 0.00, -0.00, -1.00, 524.4, 681.0)"> </text><text xml:space="preserve" font-family="Roboto-Bold" font-weight="bold" font-size="40.0" fill="#4185F4" transform="matrix(1.00, 0.00, -0.00, -1.00, 534.4, 681.0)">R</text><text xml:space="preserve" font-family="Roboto-Bold" font-weight="bold" font-size="40.0" fill="#4185F4" transform="matrix(1.00, 0.00, -0.00, -1.00, 560.8, 681.0)">e</text><text xml:space="preserve" font-family="Roboto-Bold" font-weight="bold" font-size="40.0" fill="#4185F4" transform="matrix(1.00, 0.00, -0.00, -1.00, 582.0, 681.0)">a</text><text xml:space="preserve" font-family="Roboto-Bold" font-weight="bold" font-size="40.0" fill="#4185F4" transform="matrix(1.00, 0.00, -0.00, -1.00, 603.5, 681.0)">d</text><text xml:space="preserve" font-family="Roboto-Bold" font-weight="bold" font-size="40.0" fill="#4185F4" transform="matrix(1.00, 0.00, -0.00, -1.00, 626.1, 681.0)">i</text><text xml:space="preserve" font-family="Roboto-Bold" font-weight="bold" font-size="40.0" fill="#4185F4" transform="matrix(1.00, 0.00, -0.00, -1.00, 636.8, 681.0)">n</text><text xml:space="preserve" font-family="Roboto-Bold" font-weight="bold" font-size="40.0" fill="#4185F4" transform="matrix(1.00, 0.00, -0.00, -1.00, 659.4, 681.0)">g</text><text xml:space="preserve" font-family="Roboto-Bold" font-weight="bold" font-size="40.0" fill="#4185F4" transform="matrix(1.00, 0.00, -0.00, -1.00, 682.0, 681.0)">!</text><text xml:space="preserve" font-family="Roboto-Light" font-size="30.0" fill="#52575F" transform="matrix(1.00, 0.00, -0.00, -1.00, 119.0, 490.0)">T</text><text xml:space="preserve" font-family="Roboto-Light" font-size="30.0" fill="#52575F" transform="matrix(1.00, 0.00, -0.00, -1.00, 136.8, 490.0)">h</text><text xml:space="preserve" font-family="Roboto-Light" font-size="30.0" fill="#52575F" transform="matrix(1.00, 0.00, -0.00, -1.00, 153.5, 490.0)">a</text><text xml:space="preserve" font-family="Roboto-Light" font-size="30.0" fill="#52575F" transform="matrix(1.00, 0.00, -0.00, -1.00, 169.6, 490.0)">t</text><text xml:space="preserve" font-family="Roboto-Light" font-size="30.0" fill="#52575F" transform="matrix(1.00, 0.00, -0.00, -1.00, 179.5, 490.0)">’</text><text xml:space="preserve" font-family="Roboto-Light" font-size="30.0" fill="#52575F" transform="matrix(1.00, 0.00, -0.00, -1.00, 183.7, 490.0)">s</text><text xml:space="preserve" font-family="Roboto-Light" font-size="30.0" fill="#52575F" transform="matrix(1.00, 0.00, -0.00, -1.00, 199.0, 490.0)"> </text><text xml:space="preserve" font-family="Roboto-Light" font-size="30.0" fill="#52575F" transform="matrix(1.00, 0.00, -0.00, -1.00, 206.3, 490.0)">a</text><text xml:space="preserve" font-family="Roboto-Light" font-size="30.0" fill="#52575F" transform="matrix(1.00, 0.00, -0.00, -1.00, 222.4, 490.0)">l</text><text xml:space="preserve" font-family="Roboto-Light" font-size="30.0" fill="#52575F" transform="matrix(1.00, 0.00, -0.00, -1.00, 229.2, 490.0)">l</text><text xml:space="preserve" font-family="Roboto-Light" font-size="30.0" fill="#52575F" transform="matrix(1.00, 0.00, -0.00, -1.00, 236.0, 490.0)">!</text><text xml:space="preserve" font-family="Roboto-Light" font-size="30.0" fill="#52575F" transform="matrix(1.00, 0.00, -0.00, -1.00, 242.8, 490.0)"> </text><text xml:space="preserve" font-family="Roboto-Light" font-size="30.0" fill="#52575F" transform="matrix(1.00, 0.00, -0.00, -1.00, 250.1, 490.0)"> </text><text xml:space="preserve" font-family="Roboto-Light" font-size="30.0" fill="#52575F" transform="matrix(1.00, 0.00, -0.00, -1.00, 119.0, 451.0)">A</text><text xml:space="preserve" font-family="Roboto-Light" font-size="30.0" fill="#52575F" transform="matrix(1.00, 0.00, -0.00, -1.00, 137.7, 451.0)">s</text><text xml:space="preserve" font-family="Roboto-Light" font-size="30.0" fill="#52575F" transform="matrix(1.00, 0.00, -0.00, -1.00, 153.0, 451.0)"> </text><text xml:space="preserve" font-family="Roboto-Light" font-size="30.0" fill="#52575F" transform="matrix(1.00, 0.00, -0.00, -1.00, 164.2, 451.0)">y</text><text xml:space="preserve" font-family="Roboto-Light" font-size="30.0" fill="#52575F" transform="matrix(1.00, 0.00, -0.00, -1.00, 178.7, 451.0)">o</text><text xml:space="preserve" font-family="Roboto-Light" font-size="30.0" fill="#52575F" transform="matrix(1.00, 0.00, -0.00, -1.00, 195.4, 451.0)">u</text><text xml:space="preserve" font-family="Roboto-Light" font-size="30.0" fill="#52575F" transform="matrix(1.00, 0.00, -0.00, -1.00, 212.1, 451.0)"> </text><text xml:space="preserve" font-family="Roboto-Light" font-size="30.0" fill="#52575F" transform="matrix(1.00, 0.00, -0.00, -1.00, 223.3, 451.0)">c</text><text xml:space="preserve" font-family="Roboto-Light" font-size="30.0" fill="#52575F" transform="matrix(1.00, 0.00, -0.00, -1.00, 238.9, 451.0)">o</text><text xml:space="preserve" font-family="Roboto-Light" font-size="30.0" fill="#52575F" transform="matrix(1.00, 0.00, -0.00, -1.00, 255.6, 451.0)">u</text><text xml:space="preserve" font-family="Roboto-Light" font-size="30.0" fill="#52575F" transform="matrix(1.00, 0.00, -0.00, -1.00, 272.2, 451.0)">l</text><text xml:space="preserve" font-family="Roboto-Light" font-size="30.0" fill="#52575F" transform="matrix(1.00, 0.00, -0.00, -1.00, 279.1, 451.0)">d</text><text xml:space="preserve" font-family="Roboto-Light" font-size="30.0" fill="#52575F" transform="matrix(1.00, 0.00, -0.00, -1.00, 295.7, 451.0)"> </text><text xml:space="preserve" font-family="Roboto-Light" font-size="30.0" fill="#52575F" transform="matrix(1.00, 0.00, -0.00, -1.00, 307.0, 451.0)">t</text><text xml:space="preserve" font-family="Roboto-Light" font-size="30.0" fill="#52575F" transform="matrix(1.00, 0.00, -0.00, -1.00, 316.9, 451.0)">e</text><text xml:space="preserve" font-family="Roboto-Light" font-size="30.0" fill="#52575F" transform="matrix(1.00, 0.00, -0.00, -1.00, 332.4, 451.0)">l</text><text xml:space="preserve" font-family="Roboto-Light" font-size="30.0" fill="#52575F" transform="matrix(1.00, 0.00, -0.00, -1.00, 339.2, 451.0)">l</text><text xml:space="preserve" font-family="Roboto-Light" font-size="30.0" fill="#52575F" transform="matrix(1.00, 0.00, -0.00, -1.00, 346.0, 451.0)"> </text><text xml:space="preserve" font-family="Roboto-Light" font-size="30.0" fill="#52575F" transform="matrix(1.00, 0.00, -0.00, -1.00, 357.3, 451.0)">t</text><text xml:space="preserve" font-family="Roboto-Light" font-size="30.0" fill="#52575F" transform="matrix(1.00, 0.00, -0.00, -1.00, 367.2, 451.0)">h</text><text xml:space="preserve" font-family="Roboto-Light" font-size="30.0" fill="#52575F" transform="matrix(1.00, 0.00, -0.00, -1.00, 383.9, 451.0)">i</text><text xml:space="preserve" font-family="Roboto-Light" font-size="30.0" fill="#52575F" transform="matrix(1.00, 0.00, -0.00, -1.00, 390.7, 451.0)">s</text><text xml:space="preserve" font-family="Roboto-Light" font-size="30.0" fill="#52575F" transform="matrix(1.00, 0.00, -0.00, -1.00, 406.0, 451.0)"> </text><text xml:space="preserve" font-family="Roboto-Light" font-size="30.0" fill="#52575F" transform="matrix(1.00, 0.00, -0.00, -1.00, 417.3, 451.0)">i</text><text xml:space="preserve" font-family="Roboto-Light" font-size="30.0" fill="#52575F" transform="matrix(1.00, 0.00, -0.00, -1.00, 424.1, 451.0)">s</text><text xml:space="preserve" font-family="Roboto-Light" font-size="30.0" fill="#52575F" transform="matrix(1.00, 0.00, -0.00, -1.00, 439.4, 451.0)"> </text><text xml:space="preserve" font-family="Roboto-Light" font-size="30.0" fill="#52575F" transform="matrix(1.00, 0.00, -0.00, -1.00, 450.6, 451.0)">a</text><text xml:space="preserve" font-family="Roboto-Light" font-size="30.0" fill="#52575F" transform="matrix(1.00, 0.00, -0.00, -1.00, 466.7, 451.0)"> </text><text xml:space="preserve" font-family="Roboto-Light" font-size="30.0" fill="#52575F" transform="matrix(1.00, 0.00, -0.00, -1.00, 478.0, 451.0)">v</text><text xml:space="preserve" font-family="Roboto-Light" font-size="30.0" fill="#52575F" transform="matrix(1.00, 0.00, -0.00, -1.00, 492.5, 451.0)">e</text><text xml:space="preserve" font-family="Roboto-Light" font-size="30.0" fill="#52575F" transform="matrix(1.00, 0.00, -0.00, -1.00, 507.9, 451.0)">r</text><text xml:space="preserve" font-family="Roboto-Light" font-size="30.0" fill="#52575F" transform="matrix(1.00, 0.00, -0.00, -1.00, 518.4, 451.0)">y</text><text xml:space="preserve" font-family="Roboto-Light" font-size="30.0" fill="#52575F" transform="matrix(1.00, 0.00, -0.00, -1.00, 533.1, 451.0)"> </text><text xml:space="preserve" font-family="Roboto-Light" font-size="30.0" fill="#52575F" transform="matrix(1.00, 0.00, -0.00, -1.00, 544.3, 451.0)">l</text><text xml:space="preserve" font-family="Roboto-Light" font-size="30.0" fill="#52575F" transform="matrix(1.00, 0.00, -0.00, -1.00, 551.1, 451.0)">i</text><text xml:space="preserve" font-family="Roboto-Light" font-size="30.0" fill="#52575F" transform="matrix(1.00, 0.00, -0.00, -1.00, 558.0, 451.0)">g</text><text xml:space="preserve" font-family="Roboto-Light" font-size="30.0" fill="#52575F" transform="matrix(1.00, 0.00, -0.00, -1.00, 574.7, 451.0)">h</text><text xml:space="preserve" font-family="Roboto-Light" font-size="30.0" fill="#52575F" transform="matrix(1.00, 0.00, -0.00, -1.00, 591.4, 451.0)">t</text><text xml:space="preserve" font-family="Roboto-Light" font-size="30.0" fill="#52575F" transform="matrix(1.00, 0.00, -0.00, -1.00, 601.3, 451.0)"> </text><text xml:space="preserve" font-family="Roboto-Light" font-size="30.0" fill="#52575F" transform="matrix(1.00, 0.00, -0.00, -1.00, 612.6, 451.0)">e</text><text xml:space="preserve" font-family="Roboto-Light" font-size="30.0" fill="#52575F" transform="matrix(1.00, 0.00, -0.00, -1.00, 628.0, 451.0)">x</text><text xml:space="preserve" font-family="Roboto-Light" font-size="30.0" fill="#52575F" transform="matrix(1.00, 0.00, -0.00, -1.00, 642.4, 451.0)">e</text><text xml:space="preserve" font-family="Roboto-Light" font-size="30.0" fill="#52575F" transform="matrix(1.00, 0.00, -0.00, -1.00, 657.9, 451.0)">r</text><text xml:space="preserve" font-family="Roboto-Light" font-size="30.0" fill="#52575F" transform="matrix(1.00, 0.00, -0.00, -1.00, 667.8, 451.0)">c</text><text xml:space="preserve" font-family="Roboto-Light" font-size="30.0" fill="#52575F" transform="matrix(1.00, 0.00, -0.00, -1.00, 683.4, 451.0)">i</text><text xml:space="preserve" font-family="Roboto-Light" font-size="30.0" fill="#52575F" transform="matrix(1.00, 0.00, -0.00, -1.00, 690.2, 451.0)">s</text><text xml:space="preserve" font-family="Roboto-Light" font-size="30.0" fill="#52575F" transform="matrix(1.00, 0.00, -0.00, -1.00, 705.5, 451.0)">e</text><text xml:space="preserve" font-family="Roboto-Light" font-size="30.0" fill="#52575F" transform="matrix(1.00, 0.00, -0.00, -1.00, 720.9, 451.0)">,</text><text xml:space="preserve" font-family="Roboto-Light" font-size="30.0" fill="#52575F" transform="matrix(1.00, 0.00, -0.00, -1.00, 726.7, 451.0)"> </text><text xml:space="preserve" font-family="Roboto-Light" font-size="30.0" fill="#52575F" transform="matrix(1.00, 0.00, -0.00, -1.00, 737.9, 451.0)">b</text><text xml:space="preserve" font-family="Roboto-Light" font-size="30.0" fill="#52575F" transform="matrix(1.00, 0.00, -0.00, -1.00, 754.6, 451.0)">u</text><text xml:space="preserve" font-family="Roboto-Light" font-size="30.0" fill="#52575F" transform="matrix(1.00, 0.00, -0.00, -1.00, 771.3, 451.0)">t</text><text xml:space="preserve" font-family="Roboto-Light" font-size="30.0" fill="#52575F" transform="matrix(1.00, 0.00, -0.00, -1.00, 781.2, 451.0)"> </text><text xml:space="preserve" font-family="Roboto-Light" font-size="30.0" fill="#52575F" transform="matrix(1.00, 0.00, -0.00, -1.00, 792.5, 451.0)">I</text><text xml:space="preserve" font-family="Roboto-Light" font-size="30.0" fill="#52575F" transform="matrix(1.00, 0.00, -0.00, -1.00, 800.6, 451.0)"> </text><text xml:space="preserve" font-family="Roboto-Light" font-size="30.0" fill="#52575F" transform="matrix(1.00, 0.00, -0.00, -1.00, 811.8, 451.0)">h</text><text xml:space="preserve" font-family="Roboto-Light" font-size="30.0" fill="#52575F" transform="matrix(1.00, 0.00, -0.00, -1.00, 828.5, 451.0)">o</text><text xml:space="preserve" font-family="Roboto-Light" font-size="30.0" fill="#52575F" transform="matrix(1.00, 0.00, -0.00, -1.00, 845.2, 451.0)">p</text><text xml:space="preserve" font-family="Roboto-Light" font-size="30.0" fill="#52575F" transform="matrix(1.00, 0.00, -0.00, -1.00, 861.9, 451.0)">e</text><text xml:space="preserve" font-family="Roboto-Light" font-size="30.0" fill="#52575F" transform="matrix(1.00, 0.00, -0.00, -1.00, 877.3, 451.0)"> </text><text xml:space="preserve" font-family="Roboto-Light" font-size="30.0" fill="#52575F" transform="matrix(1.00, 0.00, -0.00, -1.00, 888.6, 451.0)">i</text><text xml:space="preserve" font-family="Roboto-Light" font-size="30.0" fill="#52575F" transform="matrix(1.00, 0.00, -0.00, -1.00, 895.4, 451.0)">t</text><text xml:space="preserve" font-family="Roboto-Light" font-size="30.0" fill="#52575F" transform="matrix(1.00, 0.00, -0.00, -1.00, 905.4, 451.0)"> </text><text xml:space="preserve" font-family="Roboto-Light" font-size="30.0" fill="#52575F" transform="matrix(1.00, 0.00, -0.00, -1.00, 119.0, 412.0)">g</text><text xml:space="preserve" font-family="Roboto-Light" font-size="30.0" fill="#52575F" transform="matrix(1.00, 0.00, -0.00, -1.00, 135.7, 412.0)">i</text><text xml:space="preserve" font-family="Roboto-Light" font-size="30.0" fill="#52575F" transform="matrix(1.00, 0.00, -0.00, -1.00, 142.5, 412.0)">v</text><text xml:space="preserve" font-family="Roboto-Light" font-size="30.0" fill="#52575F" transform="matrix(1.00, 0.00, -0.00, -1.00, 157.0, 412.0)">e</text><text xml:space="preserve" font-family="Roboto-Light" font-size="30.0" fill="#52575F" transform="matrix(1.00, 0.00, -0.00, -1.00, 172.5, 412.0)">s</text><text xml:space="preserve" font-family="Roboto-Light" font-size="30.0" fill="#52575F" transform="matrix(1.00, 0.00, -0.00, -1.00, 187.8, 412.0)"> </text><text xml:space="preserve" font-family="Roboto-Light" font-size="30.0" fill="#52575F" transform="matrix(1.00, 0.00, -0.00, -1.00, 195.1, 412.0)">y</text><text xml:space="preserve" font-family="Roboto-Light" font-size="30.0" fill="#52575F" transform="matrix(1.00, 0.00, -0.00, -1.00, 209.5, 412.0)">o</text><text xml:space="preserve" font-family="Roboto-Light" font-size="30.0" fill="#52575F" transform="matrix(1.00, 0.00, -0.00, -1.00, 226.2, 412.0)">u</text><text xml:space="preserve" font-family="Roboto-Light" font-size="30.0" fill="#52575F" transform="matrix(1.00, 0.00, -0.00, -1.00, 242.9, 412.0)"> </text><text xml:space="preserve" font-family="Roboto-Light" font-size="30.0" fill="#52575F" transform="matrix(1.00, 0.00, -0.00, -1.00, 250.2, 412.0)">a</text><text xml:space="preserve" font-family="Roboto-Light" font-size="30.0" fill="#52575F" transform="matrix(1.00, 0.00, -0.00, -1.00, 266.3, 412.0)">n</text><text xml:space="preserve" font-family="Roboto-Light" font-size="30.0" fill="#52575F" transform="matrix(1.00, 0.00, -0.00, -1.00, 283.0, 412.0)"> </text><text xml:space="preserve" font-family="Roboto-Light" font-size="30.0" fill="#52575F" transform="matrix(1.00, 0.00, -0.00, -1.00, 290.3, 412.0)">i</text><text xml:space="preserve" font-family="Roboto-Light" font-size="30.0" fill="#52575F" transform="matrix(1.00, 0.00, -0.00, -1.00, 297.1, 412.0)">d</text><text xml:space="preserve" font-family="Roboto-Light" font-size="30.0" fill="#52575F" transform="matrix(1.00, 0.00, -0.00, -1.00, 313.7, 412.0)">e</text><text xml:space="preserve" font-family="Roboto-Light" font-size="30.0" fill="#52575F" transform="matrix(1.00, 0.00, -0.00, -1.00, 329.2, 412.0)">a</text><text xml:space="preserve" font-family="Roboto-Light" font-size="30.0" fill="#52575F" transform="matrix(1.00, 0.00, -0.00, -1.00, 345.3, 412.0)"> </text><text xml:space="preserve" font-family="Roboto-Light" font-size="30.0" fill="#52575F" transform="matrix(1.00, 0.00, -0.00, -1.00, 352.6, 412.0)">o</text><text xml:space="preserve" font-family="Roboto-Light" font-size="30.0" fill="#52575F" transform="matrix(1.00, 0.00, -0.00, -1.00, 369.3, 412.0)">f</text><text xml:space="preserve" font-family="Roboto-Light" font-size="30.0" fill="#52575F" transform="matrix(1.00, 0.00, -0.00, -1.00, 379.1, 412.0)"> </text><text xml:space="preserve" font-family="Roboto-Light" font-size="30.0" fill="#52575F" transform="matrix(1.00, 0.00, -0.00, -1.00, 386.4, 412.0)">m</text><text xml:space="preserve" font-family="Roboto-Light" font-size="30.0" fill="#52575F" transform="matrix(1.00, 0.00, -0.00, -1.00, 413.0, 412.0)">y</text><text xml:space="preserve" font-family="Roboto-Light" font-size="30.0" fill="#52575F" transform="matrix(1.00, 0.00, -0.00, -1.00, 427.7, 412.0)"> </text><text xml:space="preserve" font-family="Roboto-Light" font-size="30.0" fill="#52575F" transform="matrix(1.00, 0.00, -0.00, -1.00, 435.0, 412.0)">d</text><text xml:space="preserve" font-family="Roboto-Light" font-size="30.0" fill="#52575F" transform="matrix(1.00, 0.00, -0.00, -1.00, 451.6, 412.0)">e</text><text xml:space="preserve" font-family="Roboto-Light" font-size="30.0" fill="#52575F" transform="matrix(1.00, 0.00, -0.00, -1.00, 467.1, 412.0)">s</text><text xml:space="preserve" font-family="Roboto-Light" font-size="30.0" fill="#52575F" transform="matrix(1.00, 0.00, -0.00, -1.00, 482.4, 412.0)">i</text><text xml:space="preserve" font-family="Roboto-Light" font-size="30.0" fill="#52575F" transform="matrix(1.00, 0.00, -0.00, -1.00, 489.2, 412.0)">g</text><text xml:space="preserve" font-family="Roboto-Light" font-size="30.0" fill="#52575F" transform="matrix(1.00, 0.00, -0.00, -1.00, 505.9, 412.0)">n</text><text xml:space="preserve" font-family="Roboto-Light" font-size="30.0" fill="#52575F" transform="matrix(1.00, 0.00, -0.00, -1.00, 522.6, 412.0)"> </text><text xml:space="preserve" font-family="Roboto-Light" font-size="30.0" fill="#52575F" transform="matrix(1.00, 0.00, -0.00, -1.00, 529.9, 412.0)">p</text><text xml:space="preserve" font-family="Roboto-Light" font-size="30.0" fill="#52575F" transform="matrix(1.00, 0.00, -0.00, -1.00, 546.5, 412.0)">r</text><text xml:space="preserve" font-family="Roboto-Light" font-size="30.0" fill="#52575F" transform="matrix(1.00, 0.00, -0.00, -1.00, 556.5, 412.0)">o</text><text xml:space="preserve" font-family="Roboto-Light" font-size="30.0" fill="#52575F" transform="matrix(1.00, 0.00, -0.00, -1.00, 573.1, 412.0)">c</text><text xml:space="preserve" font-family="Roboto-Light" font-size="30.0" fill="#52575F" transform="matrix(1.00, 0.00, -0.00, -1.00, 588.7, 412.0)">e</text><text xml:space="preserve" font-family="Roboto-Light" font-size="30.0" fill="#52575F" transform="matrix(1.00, 0.00, -0.00, -1.00, 604.1, 412.0)">s</text><text xml:space="preserve" font-family="Roboto-Light" font-size="30.0" fill="#52575F" transform="matrix(1.00, 0.00, -0.00, -1.00, 619.4, 412.0)">s</text><text xml:space="preserve" font-family="Roboto-Light" font-size="30.0" fill="#52575F" transform="matrix(1.00, 0.00, -0.00, -1.00, 634.7, 412.0)">.</text><text xml:space="preserve" font-family="Roboto-Light" font-size="30.0" fill="#52575F" transform="matrix(1.00, 0.00, -0.00, -1.00, 641.9, 412.0)"> </text><text xml:space="preserve" font-family="Roboto-Light" font-size="30.0" fill="#52575F" transform="matrix(1.00, 0.00, -0.00, -1.00, 119.0, 334.0)">H</text><text xml:space="preserve" font-family="Roboto-Light" font-size="30.0" fill="#52575F" transform="matrix(1.00, 0.00, -0.00, -1.00, 140.2, 334.0)">e</text><text xml:space="preserve" font-family="Roboto-Light" font-size="30.0" fill="#52575F" transform="matrix(1.00, 0.00, -0.00, -1.00, 155.7, 334.0)">r</text><text xml:space="preserve" font-family="Roboto-Light" font-size="30.0" fill="#52575F" transform="matrix(1.00, 0.00, -0.00, -1.00, 165.6, 334.0)">e</text><text xml:space="preserve" font-family="Roboto-Light" font-size="30.0" fill="#52575F" transform="matrix(1.00, 0.00, -0.00, -1.00, 181.1, 334.0)"> </text><text xml:space="preserve" font-family="Roboto-Light" font-size="30.0" fill="#52575F" transform="matrix(1.00, 0.00, -0.00, -1.00, 195.4, 334.0)">i</text><text xml:space="preserve" font-family="Roboto-Light" font-size="30.0" fill="#52575F" transform="matrix(1.00, 0.00, -0.00, -1.00, 202.2, 334.0)">s</text><text xml:space="preserve" font-family="Roboto-Light" font-size="30.0" fill="#52575F" transform="matrix(1.00, 0.00, -0.00, -1.00, 217.5, 334.0)"> </text><text xml:space="preserve" font-family="Roboto-Light" font-size="30.0" fill="#52575F" transform="matrix(1.00, 0.00, -0.00, -1.00, 231.8, 334.0)">t</text><text xml:space="preserve" font-family="Roboto-Light" font-size="30.0" fill="#52575F" transform="matrix(1.00, 0.00, -0.00, -1.00, 241.8, 334.0)">h</text><text xml:space="preserve" font-family="Roboto-Light" font-size="30.0" fill="#52575F" transform="matrix(1.00, 0.00, -0.00, -1.00, 258.5, 334.0)">e</text><text xml:space="preserve" font-family="Roboto-Light" font-size="30.0" fill="#52575F" transform="matrix(1.00, 0.00, -0.00, -1.00, 273.9, 334.0)"> </text><text xml:space="preserve" font-family="Roboto-Light" font-size="30.0" fill="#52575F" transform="matrix(1.00, 0.00, -0.00, -1.00, 288.2, 334.0)">a</text><text xml:space="preserve" font-family="Roboto-Light" font-size="30.0" fill="#52575F" transform="matrix(1.00, 0.00, -0.00, -1.00, 304.3, 334.0)"> </text><text xml:space="preserve" font-family="Roboto-Light" font-size="30.0" fill="#52575F" transform="matrix(1.00, 0.00, -0.00, -1.00, 318.7, 334.0)">l</text><text xml:space="preserve" font-family="Roboto-Light" font-size="30.0" fill="#52575F" transform="matrix(1.00, 0.00, -0.00, -1.00, 325.5, 334.0)">i</text><text xml:space="preserve" font-family="Roboto-Light" font-size="30.0" fill="#52575F" transform="matrix(1.00, 0.00, -0.00, -1.00, 332.3, 334.0)">n</text><text xml:space="preserve" font-family="Roboto-Light" font-size="30.0" fill="#52575F" transform="matrix(1.00, 0.00, -0.00, -1.00, 349.0, 334.0)">k</text><text xml:space="preserve" font-family="Roboto-Light" font-size="30.0" fill="#52575F" transform="matrix(1.00, 0.00, -0.00, -1.00, 363.7, 334.0)"> </text><text xml:space="preserve" font-family="Roboto-Light" font-size="30.0" fill="#52575F" transform="matrix(1.00, 0.00, -0.00, -1.00, 378.0, 334.0)">t</text><text xml:space="preserve" font-family="Roboto-Light" font-size="30.0" fill="#52575F" transform="matrix(1.00, 0.00, -0.00, -1.00, 387.7, 334.0)">o</text><text xml:space="preserve" font-family="Roboto-Light" font-size="30.0" fill="#52575F" transform="matrix(1.00, 0.00, -0.00, -1.00, 404.4, 334.0)"> </text><text xml:space="preserve" font-family="Roboto-Light" font-size="30.0" fill="#52575F" transform="matrix(1.00, 0.00, -0.00, -1.00, 418.7, 334.0)">t</text><text xml:space="preserve" font-family="Roboto-Light" font-size="30.0" fill="#52575F" transform="matrix(1.00, 0.00, -0.00, -1.00, 428.7, 334.0)">h</text><text xml:space="preserve" font-family="Roboto-Light" font-size="30.0" fill="#52575F" transform="matrix(1.00, 0.00, -0.00, -1.00, 445.4, 334.0)">e</text><text xml:space="preserve" font-family="Roboto-Light" font-size="30.0" fill="#52575F" transform="matrix(1.00, 0.00, -0.00, -1.00, 460.8, 334.0)"> </text><text xml:space="preserve" font-family="Roboto-Light" font-size="30.0" fill="#52575F" transform="matrix(1.00, 0.00, -0.00, -1.00, 475.1, 334.0)">s</text><text xml:space="preserve" font-family="Roboto-Light" font-size="30.0" fill="#52575F" transform="matrix(1.00, 0.00, -0.00, -1.00, 490.4, 334.0)">k</text><text xml:space="preserve" font-family="Roboto-Light" font-size="30.0" fill="#52575F" transform="matrix(1.00, 0.00, -0.00, -1.00, 504.9, 334.0)">e</text><text xml:space="preserve" font-family="Roboto-Light" font-size="30.0" fill="#52575F" transform="matrix(1.00, 0.00, -0.00, -1.00, 520.3, 334.0)">t</text><text xml:space="preserve" font-family="Roboto-Light" font-size="30.0" fill="#52575F" transform="matrix(1.00, 0.00, -0.00, -1.00, 530.3, 334.0)">c</text><text xml:space="preserve" font-family="Roboto-Light" font-size="30.0" fill="#52575F" transform="matrix(1.00, 0.00, -0.00, -1.00, 545.8, 334.0)">h</text><text xml:space="preserve" font-family="Roboto-Light" font-size="30.0" fill="#52575F" transform="matrix(1.00, 0.00, -0.00, -1.00, 562.5, 334.0)"> </text><text xml:space="preserve" font-family="Roboto-Light" font-size="30.0" fill="#52575F" transform="matrix(1.00, 0.00, -0.00, -1.00, 576.8, 334.0)">ﬁ</text><text xml:space="preserve" font-family="Roboto-Light" font-size="30.0" fill="#52575F" transform="matrix(1.00, 0.00, -0.00, -1.00, 593.0, 334.0)">l</text><text xml:space="preserve" font-family="Roboto-Light" font-size="30.0" fill="#52575F" transform="matrix(1.00, 0.00, -0.00, -1.00, 599.8, 334.0)">e</text><text xml:space="preserve" font-family="Roboto-Light" font-size="30.0" fill="#52575F" transform="matrix(1.00, 0.00, -0.00, -1.00, 615.2, 334.0)"> </text><text xml:space="preserve" font-family="Roboto-Light" font-size="30.0" fill="#52575F" transform="matrix(1.00, 0.00, -0.00, -1.00, 629.5, 334.0)">w</text><text xml:space="preserve" font-family="Roboto-Light" font-size="30.0" fill="#52575F" transform="matrix(1.00, 0.00, -0.00, -1.00, 652.2, 334.0)">i</text><text xml:space="preserve" font-family="Roboto-Light" font-size="30.0" fill="#52575F" transform="matrix(1.00, 0.00, -0.00, -1.00, 659.1, 334.0)">t</text><text xml:space="preserve" font-family="Roboto-Light" font-size="30.0" fill="#52575F" transform="matrix(1.00, 0.00, -0.00, -1.00, 669.0, 334.0)">h</text><text xml:space="preserve" font-family="Roboto-Light" font-size="30.0" fill="#52575F" transform="matrix(1.00, 0.00, -0.00, -1.00, 685.7, 334.0)"> </text><text xml:space="preserve" font-family="Roboto-Light" font-size="30.0" fill="#52575F" transform="matrix(1.00, 0.00, -0.00, -1.00, 700.0, 334.0)">a</text><text xml:space="preserve" font-family="Roboto-Light" font-size="30.0" fill="#52575F" transform="matrix(1.00, 0.00, -0.00, -1.00, 716.1, 334.0)">l</text><text xml:space="preserve" font-family="Roboto-Light" font-size="30.0" fill="#52575F" transform="matrix(1.00, 0.00, -0.00, -1.00, 723.0, 334.0)">l</text><text xml:space="preserve" font-family="Roboto-Light" font-size="30.0" fill="#52575F" transform="matrix(1.00, 0.00, -0.00, -1.00, 729.8, 334.0)"> </text><text xml:space="preserve" font-family="Roboto-Light" font-size="30.0" fill="#52575F" transform="matrix(1.00, 0.00, -0.00, -1.00, 744.1, 334.0)">t</text><text xml:space="preserve" font-family="Roboto-Light" font-size="30.0" fill="#52575F" transform="matrix(1.00, 0.00, -0.00, -1.00, 754.1, 334.0)">h</text><text xml:space="preserve" font-family="Roboto-Light" font-size="30.0" fill="#52575F" transform="matrix(1.00, 0.00, -0.00, -1.00, 770.7, 334.0)">e</text><text xml:space="preserve" font-family="Roboto-Light" font-size="30.0" fill="#52575F" transform="matrix(1.00, 0.00, -0.00, -1.00, 786.2, 334.0)"> </text><text xml:space="preserve" font-family="Roboto-Light" font-size="30.0" fill="#52575F" transform="matrix(1.00, 0.00, -0.00, -1.00, 800.5, 334.0)">p</text><text xml:space="preserve" font-family="Roboto-Light" font-size="30.0" fill="#52575F" transform="matrix(1.00, 0.00, -0.00, -1.00, 817.2, 334.0)">r</text><text xml:space="preserve" font-family="Roboto-Light" font-size="30.0" fill="#52575F" transform="matrix(1.00, 0.00, -0.00, -1.00, 827.1, 334.0)">o</text><text xml:space="preserve" font-family="Roboto-Light" font-size="30.0" fill="#52575F" transform="matrix(1.00, 0.00, -0.00, -1.00, 843.8, 334.0)">c</text><text xml:space="preserve" font-family="Roboto-Light" font-size="30.0" fill="#52575F" transform="matrix(1.00, 0.00, -0.00, -1.00, 859.4, 334.0)">e</text><text xml:space="preserve" font-family="Roboto-Light" font-size="30.0" fill="#52575F" transform="matrix(1.00, 0.00, -0.00, -1.00, 874.8, 334.0)">s</text><text xml:space="preserve" font-family="Roboto-Light" font-size="30.0" fill="#52575F" transform="matrix(1.00, 0.00, -0.00, -1.00, 890.1, 334.0)">s</text><text xml:space="preserve" font-family="Roboto-Light" font-size="30.0" fill="#52575F" transform="matrix(1.00, 0.00, -0.00, -1.00, 905.4, 334.0)"> </text><text xml:space="preserve" font-family="Roboto-Light" font-size="30.0" fill="#52575F" transform="matrix(1.00, 0.00, -0.00, -1.00, 119.0, 295.0)">m</text><text xml:space="preserve" font-family="Roboto-Light" font-size="30.0" fill="#52575F" transform="matrix(1.00, 0.00, -0.00, -1.00, 145.6, 295.0)">a</text><text xml:space="preserve" font-family="Roboto-Light" font-size="30.0" fill="#52575F" transform="matrix(1.00, 0.00, -0.00, -1.00, 161.7, 295.0)">t</text><text xml:space="preserve" font-family="Roboto-Light" font-size="30.0" fill="#52575F" transform="matrix(1.00, 0.00, -0.00, -1.00, 171.7, 295.0)">e</text><text xml:space="preserve" font-family="Roboto-Light" font-size="30.0" fill="#52575F" transform="matrix(1.00, 0.00, -0.00, -1.00, 187.1, 295.0)">r</text><text xml:space="preserve" font-family="Roboto-Light" font-size="30.0" fill="#52575F" transform="matrix(1.00, 0.00, -0.00, -1.00, 197.3, 295.0)">i</text><text xml:space="preserve" font-family="Roboto-Light" font-size="30.0" fill="#52575F" transform="matrix(1.00, 0.00, -0.00, -1.00, 204.2, 295.0)">a</text><text xml:space="preserve" font-family="Roboto-Light" font-size="30.0" fill="#52575F" transform="matrix(1.00, 0.00, -0.00, -1.00, 220.3, 295.0)">l</text><text xml:space="preserve" font-family="Roboto-Light" font-size="30.0" fill="#52575F" transform="matrix(1.00, 0.00, -0.00, -1.00, 227.1, 295.0)">s</text><text xml:space="preserve" font-family="Roboto-Light" font-size="30.0" fill="#52575F" transform="matrix(1.00, 0.00, -0.00, -1.00, 242.4, 295.0)">:</text><text xml:space="preserve" font-family="Roboto-Light" font-size="30.0" fill="#52575F" transform="matrix(1.00, 0.00, -0.00, -1.00, 248.7, 295.0)"> </text><text xml:space="preserve" font-family="Roboto-Light" font-size="30.0" fill="#52575F" transform="matrix(1.00, 0.00, -0.00, -1.00, 119.0, 256.0)">h</text><text xml:space="preserve" font-family="Roboto-Light" font-size="30.0" fill="#52575F" transform="matrix(1.00, 0.00, -0.00, -1.00, 139.0, 256.0)">t</text><text xml:space="preserve" font-family="Roboto-Light" font-size="30.0" fill="#52575F" transform="matrix(1.00, 0.00, -0.00, -1.00, 152.3, 256.0)">t</text><text xml:space="preserve" font-family="Roboto-Light" font-size="30.0" fill="#52575F" transform="matrix(1.00, 0.00, -0.00, -1.00, 165.5, 256.0)">p</text><text xml:space="preserve" font-family="Roboto-Light" font-size="30.0" fill="#52575F" transform="matrix(1.00, 0.00, -0.00, -1.00, 185.5, 256.0)">s</text><text xml:space="preserve" font-family="Roboto-Light" font-size="30.0" fill="#52575F" transform="matrix(1.00, 0.00, -0.00, -1.00, 204.2, 256.0)">:</text><text xml:space="preserve" font-family="Roboto-Light" font-size="30.0" fill="#52575F" transform="matrix(1.00, 0.00, -0.00, -1.00, 213.8, 256.0)">/</text><text xml:space="preserve" font-family="Roboto-Light" font-size="30.0" fill="#52575F" transform="matrix(1.00, 0.00, -0.00, -1.00, 225.8, 256.0)">/</text><text xml:space="preserve" font-family="Roboto-Light" font-size="30.0" fill="#52575F" transform="matrix(1.00, 0.00, -0.00, -1.00, 241.0, 256.0)">w</text><text xml:space="preserve" font-family="Roboto-Light" font-size="30.0" fill="#52575F" transform="matrix(1.00, 0.00, -0.00, -1.00, 267.0, 256.0)">w</text><text xml:space="preserve" font-family="Roboto-Light" font-size="30.0" fill="#52575F" transform="matrix(1.00, 0.00, -0.00, -1.00, 293.0, 256.0)">w</text><text xml:space="preserve" font-family="Roboto-Light" font-size="30.0" fill="#52575F" transform="matrix(1.00, 0.00, -0.00, -1.00, 317.2, 256.0)">.</text><text xml:space="preserve" font-family="Roboto-Light" font-size="30.0" fill="#52575F" transform="matrix(1.00, 0.00, -0.00, -1.00, 327.7, 256.0)">d</text><text xml:space="preserve" font-family="Roboto-Light" font-size="30.0" fill="#52575F" transform="matrix(1.00, 0.00, -0.00, -1.00, 347.7, 256.0)">r</text><text xml:space="preserve" font-family="Roboto-Light" font-size="30.0" fill="#52575F" transform="matrix(1.00, 0.00, -0.00, -1.00, 360.9, 256.0)">o</text><text xml:space="preserve" font-family="Roboto-Light" font-size="30.0" fill="#52575F" transform="matrix(1.00, 0.00, -0.00, -1.00, 380.9, 256.0)">p</text><text xml:space="preserve" font-family="Roboto-Light" font-size="30.0" fill="#52575F" transform="matrix(1.00, 0.00, -0.00, -1.00, 400.9, 256.0)">b</text><text xml:space="preserve" font-family="Roboto-Light" font-size="30.0" fill="#52575F" transform="matrix(1.00, 0.00, -0.00, -1.00, 421.0, 256.0)">o</text><text xml:space="preserve" font-family="Roboto-Light" font-size="30.0" fill="#52575F" transform="matrix(1.00, 0.00, -0.00, -1.00, 440.7, 256.0)">x</text><text xml:space="preserve" font-family="Roboto-Light" font-size="30.0" fill="#52575F" transform="matrix(1.00, 0.00, -0.00, -1.00, 458.7, 256.0)">.</text><text xml:space="preserve" font-family="Roboto-Light" font-size="30.0" fill="#52575F" transform="matrix(1.00, 0.00, -0.00, -1.00, 469.1, 256.0)">c</text><text xml:space="preserve" font-family="Roboto-Light" font-size="30.0" fill="#52575F" transform="matrix(1.00, 0.00, -0.00, -1.00, 488.0, 256.0)">o</text><text xml:space="preserve" font-family="Roboto-Light" font-size="30.0" fill="#52575F" transform="matrix(1.00, 0.00, -0.00, -1.00, 508.0, 256.0)">m</text><text xml:space="preserve" font-family="Roboto-Light" font-size="30.0" fill="#52575F" transform="matrix(1.00, 0.00, -0.00, -1.00, 537.9, 256.0)">/</text><text xml:space="preserve" font-family="Roboto-Light" font-size="30.0" fill="#52575F" transform="matrix(1.00, 0.00, -0.00, -1.00, 553.1, 256.0)">s</text><text xml:space="preserve" font-family="Roboto-Light" font-size="30.0" fill="#52575F" transform="matrix(1.00, 0.00, -0.00, -1.00, 571.7, 256.0)">/</text><text xml:space="preserve" font-family="Roboto-Light" font-size="30.0" fill="#52575F" transform="matrix(1.00, 0.00, -0.00, -1.00, 587.0, 256.0)">g</text><text xml:space="preserve" font-family="Roboto-Light" font-size="30.0" fill="#52575F" transform="matrix(1.00, 0.00, -0.00, -1.00, 607.0, 256.0)">p</text><text xml:space="preserve" font-family="Roboto-Light" font-size="30.0" fill="#52575F" transform="matrix(1.00, 0.00, -0.00, -1.00, 627.0, 256.0)">s</text><text xml:space="preserve" font-family="Roboto-Light" font-size="30.0" fill="#52575F" transform="matrix(1.00, 0.00, -0.00, -1.00, 645.6, 256.0)">i</text><text xml:space="preserve" font-family="Roboto-Light" font-size="30.0" fill="#52575F" transform="matrix(1.00, 0.00, -0.00, -1.00, 655.7, 256.0)">8</text><text xml:space="preserve" font-family="Roboto-Light" font-size="30.0" fill="#52575F" transform="matrix(1.00, 0.00, -0.00, -1.00, 675.7, 256.0)">0</text><text xml:space="preserve" font-family="Roboto-Light" font-size="30.0" fill="#52575F" transform="matrix(1.00, 0.00, -0.00, -1.00, 696.5, 256.0)">p</text><text xml:space="preserve" font-family="Roboto-Light" font-size="30.0" fill="#52575F" transform="matrix(1.00, 0.00, -0.00, -1.00, 716.5, 256.0)">m</text><text xml:space="preserve" font-family="Roboto-Light" font-size="30.0" fill="#52575F" transform="matrix(1.00, 0.00, -0.00, -1.00, 746.4, 256.0)">f</text><text xml:space="preserve" font-family="Roboto-Light" font-size="30.0" fill="#52575F" transform="matrix(1.00, 0.00, -0.00, -1.00, 759.6, 256.0)">y</text><text xml:space="preserve" font-family="Roboto-Light" font-size="30.0" fill="#52575F" transform="matrix(1.00, 0.00, -0.00, -1.00, 777.4, 256.0)">o</text><text xml:space="preserve" font-family="Roboto-Light" font-size="30.0" fill="#52575F" transform="matrix(1.00, 0.00, -0.00, -1.00, 797.4, 256.0)">m</text><text xml:space="preserve" font-family="Roboto-Light" font-size="30.0" fill="#52575F" transform="matrix(1.00, 0.00, -0.00, -1.00, 827.3, 256.0)">w</text><text xml:space="preserve" font-family="Roboto-Light" font-size="30.0" fill="#52575F" transform="matrix(1.00, 0.00, -0.00, -1.00, 853.3, 256.0)">g</text><text xml:space="preserve" font-family="Roboto-Light" font-size="30.0" fill="#52575F" transform="matrix(1.00, 0.00, -0.00, -1.00, 873.4, 256.0)">o</text><text xml:space="preserve" font-family="Roboto-Light" font-size="30.0" fill="#52575F" transform="matrix(1.00, 0.00, -0.00, -1.00, 893.4, 256.0)">/</text><g><clipPath id="clip-76"><path d="M 117.8 252.2 L 905.2 252.2 L 905.2 255.7 L 117.8 255.7 Z M 117.8 252.2 "></path></clipPath><g clip-path="url(#clip-76)"><path d="M 4.0 271.1 L 790.3 271.1 " fill="none" stroke="#52575F" stroke-width="1.46" stroke-miterlimit="0.00" transform="matrix(1.00, 0.00, 0.00, -1.00, 114.8, 525.0)"></path></g></g><text xml:space="preserve" font-family="Roboto-Light" font-size="30.0" fill="#52575F" transform="matrix(1.00, 0.00, -0.00, -1.00, 119.0, 217.0)">G</text><text xml:space="preserve" font-family="Roboto-Light" font-size="30.0" fill="#52575F" transform="matrix(1.00, 0.00, -0.00, -1.00, 139.5, 217.0)">o</text><text xml:space="preserve" font-family="Roboto-Light" font-size="30.0" fill="#52575F" transform="matrix(1.00, 0.00, -0.00, -1.00, 156.2, 217.0)">o</text><text xml:space="preserve" font-family="Roboto-Light" font-size="30.0" fill="#52575F" transform="matrix(1.00, 0.00, -0.00, -1.00, 172.9, 217.0)">g</text><text xml:space="preserve" font-family="Roboto-Light" font-size="30.0" fill="#52575F" transform="matrix(1.00, 0.00, -0.00, -1.00, 189.6, 217.0)">l</text><text xml:space="preserve" font-family="Roboto-Light" font-size="30.0" fill="#52575F" transform="matrix(1.00, 0.00, -0.00, -1.00, 196.4, 217.0)">e</text><text xml:space="preserve" font-family="Roboto-Light" font-size="30.0" fill="#52575F" transform="matrix(1.00, 0.00, -0.00, -1.00, 211.9, 217.0)">A</text><text xml:space="preserve" font-family="Roboto-Light" font-size="30.0" fill="#52575F" transform="matrix(1.00, 0.00, -0.00, -1.00, 230.6, 217.0)">d</text><text xml:space="preserve" font-family="Roboto-Light" font-size="30.0" fill="#52575F" transform="matrix(1.00, 0.00, -0.00, -1.00, 247.3, 217.0)">w</text><text xml:space="preserve" font-family="Roboto-Light" font-size="30.0" fill="#52575F" transform="matrix(1.00, 0.00, -0.00, -1.00, 270.0, 217.0)">o</text><text xml:space="preserve" font-family="Roboto-Light" font-size="30.0" fill="#52575F" transform="matrix(1.00, 0.00, -0.00, -1.00, 286.7, 217.0)">r</text><text xml:space="preserve" font-family="Roboto-Light" font-size="30.0" fill="#52575F" transform="matrix(1.00, 0.00, -0.00, -1.00, 296.6, 217.0)">d</text><text xml:space="preserve" font-family="Roboto-Light" font-size="30.0" fill="#52575F" transform="matrix(1.00, 0.00, -0.00, -1.00, 313.3, 217.0)">s</text><text xml:space="preserve" font-family="Roboto-Light" font-size="30.0" fill="#52575F" transform="matrix(1.00, 0.00, -0.00, -1.00, 328.6, 217.0)">.</text><text xml:space="preserve" font-family="Roboto-Light" font-size="30.0" fill="#52575F" transform="matrix(1.00, 0.00, -0.00, -1.00, 335.8, 217.0)">s</text><text xml:space="preserve" font-family="Roboto-Light" font-size="30.0" fill="#52575F" transform="matrix(1.00, 0.00, -0.00, -1.00, 351.0, 217.0)">k</text><text xml:space="preserve" font-family="Roboto-Light" font-size="30.0" fill="#52575F" transform="matrix(1.00, 0.00, -0.00, -1.00, 365.5, 217.0)">e</text><text xml:space="preserve" font-family="Roboto-Light" font-size="30.0" fill="#52575F" transform="matrix(1.00, 0.00, -0.00, -1.00, 380.9, 217.0)">t</text><text xml:space="preserve" font-family="Roboto-Light" font-size="30.0" fill="#52575F" transform="matrix(1.00, 0.00, -0.00, -1.00, 390.9, 217.0)">c</text><text xml:space="preserve" font-family="Roboto-Light" font-size="30.0" fill="#52575F" transform="matrix(1.00, 0.00, -0.00, -1.00, 406.5, 217.0)">h</text><text xml:space="preserve" font-family="Roboto-Light" font-size="30.0" fill="#52575F" transform="matrix(1.00, 0.00, -0.00, -1.00, 423.1, 217.0)">?</text><text xml:space="preserve" font-family="Roboto-Light" font-size="30.0" fill="#52575F" transform="matrix(1.00, 0.00, -0.00, -1.00, 436.8, 217.0)">d</text><text xml:space="preserve" font-family="Roboto-Light" font-size="30.0" fill="#52575F" transform="matrix(1.00, 0.00, -0.00, -1.00, 453.5, 217.0)">l</text><text xml:space="preserve" font-family="Roboto-Light" font-size="30.0" fill="#52575F" transform="matrix(1.00, 0.00, -0.00, -1.00, 460.3, 217.0)">=</text><text xml:space="preserve" font-family="Roboto-Light" font-size="30.0" fill="#52575F" transform="matrix(1.00, 0.00, -0.00, -1.00, 477.1, 217.0)">0</text><g><clipPath id="clip-77"><path d="M 117.8 213.2 L 494.4 213.2 L 494.4 216.7 L 117.8 216.7 Z M 117.8 213.2 "></path></clipPath><g clip-path="url(#clip-77)"><path d="M 4.0 310.1 L 379.6 310.1 " fill="none" stroke="#52575F" stroke-width="1.46" stroke-miterlimit="0.00" transform="matrix(1.00, 0.00, 0.00, -1.00, 114.8, 525.0)"></path></g></g></g></svg>