<svg xmlns="http://www.w3.org/2000/svg" width="1085" height="311" fill="none" viewBox="0 0 1085 311"><path fill="#FFC799" d="M651.17 310.85C633.18 310.85 615.88 306.46 599.73 297.8C580.7 287.6 568.98 274.98 564.72 260.16C563.04 260.25 561.33 260.3 559.59 260.3C541.84 260.3 529.43 255.53 520.77 249.22C512.13 255.59 499.67 260.3 481.76 260.3C471.25 260.3 461.92 258.61 453.87 255.25C445.67 258.75 436.09 260.52 425.22 260.52C414.5 260.52 405.03 258.77 396.88 255.29C389.24 258.47 380.52 260.08 370.79 260.08C361.21 260.08 353.18 259.07 346.18 256.94C338.83 259.02 330.88 260.08 322.45 260.08C298.32 260.08 275.71 249.55 257.07 229.65C256.23 228.76 255.42 227.86 254.62 226.95C253.78 229 252.82 231.06 251.71 233.13L251.1 234.24C244.14 246.3 229.41 260.53 198.39 260.53C181.75 260.53 167.97 256.21 157.43 247.68C157.27 247.56 157.1 247.42 156.93 247.27C143.34 255.79 128.65 260.08 113.03 260.08C104.68 260.08 96.82 259.08 89.55 257.08C82.76 259.22 75.25 260.3 67.13 260.3C35.08 260.3 20.45 245.07 13.82 232.29C13.53 231.73 13.28 231.21 13.03 230.68C10.23 224.67 8.48001 218.85 7.70001 212.94C7.23001 209.36 7.02002 205.26 7.02002 199.97V67.5798C7.02002 62.3098 7.23003 58.2098 7.69003 54.6798C8.52003 48.4198 10.48 42.1698 13.53 36.0498C20.37 22.8598 35.11 7.46979 67.35 7.46979C99.62 7.46979 114.13 22.8898 120.62 35.8298C123.86 41.9998 125.93 48.3298 126.78 54.8498C127.11 57.4098 127.32 60.2598 127.41 63.6398C137.76 65.5598 147.62 69.4398 156.91 75.2498C165.72 67.7698 178.9 62.0098 198.63 62.0098C202.49 62.0098 211.13 62.0098 220.77 64.8598C227.88 62.2098 234.89 60.9098 241.99 60.9098C247.64 60.9098 252.57 61.2498 257.07 61.9598C261.42 62.6298 266.06 63.7498 270.84 65.2598C275.77 66.8098 280.35 68.9598 284.55 71.6798C296.68 65.4098 309.64 62.2398 323.27 62.2398C330.94 62.2398 338.33 63.2998 345.34 65.3998C351.46 63.3398 358.12 62.2098 365.26 62.0398C365.36 59.2698 365.55 56.8498 365.84 54.6698C366.66 48.4098 368.63 42.1498 371.69 36.0198C378.52 22.8498 393.25 7.46979 425.49 7.46979C457.76 7.46979 472.27 22.8898 478.76 35.8298C482 41.9998 484.07 48.3298 484.92 54.8498C485.2 56.9998 485.39 59.3498 485.5 62.0498C490.38 62.1798 497.88 62.7498 505.9 65.3698C512.81 63.1398 520.04 62.0198 527.5 62.0198C550.36 62.0198 570.83 69.8898 587.31 84.9098C604.32 69.8998 624.18 62.0198 645.25 62.0198C652.57 62.0198 659.65 62.9998 666.38 64.9598C672.34 62.9398 678.88 61.8198 685.91 61.6098C686.02 58.9198 686.2 56.5598 686.49 54.4298C687.27 48.4998 689.02 42.6798 691.83 36.6198C692.08 36.0898 692.36 35.5198 692.64 34.9698C699.24 22.2598 713.9 7.02979 746.13 7.02979C777.15 7.02979 791.81 21.6898 798.65 33.9898C802.53 41.2698 804.74 47.9598 805.59 54.7698C805.87 57.0198 806.06 59.4998 806.16 62.3698C809.44 61.9898 812.86 61.7998 816.43 61.7998C834.04 61.7998 846.4 66.5998 855.05 72.9198C863.69 66.5498 876.2 61.7998 894.27 61.7998C913.51 61.7998 926.47 67.2898 935.19 74.4398C951.51 64.5598 970.25 59.5798 991.17 59.5798C1025.17 59.5798 1053.32 73.7798 1070.42 99.5698C1079.96 114.17 1084.76 130.19 1084.76 147.3C1084.76 161.08 1081.67 173.46 1075.71 183.78C1077.91 190.24 1078.99 196.55 1078.99 202.85C1078.99 221.05 1070.41 263.4 990.95 263.4C974.33 263.4 958.96 260.32 945.25 254.25C941.31 252.5 937.55 250.55 933.99 248.41C925.29 255.14 912.58 260.3 894.04 260.3C885.24 260.3 877.25 259.13 870.17 256.81C863.32 258.98 856.17 260.08 848.81 260.08C833.92 260.08 819.82 256.63 807.2 249.99C806.79 250.3 806.37 250.6 805.94 250.9C796.23 257.61 784.8 260.7 769.84 260.7C764.02 260.7 757.55 260.25 750.03 259.33C746.38 258.86 742.87 258.21 739.52 257.4C734.27 267.82 727.06 277.16 718.13 285.03C698.62 302.16 676.12 310.85 651.17 310.85Z"/><path fill="#fff" d="M644.15 303.82C626.16 303.82 608.86 299.43 592.71 290.77C573.68 280.57 561.96 267.95 557.7 253.13C556.02 253.22 554.31 253.27 552.57 253.27C534.82 253.27 522.41 248.5 513.75 242.19C505.11 248.56 492.65 253.27 474.74 253.27C464.23 253.27 454.9 251.58 446.85 248.22C438.65 251.72 429.07 253.49 418.2 253.49C407.48 253.49 398.01 251.74 389.86 248.26C382.22 251.44 373.5 253.05 363.77 253.05C354.19 253.05 346.16 252.04 339.16 249.91C331.81 251.99 323.86 253.05 315.43 253.05C291.3 253.05 268.69 242.52 250.05 222.62C249.21 221.73 248.4 220.83 247.6 219.92C246.76 221.97 245.8 224.03 244.69 226.1L244.08 227.21C237.12 239.27 222.39 253.5 191.37 253.5C174.73 253.5 160.95 249.18 150.41 240.65C150.25 240.53 150.08 240.39 149.91 240.24C136.32 248.76 121.63 253.05 106.01 253.05C97.66 253.05 89.8 252.05 82.53 250.05C75.74 252.19 68.23 253.27 60.11 253.27C28.06 253.27 13.43 238.04 6.79999 225.26C6.50999 224.7 6.26001 224.18 6.01001 223.65C3.21001 217.64 1.45999 211.82 0.679993 205.91C0.209993 202.33 0 198.23 0 192.94V60.55C0 55.28 0.209983 51.18 0.669983 47.65C1.49998 41.39 3.46001 35.14 6.51001 29.02C13.35 15.83 28.09 0.440002 60.33 0.440002C92.6 0.440002 107.11 15.86 113.6 28.8C116.84 34.97 118.91 41.3 119.76 47.82C120.09 50.38 120.3 53.23 120.39 56.61C130.74 58.53 140.6 62.41 149.89 68.22C158.7 60.74 171.88 54.98 191.61 54.98C195.47 54.98 204.11 54.98 213.75 57.83C220.86 55.18 227.87 53.88 234.97 53.88C240.62 53.88 245.55 54.22 250.05 54.93C254.4 55.6 259.04 56.72 263.82 58.23C268.75 59.78 273.33 61.93 277.53 64.65C289.66 58.38 302.62 55.21 316.25 55.21C323.92 55.21 331.31 56.27 338.32 58.37C344.44 56.31 351.1 55.18 358.24 55.01C358.34 52.24 358.53 49.82 358.82 47.64C359.64 41.38 361.61 35.12 364.67 28.99C371.5 15.82 386.23 0.440002 418.47 0.440002C450.74 0.440002 465.25 15.86 471.74 28.8C474.98 34.97 477.05 41.3 477.9 47.82C478.18 49.97 478.37 52.32 478.48 55.02C483.36 55.15 490.86 55.72 498.88 58.34C505.79 56.11 513.02 54.99 520.48 54.99C543.34 54.99 563.81 62.86 580.29 77.88C597.3 62.87 617.16 54.99 638.23 54.99C645.55 54.99 652.63 55.97 659.36 57.93C665.32 55.91 671.86 54.79 678.89 54.58C679 51.89 679.18 49.53 679.47 47.4C680.25 41.47 682 35.65 684.81 29.59C685.06 29.06 685.34 28.49 685.62 27.94C692.22 15.23 706.88 0 739.11 0C770.13 0 784.79 14.66 791.63 26.96C795.51 34.24 797.72 40.93 798.57 47.74C798.85 49.99 799.04 52.47 799.14 55.34C802.42 54.96 805.84 54.77 809.41 54.77C827.02 54.77 839.38 59.57 848.03 65.89C856.67 59.52 869.18 54.77 887.25 54.77C906.49 54.77 919.45 60.26 928.17 67.41C944.49 57.53 963.23 52.55 984.15 52.55C1018.15 52.55 1046.3 66.75 1063.4 92.54C1072.94 107.14 1077.74 123.16 1077.74 140.27C1077.74 154.05 1074.65 166.43 1068.69 176.75C1070.89 183.21 1071.97 189.52 1071.97 195.82C1071.97 214.02 1063.39 256.37 983.93 256.37C967.31 256.37 951.94 253.29 938.23 247.22C934.29 245.47 930.53 243.52 926.97 241.38C918.27 248.11 905.56 253.27 887.02 253.27C878.22 253.27 870.23 252.1 863.15 249.78C856.3 251.95 849.15 253.05 841.79 253.05C826.9 253.05 812.8 249.6 800.18 242.96C799.77 243.27 799.35 243.57 798.92 243.87C789.21 250.58 777.78 253.67 762.82 253.67C757 253.67 750.53 253.22 743.01 252.3C739.36 251.83 735.85 251.18 732.5 250.37C727.25 260.79 720.04 270.13 711.11 278C691.6 295.13 669.09 303.82 644.15 303.82Z"/><path fill="#27272A" d="M1046.39 176.34C1046.01 175.59 1045.62 174.88 1045.23 174.18C1053.23 165.91 1057.28 154.52 1057.28 140.27C1057.28 127.19 1053.63 114.97 1046.34 103.82C1037 89.7399 1018.62 72.9599 984.1 72.9599C960.84 72.9599 940.99 80.4199 925.11 95.1399C924.76 95.4599 924.47 95.8199 924.13 96.1499C923.72 95.0999 923.27 94.0299 922.77 92.9499C922.65 92.6899 922.52 92.4399 922.4 92.1799C916.55 80.8999 904.71 75.1799 887.21 75.1799C869.57 75.1799 857.73 80.8199 852.02 91.9499C850.15 95.4899 848.89 98.8699 848.19 102.25C847.83 100.5 847.39 98.8799 846.85 97.3699C844 88.8499 835.37 75.1899 809.37 75.1899C795.62 75.1899 785.41 78.7099 778.78 85.5699V60.5599C778.78 56.1999 778.62 52.9199 778.29 50.2699C777.76 45.9799 776.34 41.7099 773.77 36.8899C767.69 25.9599 756.02 20.4199 739.08 20.4199C721.43 20.4199 709.52 26.1399 703.67 37.4099C703.53 37.6699 703.4 37.9399 703.28 38.1999C701.35 42.3499 700.17 46.2199 699.67 50.0499C699.33 52.6799 699.17 55.9499 699.17 60.3299V77.0299C694.49 75.6399 688.78 74.9599 681.22 74.9599C672.88 74.9599 665.79 76.5999 660.05 79.8499C653.34 76.8999 645.99 75.3999 638.2 75.3999C619.57 75.3999 602.66 83.2899 587.91 98.8399C584.86 102.05 582.21 105.42 579.8 108.88C577.69 105.6 575.4 102.41 572.77 99.3899C559.13 83.6999 541.04 75.3999 520.45 75.3999C512.71 75.3999 505.4 77.0699 498.63 80.3799C489.65 75.3999 479.28 75.3999 474.99 75.3999C467.51 75.3999 461.13 76.4799 455.75 78.4799C456.67 75.9799 457.32 73.5199 457.64 71.0799C457.98 68.4499 458.15 65.1699 458.15 60.7699C458.15 56.3799 457.99 53.1099 457.65 50.4699C457.11 46.3799 455.75 42.2799 453.48 37.9499C447.79 26.5999 436.01 20.8499 418.45 20.8499C400.8 20.8499 388.89 26.5699 382.9 38.1199C380.86 42.2099 379.55 46.2899 379.03 50.2699C378.69 52.9099 378.53 56.1799 378.53 60.5499C378.53 64.9299 378.69 68.1999 379.04 70.8599C379.36 73.3299 380.02 75.8099 380.94 78.3499C380.35 78.1199 379.76 77.8799 379.15 77.6899C374.22 76.1299 368.18 75.4099 360.13 75.4099C351.39 75.4099 344.38 77.2799 338.88 80.3199C338.59 80.1899 338.3 80.0599 338 79.9399C331.32 77.0799 323.99 75.6299 316.22 75.6299C301.45 75.6299 287.76 80.5699 275.34 90.2099C274.88 89.5799 274.41 88.9499 273.89 88.3499C269.53 83.2999 264.05 79.7199 257.62 77.6899C253.84 76.4899 250.21 75.6199 246.86 75.0999C243.42 74.5599 239.53 74.2999 234.94 74.2999C228.28 74.2999 221.51 76.1399 214.27 79.9199C205.48 75.3999 195.68 75.3999 191.59 75.3999C173.94 75.3999 162.02 81.1199 156.05 92.6599C155.23 94.2999 154.56 95.9399 153.98 97.5799C139.48 83.0599 122.99 75.6199 104.89 75.6199C103.21 75.6199 101.59 75.6799 100.02 75.7999V60.7699C100.02 56.3799 99.8599 53.1099 99.5199 50.4699C98.9799 46.3799 97.6199 42.2799 95.3499 37.9499C89.6599 26.5999 77.8799 20.8499 60.3199 20.8499C42.6799 20.8499 30.7599 26.5699 24.7599 38.1299C22.7199 42.2199 21.4199 46.2899 20.8999 50.2699C20.5599 52.9099 20.3999 56.1799 20.3999 60.5499V192.94C20.3999 197.32 20.5599 200.58 20.9099 203.25C21.4099 207.06 22.5999 210.93 24.5299 215.08C24.6499 215.34 24.7799 215.6 24.9099 215.86C30.7599 227.14 42.5999 232.86 60.0999 232.86C69.3999 232.86 76.5199 231.07 81.9499 228.36C88.3199 230.95 96.2199 232.64 106 232.64C123.43 232.64 139.49 225.32 153.83 211.05C156.05 217.31 159.56 221.57 162.62 224.26C162.82 224.44 163.03 224.61 163.24 224.78C170.15 230.37 179.35 233.09 191.37 233.09C208.46 233.09 220.22 227.72 226.34 217.12C226.46 216.92 226.57 216.71 226.68 216.51C229.04 212.07 230.46 207.88 231.01 203.68C231.35 201.05 231.51 197.78 231.51 193.4V153.94C235.24 155.35 239.14 156.11 243.13 156.28C243.65 176.08 250.94 193.71 264.95 208.66C279.85 224.57 296.84 232.64 315.44 232.64C325.22 232.64 333.16 230.89 339.59 228.19C345.62 231.25 353.31 232.64 363.79 232.64C376.33 232.64 384.57 229.13 389.97 224.66C396.56 230.21 405.97 233.08 418.22 233.08C430.68 233.08 440.18 230.21 446.74 224.63C453.32 230.05 462.65 232.86 474.76 232.86C492.31 232.86 504.11 227.2 509.85 216.05C511.73 212.65 513.04 209.23 513.76 205.87C514.09 207.54 514.51 209.1 515.01 210.58C517.72 219.15 526.19 232.86 552.6 232.86C563.52 232.86 572.22 230.66 578.71 226.26C577.16 230.61 576.32 235.19 576.32 239.95C576.32 258.81 595.25 268.97 602.38 272.79C615.53 279.84 629.59 283.42 644.18 283.42C664.01 283.42 681.98 276.45 697.58 262.69C709.44 252.24 717.15 238.9 720.42 223.54C727.02 227.85 735.34 230.73 745.46 232.04C752.14 232.86 757.8 233.26 762.78 233.26C773.4 233.26 781.11 231.35 787.16 227.17C791.52 224.11 794.45 220.13 796.41 215.79C808.99 226.8 824.46 232.65 841.75 232.65C849.39 232.65 856.64 231.02 863.4 227.78C869.51 231.16 877.39 232.87 886.99 232.87C903.94 232.87 915.63 227.49 921.79 216.82C922.5 215.57 923.11 214.33 923.67 213.08C929.83 219.37 937.45 224.58 946.47 228.58C957.55 233.49 970.15 235.98 983.9 235.98C1039.8 235.98 1051.54 214.15 1051.54 195.84C1051.54 189.88 1049.94 183.65 1046.64 176.8C1046.54 176.63 1046.47 176.48 1046.39 176.34Z"/><path fill="#fff" d="M104.86 96.0302C118.02 96.0302 130.1 101.87 141.12 113.55C152.13 125.23 157.64 138.79 157.64 154.24C157.64 169.69 152.17 183.22 141.23 194.82C130.29 206.43 118.54 212.23 105.97 212.23C93.3998 212.23 84.4598 208.68 79.1398 201.58C77.9598 208.83 71.5998 212.44 60.0698 212.44C50.7598 212.44 45.0598 210.45 42.9898 206.45C41.9498 204.23 41.3298 202.27 41.1098 200.57C40.8898 198.87 40.7798 196.32 40.7798 192.92V60.5502C40.7798 57.1502 40.8898 54.6002 41.1098 52.9002C41.3298 51.2002 41.9598 49.3202 42.9898 47.2502C45.0598 43.2602 50.8198 41.2603 60.2898 41.2603C69.5998 41.2603 75.2198 43.2602 77.1398 47.2502C78.3198 49.4702 79.0298 51.4302 79.2498 53.1302C79.4698 54.8302 79.5798 57.3802 79.5798 60.7802V106.91C85.4898 99.6502 93.9198 96.0302 104.86 96.0302ZM85.4598 167.66C89.0798 171.65 93.6298 173.65 99.0998 173.65C104.57 173.65 109.22 171.65 113.07 167.66C116.91 163.67 118.84 159.23 118.84 154.36C118.84 149.48 117.07 145.01 113.52 140.94C109.97 136.88 105.24 134.84 99.3298 134.84C93.4198 134.84 88.7198 136.91 85.2498 141.05C81.7798 145.19 80.0398 149.66 80.0398 154.47C80.0198 159.27 81.8298 163.67 85.4598 167.66Z"/><path fill="#fff" d="M251.44 97.14C254.25 98.03 256.58 99.54 258.43 101.69C260.28 103.83 261.2 107.27 261.2 112C261.2 116.73 259.79 121.91 256.99 127.52C254.18 133.14 250.12 135.94 244.79 135.94C242.13 135.94 239.58 135.35 237.14 134.17C234.7 132.99 231.49 132.4 227.49 132.4C223.49 132.4 219.76 133.81 216.29 136.61C212.82 139.42 211.08 142.82 211.08 146.81V193.38C211.08 196.78 210.97 199.33 210.75 201.03C210.53 202.73 209.82 204.69 208.64 206.91C206.42 210.76 200.66 212.68 191.34 212.68C184.24 212.68 179.14 211.42 176.04 208.91C173.67 206.84 172.34 203.66 172.05 199.38C172.05 197.9 172.05 195.76 172.05 192.95V115.11C172.05 111.71 172.16 109.16 172.38 107.46C172.6 105.76 173.23 103.88 174.26 101.81C176.33 97.82 182.09 95.82 191.56 95.82C200.43 95.82 205.98 97.52 208.19 100.92C209.81 103.29 210.63 105.73 210.63 108.24C211.37 107.21 212.44 105.95 213.85 104.47C215.25 102.99 218.25 101 222.83 98.48C227.41 95.97 231.44 94.71 234.92 94.71C238.39 94.71 241.31 94.9 243.68 95.27C246.04 95.63 248.63 96.26 251.44 97.14Z"/><path fill="#fff" d="M342.57 108.23C343.46 99.9501 349.3 95.8101 360.09 95.8101C365.85 95.8101 370.14 96.26 372.95 97.14C375.76 98.03 377.72 99.58 378.83 101.8C379.94 104.02 380.6 105.98 380.83 107.68C381.05 109.38 381.16 111.93 381.16 115.33V192.95C381.16 196.35 381.05 198.9 380.83 200.6C380.61 202.3 379.98 204.26 378.95 206.48C376.88 210.33 371.82 212.25 363.76 212.25C355.7 212.25 350.3 211.25 347.57 209.26C344.83 207.26 343.25 204.34 342.8 200.5C337.33 208.34 328.2 212.26 315.41 212.26C302.62 212.26 290.76 206.42 279.82 194.74C268.88 183.07 263.41 169.5 263.41 154.05C263.41 138.61 268.92 125.08 279.93 113.47C290.94 101.86 303.03 96.0601 316.19 96.0601C321.21 96.0601 325.8 96.9501 329.94 98.7201C334.08 100.49 336.96 102.16 338.59 103.71C340.21 105.23 341.54 106.75 342.57 108.23ZM302.22 154.35C302.22 159.22 304.14 163.63 307.98 167.54C311.82 171.46 316.48 173.42 321.95 173.42C327.42 173.42 331.96 171.42 335.59 167.43C339.21 163.44 341.02 159.04 341.02 154.24C341.02 149.44 339.28 144.96 335.81 140.82C332.34 136.68 327.68 134.61 321.84 134.61C316 134.61 311.27 136.68 307.65 140.82C304.02 144.97 302.22 149.48 302.22 154.35Z"/><path fill="#fff" d="M435.37 74.1902C434.26 76.3302 432.3 77.8502 429.49 78.7402C426.68 79.6302 422.95 80.0703 418.29 80.0703C413.63 80.0703 409.9 79.6302 407.09 78.7402C404.28 77.8502 402.32 76.3002 401.21 74.0802C400.1 71.8602 399.44 69.9102 399.21 68.2002C398.99 66.5002 398.88 63.9502 398.88 60.5502C398.88 57.1502 398.99 54.6002 399.21 52.9002C399.43 51.2002 400.06 49.3202 401.09 47.2502C403.16 43.2602 408.92 41.2603 418.39 41.2603C427.7 41.2603 433.32 43.2602 435.24 47.2502C436.42 49.4702 437.13 51.4302 437.35 53.1302C437.57 54.8302 437.68 57.3802 437.68 60.7802C437.68 64.1802 437.57 66.7302 437.35 68.4302C437.15 70.1302 436.48 72.0502 435.37 74.1902ZM398.9 115.32C398.9 111.92 399.01 109.37 399.23 107.67C399.45 105.97 400.08 104.01 401.11 101.79C403.18 97.9503 408.94 96.0202 418.41 96.0202C425.51 96.0202 430.53 97.2803 433.49 99.7903C436 101.86 437.33 105.04 437.48 109.33C437.63 110.81 437.7 112.95 437.7 115.76V193.37C437.7 196.77 437.59 199.32 437.37 201.02C437.15 202.72 436.45 204.68 435.26 206.9C433.34 210.75 427.65 212.67 418.19 212.67C408.88 212.67 403.18 210.67 401.11 206.68C400.07 204.46 399.45 202.55 399.23 200.92C399.01 199.3 398.9 196.71 398.9 193.16V115.32Z"/><path fill="#fff" d="M520.41 95.8101C535.19 95.8101 547.5 101.47 557.33 112.78C567.16 124.09 572.08 137.88 572.08 154.14V193.17C572.08 196.57 571.97 199.12 571.75 200.82C571.53 202.52 570.9 204.41 569.86 206.48C567.79 210.47 562.02 212.47 552.56 212.47C542.06 212.47 536 209.74 534.38 204.26C533.49 201.75 533.05 197.98 533.05 192.95V153.92C533.05 147.86 531.31 143.13 527.84 139.73C524.37 136.33 519.71 134.63 513.87 134.63C508.03 134.63 503.3 136.4 499.68 139.95C496.06 143.5 494.25 148.16 494.25 153.92V193.17C494.25 196.57 494.14 199.12 493.92 200.82C493.7 202.52 493 204.41 491.81 206.48C489.89 210.47 484.2 212.47 474.74 212.47C465.43 212.47 459.73 210.48 457.66 206.48C456.62 204.26 456 202.3 455.78 200.6C455.56 198.9 455.45 196.35 455.45 192.95V114.45C455.45 111.2 455.56 108.72 455.78 107.02C456 105.32 456.7 103.44 457.89 101.36C459.96 97.67 465.65 95.8201 474.96 95.8201C483.98 95.8201 489.52 97.52 491.59 100.92C493.07 103.44 493.81 106.46 493.81 110.01C494.4 108.98 495.73 107.5 497.8 105.57C499.87 103.65 501.86 102.1 503.79 100.91C508.81 97.5101 514.35 95.8101 520.41 95.8101Z"/><path fill="#fff" d="M663.89 198.04C658.27 205.44 649.33 209.13 637.06 209.13C624.79 209.13 613.3 203.48 602.58 192.17C591.86 180.86 586.5 167.67 586.5 152.59C586.5 137.51 591.9 124.28 602.69 112.9C613.48 101.52 625.31 95.8201 638.17 95.8201C643.19 95.8201 647.78 96.7501 651.92 98.5901C656.06 100.44 658.91 102.14 660.46 103.69C662.01 105.24 663.23 106.68 664.12 108.01C664.56 103.87 666.08 100.73 668.67 98.5801C671.26 96.4401 675.43 95.3701 681.2 95.3701C686.96 95.3701 691.18 95.8101 693.84 96.7001C696.5 97.5901 698.39 99.1101 699.49 101.25C700.6 103.39 701.26 105.28 701.49 106.91C701.71 108.53 701.82 111.05 701.82 114.45V206.26C701.82 223.26 695.91 236.97 684.08 247.39C672.25 257.81 658.95 263.02 644.17 263.02C632.93 263.02 622.22 260.28 612.02 254.82C601.82 249.35 596.72 244.4 596.72 239.96C596.72 234.19 598.94 229.1 603.37 224.66C606.18 221.56 608.36 219.41 609.91 218.23C611.46 217.05 613.27 216.46 615.34 216.46C617.41 216.46 619.55 217.35 621.77 219.12C628.87 224.59 636.55 227.33 644.83 227.33C650.45 227.33 655.03 225.11 658.58 220.68C662.13 216.25 663.9 210.92 663.9 204.71V198.04H663.89ZM624.41 152.69C624.41 157.5 626.29 161.82 630.06 165.66C633.83 169.51 638.41 171.43 643.81 171.43C649.2 171.43 653.68 169.47 657.22 165.55C660.77 161.64 662.54 157.34 662.54 152.69C662.54 148.04 660.84 143.67 657.44 139.61C654.04 135.55 649.46 133.51 643.69 133.51C637.92 133.51 633.27 135.51 629.72 139.5C626.19 143.49 624.41 147.89 624.41 152.69Z"/><path fill="#fff" d="M719.54 60.33C719.54 56.93 719.65 54.3801 719.87 52.6801C720.09 50.9801 720.72 49.02 721.75 46.8C723.82 42.81 729.58 40.8101 739.05 40.8101C748.07 40.8101 753.69 42.8 755.9 46.8C757.08 49.02 757.79 51.0101 758.01 52.7901C758.23 54.5601 758.34 57.15 758.34 60.55V163.22C758.34 168.54 758.78 171.9 759.67 173.31C760.56 174.72 762.51 175.42 765.55 175.42C768.58 175.42 770.61 175.53 771.65 175.75C772.68 175.97 773.94 176.61 775.42 177.64C778.38 179.56 779.86 184.81 779.86 193.38C779.86 202.69 778.38 208.39 775.42 210.46C771.57 213.12 762.41 213.56 747.92 211.79C736.54 210.32 729.14 206.55 725.74 200.48C721.6 193.24 719.53 181.71 719.53 165.89V60.33H719.54Z"/><path fill="#fff" d="M841.73 212.23C826.8 212.23 814.42 206.57 804.59 195.26C794.76 183.95 789.84 170.17 789.84 153.9V115.09C789.84 111.54 789.95 108.96 790.17 107.33C790.39 105.71 791.02 103.78 792.05 101.56C794.12 97.5703 799.88 95.5703 809.35 95.5703C819.7 95.5703 825.76 98.3803 827.53 103.99C828.42 106.36 828.86 110.12 828.86 115.3V154.11C828.86 160.17 830.6 164.9 834.07 168.3C837.54 171.7 842.2 173.4 848.04 173.4C853.88 173.4 858.61 171.63 862.23 168.08C865.85 164.53 867.66 159.88 867.66 154.11V114.86C867.66 111.46 867.77 108.91 867.99 107.21C868.21 105.51 868.91 103.55 870.1 101.33C872.02 97.4903 877.71 95.5703 887.18 95.5703C896.49 95.5703 902.18 97.5603 904.25 101.56C905.28 103.78 905.91 105.74 906.14 107.44C906.36 109.14 906.47 111.69 906.47 115.09V193.59C906.47 196.84 906.36 199.32 906.14 201.02C905.92 202.72 905.21 204.61 904.03 206.67C901.81 210.52 896.12 212.44 886.95 212.44C877.93 212.44 872.39 210.67 870.32 207.12C868.84 204.61 868.1 201.58 868.1 198.03C867.51 199.07 866.18 200.55 864.11 202.47C862.04 204.39 860.04 206.02 858.12 207.35C853.11 210.61 847.64 212.23 841.73 212.23Z"/><path fill="#fff" d="M1036.87 140.27C1036.87 149.36 1034.61 156.09 1030.1 160.45C1025.59 164.81 1020.6 166.99 1015.13 166.99H962.57C962.57 171.13 965.01 174.6 969.89 177.41C974.77 180.22 979.65 181.62 984.53 181.62C993.1 181.62 999.83 180.73 1004.71 178.96L1007.15 178.07C1010.7 176.45 1013.65 175.63 1016.02 175.63C1020.75 175.63 1024.81 178.96 1028.21 185.61C1030.13 189.6 1031.09 193 1031.09 195.81C1031.09 208.97 1015.35 215.54 983.86 215.54C972.92 215.54 963.2 213.66 954.7 209.89C946.2 206.12 939.58 201.13 934.85 194.92C925.54 182.95 920.88 169.57 920.88 154.78C920.88 136.15 926.9 121.26 938.95 110.1C951 98.9399 966.04 93.3599 984.08 93.3599C1004.63 93.3599 1019.71 100.61 1029.32 115.09C1034.35 122.79 1036.87 131.18 1036.87 140.27ZM990.08 146.81C995.7 146.81 998.51 144.45 998.51 139.71C998.51 136.31 997.22 133.58 994.63 131.5C992.04 129.43 988.35 128.4 983.54 128.4C978.73 128.4 973.97 130.36 969.24 134.28C964.51 138.2 962.14 142.37 962.14 146.81H990.08Z"/></svg>