<svg xmlns="http://www.w3.org/2000/svg" width="944" height="288" fill="none" viewBox="0 0 944 288"><g filter="url(#filter0_d_38_5124)"><mask id="mask0_38_5124" style="mask-type:alpha" width="879" height="224" x="33" y="28" maskUnits="userSpaceOnUse"><rect width="878.753" height="223.412" x="33.242" y="28" fill="#000" rx="111.706"/></mask><g mask="url(#mask0_38_5124)"><rect width="36.293" height="33.563" x="634.565" y="29.835" fill="#182A4E" stroke="#1A1A1A" stroke-width="3.673"/><rect width="36.293" height="33.563" x="674.529" y="104.306" fill="#182A4E" stroke="#1A1A1A" stroke-width="3.673"/><rect width="36.293" height="33.563" x="714.5" y="67.07" fill="#182A4E" stroke="#1A1A1A" stroke-width="3.673"/><rect width="36.293" height="33.563" x="794.426" y="104.306" fill="#182A4E" stroke="#1A1A1A" stroke-width="3.673"/><rect width="36.293" height="33.563" x="754.461" y="29.834" fill="#182A4E" stroke="#1A1A1A" stroke-width="3.673"/><rect width="36.293" height="33.563" x="634.565" y="67.07" fill="#B17102" stroke="#1A1A1A" stroke-width="3.673"/><rect width="36.293" height="33.563" x="754.461" y="67.07" fill="#B17102" stroke="#1A1A1A" stroke-width="3.673"/><rect width="36.293" height="33.563" x="674.529" y="29.834" fill="#B17102" stroke="#1A1A1A" stroke-width="3.673"/><rect width="36.293" height="33.563" x="714.5" y="104.306" fill="#B17102" stroke="#1A1A1A" stroke-width="3.673"/><rect width="36.293" height="33.563" x="794.426" y="29.834" fill="#B17102" stroke="#1A1A1A" stroke-width="3.673"/><rect width="36.293" height="33.563" x="634.565" y="104.306" fill="#A01A12" stroke="#1A1A1A" stroke-width="3.673"/><rect width="36.293" height="33.563" x="674.529" y="67.07" fill="#A01A12" stroke="#1A1A1A" stroke-width="3.673"/><rect width="36.293" height="33.563" x="794.426" y="67.07" fill="#A01A12" stroke="#1A1A1A" stroke-width="3.673"/><rect width="36.293" height="33.563" x="754.461" y="104.306" fill="#A01A12" stroke="#1A1A1A" stroke-width="3.673"/><rect width="36.293" height="33.563" x="714.5" y="29.834" fill="#A01A12" stroke="#1A1A1A" stroke-width="3.673"/><rect width="36.293" height="33.563" x="35.086" y="29.834" fill="#182A4E" stroke="#1A1A1A" stroke-width="3.673"/><rect width="36.293" height="33.563" x="75.051" y="104.306" fill="#182A4E" stroke="#1A1A1A" stroke-width="3.673"/><rect width="36.293" height="33.563" x="115.018" y="67.07" fill="#182A4E" stroke="#1A1A1A" stroke-width="3.673"/><rect width="36.293" height="33.563" x="194.95" y="104.306" fill="#182A4E" stroke="#1A1A1A" stroke-width="3.673"/><rect width="36.293" height="33.563" x="154.983" y="29.834" fill="#182A4E" stroke="#1A1A1A" stroke-width="3.673"/><rect width="36.293" height="33.563" x="35.086" y="67.07" fill="#B17102" stroke="#1A1A1A" stroke-width="3.673"/><rect width="36.293" height="33.563" x="154.983" y="67.07" fill="#B17102" stroke="#1A1A1A" stroke-width="3.673"/><rect width="36.293" height="33.563" x="75.051" y="29.834" fill="#B17102" stroke="#1A1A1A" stroke-width="3.673"/><rect width="36.293" height="33.563" x="115.018" y="104.306" fill="#B17102" stroke="#1A1A1A" stroke-width="3.673"/><rect width="36.293" height="33.563" x="194.95" y="29.834" fill="#B17102" stroke="#1A1A1A" stroke-width="3.673"/><rect width="36.293" height="33.563" x="35.086" y="104.306" fill="#A01A12" stroke="#1A1A1A" stroke-width="3.673"/><rect width="36.293" height="33.563" x="75.051" y="67.07" fill="#A01A12" stroke="#1A1A1A" stroke-width="3.673"/><rect width="36.293" height="33.563" x="194.95" y="67.07" fill="#A01A12" stroke="#1A1A1A" stroke-width="3.673"/><rect width="36.293" height="33.563" x="154.983" y="104.306" fill="#A01A12" stroke="#1A1A1A" stroke-width="3.673"/><rect width="36.293" height="33.563" x="115.018" y="29.834" fill="#A01A12" stroke="#1A1A1A" stroke-width="3.673"/><rect width="36.293" height="33.563" x="35.086" y="141.54" fill="#182A4E" stroke="#1A1A1A" stroke-width="3.673"/><rect width="36.293" height="33.563" x="75.051" y="216.012" fill="#182A4E" stroke="#1A1A1A" stroke-width="3.673"/><rect width="36.293" height="33.563" x="115.018" y="178.776" fill="#182A4E" stroke="#1A1A1A" stroke-width="3.673"/><rect width="36.293" height="33.563" x="194.95" y="216.012" fill="#182A4E" stroke="#1A1A1A" stroke-width="3.673"/><rect width="36.293" height="33.563" x="154.983" y="141.54" fill="#182A4E" stroke="#1A1A1A" stroke-width="3.673"/><rect width="36.293" height="33.563" x="35.086" y="178.776" fill="#B17102" stroke="#1A1A1A" stroke-width="3.673"/><rect width="36.293" height="33.563" x="154.983" y="178.776" fill="#B17102" stroke="#1A1A1A" stroke-width="3.673"/><rect width="36.293" height="33.563" x="75.051" y="141.54" fill="#B17102" stroke="#1A1A1A" stroke-width="3.673"/><rect width="36.293" height="33.563" x="115.018" y="216.012" fill="#B17102" stroke="#1A1A1A" stroke-width="3.673"/><rect width="36.293" height="33.563" x="194.95" y="141.54" fill="#B17102" stroke="#1A1A1A" stroke-width="3.673"/><rect width="36.293" height="33.563" x="35.086" y="216.012" fill="#A01A12" stroke="#1A1A1A" stroke-width="3.673"/><rect width="36.293" height="33.563" x="75.051" y="178.776" fill="#A01A12" stroke="#1A1A1A" stroke-width="3.673"/><rect width="36.293" height="33.563" x="194.95" y="178.776" fill="#A01A12" stroke="#1A1A1A" stroke-width="3.673"/><rect width="36.293" height="33.563" x="154.983" y="216.012" fill="#A01A12" stroke="#1A1A1A" stroke-width="3.673"/><rect width="36.293" height="33.563" x="115.018" y="141.54" fill="#A01A12" stroke="#1A1A1A" stroke-width="3.673"/><rect width="36.293" height="33.563" x="234.913" y="29.834" fill="#182A4E" stroke="#1A1A1A" stroke-width="3.673"/><rect width="36.293" height="33.563" x="274.877" y="104.306" fill="#182A4E" stroke="#1A1A1A" stroke-width="3.673"/><rect width="36.293" height="33.563" x="314.844" y="67.07" fill="#182A4E" stroke="#1A1A1A" stroke-width="3.673"/><rect width="36.293" height="33.563" x="394.776" y="104.306" fill="#182A4E" stroke="#1A1A1A" stroke-width="3.673"/><rect width="36.293" height="33.563" x="354.809" y="29.834" fill="#182A4E" stroke="#1A1A1A" stroke-width="3.673"/><rect width="36.293" height="33.563" x="234.913" y="67.07" fill="#B17102" stroke="#1A1A1A" stroke-width="3.673"/><rect width="36.293" height="33.563" x="354.809" y="67.07" fill="#B17102" stroke="#1A1A1A" stroke-width="3.673"/><rect width="36.293" height="33.563" x="274.877" y="29.834" fill="#B17102" stroke="#1A1A1A" stroke-width="3.673"/><rect width="36.293" height="33.563" x="314.844" y="104.306" fill="#B17102" stroke="#1A1A1A" stroke-width="3.673"/><rect width="36.293" height="33.563" x="394.776" y="29.834" fill="#B17102" stroke="#1A1A1A" stroke-width="3.673"/><rect width="36.293" height="33.563" x="234.913" y="104.306" fill="#A01A12" stroke="#1A1A1A" stroke-width="3.673"/><rect width="36.293" height="33.563" x="274.877" y="67.07" fill="#A01A12" stroke="#1A1A1A" stroke-width="3.673"/><rect width="36.293" height="33.563" x="394.776" y="67.07" fill="#A01A12" stroke="#1A1A1A" stroke-width="3.673"/><rect width="36.293" height="33.563" x="354.809" y="104.306" fill="#A01A12" stroke="#1A1A1A" stroke-width="3.673"/><rect width="36.293" height="33.563" x="314.844" y="29.834" fill="#A01A12" stroke="#1A1A1A" stroke-width="3.673"/><rect width="36.293" height="33.563" x="234.913" y="141.54" fill="#182A4E" stroke="#1A1A1A" stroke-width="3.673"/><rect width="36.293" height="33.563" x="274.877" y="216.012" fill="#182A4E" stroke="#1A1A1A" stroke-width="3.673"/><rect width="36.293" height="33.563" x="314.844" y="178.776" fill="#182A4E" stroke="#1A1A1A" stroke-width="3.673"/><rect width="36.293" height="33.563" x="394.776" y="216.012" fill="#182A4E" stroke="#1A1A1A" stroke-width="3.673"/><rect width="36.293" height="33.563" x="354.809" y="141.54" fill="#182A4E" stroke="#1A1A1A" stroke-width="3.673"/><rect width="36.293" height="33.563" x="234.913" y="178.776" fill="#B17102" stroke="#1A1A1A" stroke-width="3.673"/><rect width="36.293" height="33.563" x="354.809" y="178.776" fill="#B17102" stroke="#1A1A1A" stroke-width="3.673"/><rect width="36.293" height="33.563" x="274.877" y="141.54" fill="#B17102" stroke="#1A1A1A" stroke-width="3.673"/><rect width="36.293" height="33.563" x="314.844" y="216.012" fill="#B17102" stroke="#1A1A1A" stroke-width="3.673"/><rect width="36.293" height="33.563" x="394.776" y="141.54" fill="#B17102" stroke="#1A1A1A" stroke-width="3.673"/><rect width="36.293" height="33.563" x="234.913" y="216.012" fill="#A01A12" stroke="#1A1A1A" stroke-width="3.673"/><rect width="36.293" height="33.563" x="274.877" y="178.776" fill="#A01A12" stroke="#1A1A1A" stroke-width="3.673"/><rect width="36.293" height="33.563" x="394.776" y="178.776" fill="#A01A12" stroke="#1A1A1A" stroke-width="3.673"/><rect width="36.293" height="33.563" x="354.809" y="216.012" fill="#A01A12" stroke="#1A1A1A" stroke-width="3.673"/><rect width="36.293" height="33.563" x="314.844" y="141.54" fill="#A01A12" stroke="#1A1A1A" stroke-width="3.673"/><rect width="36.293" height="33.563" x="434.737" y="29.834" fill="#182A4E" stroke="#1A1A1A" stroke-width="3.673"/><rect width="36.293" height="33.563" x="474.702" y="104.306" fill="#182A4E" stroke="#1A1A1A" stroke-width="3.673"/><rect width="36.293" height="33.563" x="514.672" y="67.07" fill="#182A4E" stroke="#1A1A1A" stroke-width="3.673"/><rect width="36.293" height="33.563" x="594.6" y="104.306" fill="#182A4E" stroke="#1A1A1A" stroke-width="3.673"/><rect width="36.293" height="33.563" x="554.633" y="29.834" fill="#182A4E" stroke="#1A1A1A" stroke-width="3.673"/><rect width="36.293" height="33.563" x="434.737" y="67.07" fill="#B17102" stroke="#1A1A1A" stroke-width="3.673"/><rect width="36.293" height="33.563" x="554.633" y="67.07" fill="#B17102" stroke="#1A1A1A" stroke-width="3.673"/><rect width="36.293" height="33.563" x="474.702" y="29.834" fill="#B17102" stroke="#1A1A1A" stroke-width="3.673"/><rect width="36.293" height="33.563" x="514.672" y="104.306" fill="#B17102" stroke="#1A1A1A" stroke-width="3.673"/><rect width="36.293" height="33.563" x="594.6" y="29.834" fill="#B17102" stroke="#1A1A1A" stroke-width="3.673"/><rect width="36.293" height="33.563" x="434.737" y="104.306" fill="#A01A12" stroke="#1A1A1A" stroke-width="3.673"/><rect width="36.293" height="33.563" x="474.702" y="67.07" fill="#A01A12" stroke="#1A1A1A" stroke-width="3.673"/><rect width="36.293" height="33.563" x="594.6" y="67.07" fill="#A01A12" stroke="#1A1A1A" stroke-width="3.673"/><rect width="36.293" height="33.563" x="554.633" y="104.306" fill="#A01A12" stroke="#1A1A1A" stroke-width="3.673"/><rect width="36.293" height="33.563" x="514.672" y="29.834" fill="#A01A12" stroke="#1A1A1A" stroke-width="3.673"/><rect width="36.293" height="33.563" x="434.737" y="141.54" fill="#182A4E" stroke="#1A1A1A" stroke-width="3.673"/><rect width="36.293" height="33.563" x="474.702" y="216.012" fill="#182A4E" stroke="#1A1A1A" stroke-width="3.673"/><rect width="36.293" height="33.563" x="514.672" y="178.776" fill="#182A4E" stroke="#1A1A1A" stroke-width="3.673"/><rect width="36.293" height="33.563" x="594.6" y="216.012" fill="#182A4E" stroke="#1A1A1A" stroke-width="3.673"/><rect width="36.293" height="33.563" x="554.633" y="141.54" fill="#182A4E" stroke="#1A1A1A" stroke-width="3.673"/><rect width="36.293" height="33.563" x="434.737" y="178.776" fill="#B17102" stroke="#1A1A1A" stroke-width="3.673"/><rect width="36.293" height="33.563" x="554.633" y="178.776" fill="#B17102" stroke="#1A1A1A" stroke-width="3.673"/><rect width="36.293" height="33.563" x="474.702" y="141.54" fill="#B17102" stroke="#1A1A1A" stroke-width="3.673"/><rect width="36.293" height="33.563" x="514.672" y="216.012" fill="#B17102" stroke="#1A1A1A" stroke-width="3.673"/><rect width="36.293" height="33.563" x="594.6" y="141.54" fill="#B17102" stroke="#1A1A1A" stroke-width="3.673"/><rect width="36.293" height="33.563" x="434.737" y="216.012" fill="#A01A12" stroke="#1A1A1A" stroke-width="3.673"/><rect width="36.293" height="33.563" x="474.702" y="178.776" fill="#A01A12" stroke="#1A1A1A" stroke-width="3.673"/><rect width="36.293" height="33.563" x="594.6" y="178.776" fill="#A01A12" stroke="#1A1A1A" stroke-width="3.673"/><rect width="36.293" height="33.563" x="554.633" y="216.012" fill="#A01A12" stroke="#1A1A1A" stroke-width="3.673"/><rect width="36.293" height="33.563" x="514.672" y="141.54" fill="#A01A12" stroke="#1A1A1A" stroke-width="3.673"/><rect width="36.293" height="33.563" x="634.567" y="141.541" fill="#182A4E" stroke="#1A1A1A" stroke-width="3.673"/><rect width="36.293" height="33.563" x="674.532" y="216.012" fill="#182A4E" stroke="#1A1A1A" stroke-width="3.673"/><rect width="36.293" height="33.563" x="714.502" y="178.776" fill="#182A4E" stroke="#1A1A1A" stroke-width="3.673"/><rect width="36.293" height="33.563" x="794.428" y="216.012" fill="#182A4E" stroke="#1A1A1A" stroke-width="3.673"/><rect width="36.293" height="33.563" x="754.463" y="141.54" fill="#182A4E" stroke="#1A1A1A" stroke-width="3.673"/><rect width="36.293" height="33.563" x="634.567" y="178.776" fill="#B17102" stroke="#1A1A1A" stroke-width="3.673"/><rect width="36.293" height="33.563" x="754.463" y="178.776" fill="#B17102" stroke="#1A1A1A" stroke-width="3.673"/><rect width="36.293" height="33.563" x="674.532" y="141.54" fill="#B17102" stroke="#1A1A1A" stroke-width="3.673"/><rect width="36.293" height="33.563" x="714.502" y="216.012" fill="#B17102" stroke="#1A1A1A" stroke-width="3.673"/><rect width="36.293" height="33.563" x="794.428" y="141.54" fill="#B17102" stroke="#1A1A1A" stroke-width="3.673"/><rect width="36.293" height="33.563" x="634.567" y="216.012" fill="#A01A12" stroke="#1A1A1A" stroke-width="3.673"/><rect width="36.293" height="33.563" x="674.532" y="178.776" fill="#A01A12" stroke="#1A1A1A" stroke-width="3.673"/><rect width="36.293" height="33.563" x="794.428" y="178.776" fill="#A01A12" stroke="#1A1A1A" stroke-width="3.673"/><rect width="36.293" height="33.563" x="754.463" y="216.012" fill="#A01A12" stroke="#1A1A1A" stroke-width="3.673"/><rect width="36.293" height="33.563" x="714.502" y="141.54" fill="#A01A12" stroke="#1A1A1A" stroke-width="3.673"/><rect width="36.293" height="33.563" x="834.403" y="29.836" fill="#182A4E" stroke="#1A1A1A" stroke-width="3.673"/><rect width="36.293" height="33.563" x="874.368" y="104.307" fill="#182A4E" stroke="#1A1A1A" stroke-width="3.673"/><rect width="36.293" height="33.563" x="834.403" y="67.07" fill="#B17102" stroke="#1A1A1A" stroke-width="3.673"/><rect width="36.293" height="33.563" x="874.368" y="29.835" fill="#B17102" stroke="#1A1A1A" stroke-width="3.673"/><rect width="36.293" height="33.563" x="834.403" y="104.307" fill="#A01A12" stroke="#1A1A1A" stroke-width="3.673"/><rect width="36.293" height="33.563" x="874.368" y="67.07" fill="#A01A12" stroke="#1A1A1A" stroke-width="3.673"/><rect width="36.293" height="33.563" x="834.403" y="141.542" fill="#182A4E" stroke="#1A1A1A" stroke-width="3.673"/><rect width="36.293" height="33.563" x="874.368" y="216.013" fill="#182A4E" stroke="#1A1A1A" stroke-width="3.673"/><rect width="36.293" height="33.563" x="834.403" y="178.776" fill="#B17102" stroke="#1A1A1A" stroke-width="3.673"/><rect width="36.293" height="33.563" x="874.368" y="141.541" fill="#B17102" stroke="#1A1A1A" stroke-width="3.673"/><rect width="36.293" height="33.563" x="834.403" y="216.013" fill="#A01A12" stroke="#1A1A1A" stroke-width="3.673"/><rect width="36.293" height="33.563" x="874.368" y="178.776" fill="#A01A12" stroke="#1A1A1A" stroke-width="3.673"/></g><path fill="#fff" d="M159.959 99.1888C168.664 99.1888 175.38 100.025 180.108 101.697C184.835 103.311 187.199 106.049 187.199 109.912C187.199 114.005 185.556 118.156 182.27 122.364C169.817 116.888 160.276 114.149 153.646 114.149C150.129 114.149 147.506 114.812 145.777 116.138C144.105 117.464 143.269 119.367 143.269 121.846C143.269 124.44 144.393 126.688 146.642 128.591C148.948 130.493 154.223 132.914 162.467 135.855C172.094 139.141 178.926 142.744 182.961 146.664C187.055 150.584 189.101 155.744 189.101 162.143C189.101 170.791 185.556 177.421 178.465 182.033C171.431 186.645 161.89 188.951 149.841 188.951C138.715 188.951 130.788 188.201 126.06 186.702C121.333 185.146 118.94 181.975 118.883 177.19C118.883 173.616 120.295 170.099 123.12 166.64C134.593 171.54 144.768 173.99 153.646 173.99C157.278 173.99 160.103 173.385 162.121 172.174C164.139 170.964 165.147 168.946 165.147 166.121C165.147 162.835 163.36 160.212 159.786 158.252C156.269 156.292 150.591 153.813 142.75 150.815C134.333 147.587 128.309 144.127 124.677 140.438C121.102 136.691 119.315 131.906 119.315 126.083C119.315 117.896 122.89 111.382 130.038 106.539C137.245 101.639 147.218 99.1888 159.959 99.1888Z"/><path fill="#fff" d="M238.095 114.149C233.829 114.149 230.572 115.879 228.323 119.338C226.075 122.797 224.922 128.821 224.864 137.411H229.447C235.847 137.411 240.718 137.238 244.062 136.892C247.463 136.489 249.452 135.855 250.029 134.99C250.605 134.067 250.893 132.569 250.893 130.493C250.893 125.305 249.769 121.298 247.521 118.473C245.273 115.59 242.131 114.149 238.095 114.149ZM241.554 99.1888C253.545 99.1888 262.251 101.927 267.67 107.404C273.089 112.823 275.798 121.413 275.798 133.174C275.798 138.997 274.645 143.147 272.339 145.626C270.033 148.105 264.989 149.345 257.206 149.345H225.037C225.21 156.897 226.911 162.835 230.139 167.159C233.368 171.425 239.046 173.558 247.175 173.558C255.131 173.558 263.317 171.252 271.734 166.64C274.732 169.58 276.231 172.751 276.231 176.152C276.231 180.764 272.829 183.993 266.027 185.838C259.282 187.625 251.355 188.518 242.246 188.518C226.565 188.518 215.179 185.348 208.088 179.006C200.997 172.665 197.451 162.201 197.451 147.615C197.451 132.453 201.429 120.606 209.385 112.074C217.398 103.484 228.121 99.1888 241.554 99.1888Z"/><path fill="#fff" d="M294.266 145.54C294.266 119.367 294.151 102.936 293.92 96.2487C293.69 89.5612 293.257 85.0068 292.623 82.5855C291.989 80.1065 290.865 78.5211 289.251 77.8293C287.694 77.0799 285.648 76.7051 283.111 76.7051C282.073 74.3414 281.554 71.9778 281.554 69.6141C281.554 67.1928 282.448 65.665 284.235 65.0309C286.08 64.3391 291.903 63.9932 301.703 63.9932C307.814 63.9932 311.994 64.2526 314.242 64.7714C316.491 65.2327 317.759 66.1262 318.047 67.4522C318.393 68.7782 318.566 70.6518 318.566 73.0731V139.573C318.566 156.061 318.71 167.995 318.998 175.374H330.067C331.047 177.277 331.537 179.41 331.537 181.773C331.537 183.791 331.105 185.204 330.24 186.011C329.433 186.818 327.819 187.221 325.398 187.221H283.111C282.073 184.8 281.554 182.523 281.554 180.39C281.554 178.603 281.958 177.334 282.765 176.585C283.572 175.778 284.869 175.374 286.656 175.374H293.747C294.093 167.995 294.266 158.05 294.266 145.54Z"/><path fill="#fff" d="M384.423 175.374C385.403 177.277 385.893 179.41 385.893 181.773C385.893 183.791 385.489 185.204 384.682 186.011C383.875 186.818 382.232 187.221 379.753 187.221H334.785C333.805 184.8 333.315 182.523 333.315 180.39C333.315 178.603 333.719 177.334 334.526 176.585C335.333 175.778 336.63 175.374 338.417 175.374H345.508C345.797 167.995 345.941 160.126 345.941 151.766V114.582H334.785C333.748 112.103 333.229 109.595 333.229 107.058C333.229 105.098 333.604 103.714 334.353 102.907C335.16 102.1 336.486 101.697 338.331 101.697H345.941C346.287 87.5723 349.688 77.7717 356.145 72.2949C362.659 66.7604 373.065 63.9932 387.363 63.9932C395.664 63.9932 401.718 64.8003 405.523 66.4145C409.385 67.9711 411.317 70.5653 411.317 74.1973C411.317 77.8293 409.789 81.6054 406.733 85.5257C395.146 80.5677 386.642 78.0887 381.223 78.0887C376.611 78.0887 373.642 79.6165 372.316 82.672C370.99 85.6698 370.327 90.5413 370.327 97.2864V101.697H393.762C394.742 104.003 395.232 106.453 395.232 109.047C395.232 111.238 394.829 112.708 394.021 113.457C393.214 114.207 391.658 114.582 389.352 114.582H370.327V151.766C370.327 160.126 370.471 167.995 370.759 175.374H384.423Z"/><path fill="#fff" d="M441.199 111.641C437.106 111.641 434.051 112.939 432.033 115.533C430.015 118.127 429.006 123.258 429.006 130.925C429.006 138.017 430.044 142.917 432.119 145.626C434.195 148.278 437.308 149.604 441.459 149.604C445.667 149.604 448.78 148.336 450.798 145.799C452.816 143.205 453.825 138.074 453.825 130.407C453.825 123.834 452.758 119.078 450.625 116.138C448.55 113.14 445.408 111.641 441.199 111.641ZM473.455 110.69C476.28 116.686 477.692 122.595 477.692 128.418C477.692 138.68 474.291 146.866 467.488 152.977C460.685 159.03 450.683 162.057 437.481 162.057C431.773 162.057 428.17 162.605 426.671 163.7C425.23 164.795 424.509 166.467 424.509 168.715C424.509 170.964 425.403 172.665 427.19 173.818C428.977 174.913 438.23 175.461 454.949 175.461C469.534 175.461 479.133 177.104 483.745 180.39C488.415 183.618 490.75 188.345 490.75 194.572C490.75 204.084 485.648 211.579 475.444 217.055C465.239 222.532 449.357 225.271 427.795 225.271C417.764 225.271 411.106 224.002 407.819 221.466C404.533 218.929 402.89 215.384 402.89 210.829C402.89 207.485 403.784 204.113 405.571 200.712C407.416 197.368 409.953 194.082 413.181 190.853C410.241 189.873 407.848 188.201 406.003 185.838C404.216 183.474 403.323 180.591 403.323 177.19C403.323 173.155 404.678 169.609 407.387 166.554C410.097 163.498 413.729 160.933 418.283 158.857C414.478 157.243 411.336 154.389 408.857 150.296C406.436 146.203 405.196 140.986 405.139 134.644C405.139 124.44 408.511 115.994 415.256 109.307C422.002 102.561 432.119 99.1888 445.609 99.1888C452.412 99.1888 459.013 100.313 465.412 102.561C473.656 98.6988 478.557 96.7675 480.113 96.7675C488.473 96.7675 493.056 96.9981 493.863 97.4593C494.728 97.8629 495.16 98.6412 495.16 99.7942C495.16 101.466 494.324 103.974 492.652 107.318C491.038 110.604 489.482 112.247 487.983 112.247C486.484 112.247 482.16 110.863 475.011 108.096L473.455 110.69ZM427.709 192.064C426.383 193.621 425.316 195.408 424.509 197.425C423.76 199.501 423.385 201.519 423.385 203.479C423.443 206.88 424.481 209.273 426.498 210.656C428.574 212.098 432.811 212.818 439.21 212.818C448.146 212.818 454.805 211.809 459.186 209.791C463.625 207.774 465.845 204.776 465.845 200.798C465.845 197.454 464.231 195.148 461.002 193.88C457.774 192.669 446.676 192.064 427.709 192.064Z"/><path fill="#fff" d="M552.888 180.563C548.564 182.753 543.635 184.713 538.101 186.443C532.566 188.115 527.349 188.951 522.448 188.951C514.089 188.951 507.949 187.02 504.029 183.157C500.167 179.294 498.235 173.875 498.235 166.899C498.235 157.157 501.579 149.921 508.266 145.194C514.954 140.467 525.504 138.103 539.917 138.103H549.342C548.824 129.225 547.354 123.171 544.932 119.943C542.511 116.657 538.879 115.014 534.036 115.014C531.384 115.014 528.502 115.36 525.389 116.052C523.371 119.857 522.16 121.874 521.757 122.105C521.411 122.336 519.422 122.854 515.79 123.662C512.216 124.469 509.679 124.209 508.18 122.883C506.681 121.557 505.153 119.222 503.597 115.879C502.098 112.535 501.348 109.71 501.348 107.404C501.348 105.963 501.925 104.839 503.078 104.031C504.289 103.224 508.67 102.36 516.222 101.437C523.774 100.515 531.817 100.054 540.349 100.054C550.495 100.054 558.451 101.812 564.216 105.329C569.981 108.788 572.864 115.533 572.864 125.564V148.48C572.864 161.221 573.412 169.061 574.507 172.002C575.602 174.884 577.562 176.008 580.387 175.374C581.252 176.988 581.684 178.574 581.684 180.13C581.684 182.725 580.128 184.713 577.015 186.097C573.959 187.423 569.808 188.086 564.562 188.086C562.256 188.086 560.44 187.798 559.114 187.221C557.788 186.645 555.713 184.425 552.888 180.563ZM549.342 151.853C545.192 150.988 540.983 150.556 536.717 150.556C531.874 150.556 528.415 151.363 526.34 152.977C524.264 154.591 523.227 157.647 523.227 162.143C523.227 166.064 524.236 169.033 526.253 171.05C528.329 173.01 531.327 173.99 535.247 173.99C538.36 173.99 541.098 173.328 543.462 172.002C545.883 170.676 547.469 168.802 548.218 166.381C548.968 163.902 549.342 160.702 549.342 156.782V151.853Z"/><path fill="#fff" d="M659.907 107.318C659.907 109.97 658.725 113.227 656.362 117.089C653.998 120.952 650.049 127.207 644.514 135.855C639.038 144.502 634.166 152.343 629.9 159.376C625.691 166.352 623.212 171.396 622.463 174.509H635.261C640.219 174.509 648.78 172.376 660.945 168.11C662.732 171.915 663.597 175.662 663.539 179.352C663.539 182.235 662.761 184.281 661.204 185.492C659.648 186.645 656.217 187.221 650.914 187.221H593.753C589.602 187.221 587.527 185.29 587.527 181.427C587.527 179.41 588.507 176.931 590.467 173.99C592.485 171.05 597.068 164.709 604.217 154.966C611.365 145.223 616.698 137.209 620.215 130.925C623.789 124.584 626.527 119.107 628.43 114.495H611.567C607.531 114.495 600.815 116.657 591.418 120.981C588.593 116.888 587.181 112.737 587.181 108.528C587.181 106.222 587.844 104.522 589.17 103.426C590.496 102.273 593.032 101.697 596.78 101.697H651.778C654.488 101.697 656.506 102.1 657.832 102.907C659.215 103.657 659.907 105.127 659.907 107.318Z"/><path fill="#fff" d="M710.717 114.149C706.451 114.149 703.193 115.879 700.945 119.338C698.697 122.797 697.544 128.821 697.486 137.411H702.069C708.468 137.411 713.34 137.238 716.684 136.892C720.085 136.489 722.074 135.855 722.651 134.99C723.227 134.067 723.515 132.569 723.515 130.493C723.515 125.305 722.391 121.298 720.143 118.473C717.894 115.59 714.752 114.149 710.717 114.149ZM714.176 99.1888C726.167 99.1888 734.872 101.927 740.292 107.404C745.711 112.823 748.42 121.413 748.42 133.174C748.42 138.997 747.267 143.147 744.961 145.626C742.655 148.105 737.611 149.345 729.828 149.345H697.659C697.832 156.897 699.533 162.835 702.761 167.159C705.989 171.425 711.668 173.558 719.797 173.558C727.753 173.558 735.939 171.252 744.356 166.64C747.354 169.58 748.853 172.751 748.853 176.152C748.853 180.764 745.451 183.993 738.649 185.838C731.903 187.625 723.976 188.518 714.868 188.518C699.187 188.518 687.801 185.348 680.71 179.006C673.619 172.665 670.073 162.201 670.073 147.615C670.073 132.453 674.051 120.606 682.007 112.074C690.02 103.484 700.743 99.1888 714.176 99.1888Z"/><path fill="#fff" d="M756.252 105.934C756.252 103.859 757.001 102.504 758.5 101.87C760.056 101.235 769.598 100.659 787.123 100.14C787.412 102.561 787.412 105.905 787.123 110.171C794.387 105.905 800.96 103.023 806.84 101.524C812.72 100.025 817.909 99.2753 822.406 99.2753C824.481 99.2753 825.865 99.5348 826.556 100.054C827.248 100.515 827.594 101.639 827.594 103.426C827.594 106.597 827.104 109.912 826.124 113.371C825.202 116.772 824.02 118.963 822.579 119.943C821.195 120.923 818.975 121.644 815.92 122.105C812.864 122.566 811.077 122.681 810.558 122.451C810.097 122.22 808.483 120.289 805.716 116.657C801.45 116.657 798.164 118.214 795.858 121.327C793.609 124.382 792.485 132.309 792.485 145.108C792.485 156.811 792.629 166.899 792.917 175.374H806.494C807.532 177.277 808.051 179.41 808.051 181.773C808.051 183.791 807.618 185.204 806.754 186.011C805.946 186.818 804.332 187.221 801.911 187.221H757.808C756.77 184.8 756.252 182.523 756.252 180.39C756.252 178.603 756.655 177.334 757.462 176.585C758.269 175.778 759.566 175.374 761.354 175.374H767.666C767.955 166.899 768.099 157.07 768.099 145.886C768.099 129.744 767.32 120.202 765.764 117.262C764.265 114.322 761.613 112.852 757.808 112.852C756.77 110.546 756.252 108.24 756.252 105.934Z"/><path stroke="#1A1A1A" d="M159.959 99.1888C168.664 99.1888 175.38 100.025 180.108 101.697C184.835 103.311 187.199 106.049 187.199 109.912C187.199 114.005 185.556 118.156 182.27 122.364C169.817 116.888 160.276 114.149 153.646 114.149C150.129 114.149 147.506 114.812 145.777 116.138C144.105 117.464 143.269 119.367 143.269 121.846C143.269 124.44 144.393 126.688 146.642 128.591C148.948 130.493 154.223 132.914 162.467 135.855C172.094 139.141 178.926 142.744 182.961 146.664C187.055 150.584 189.101 155.744 189.101 162.143C189.101 170.791 185.556 177.421 178.465 182.033C171.431 186.645 161.89 188.951 149.841 188.951C138.715 188.951 130.788 188.201 126.06 186.702C121.333 185.146 118.94 181.975 118.883 177.19C118.883 173.616 120.295 170.099 123.12 166.64C134.593 171.54 144.768 173.99 153.646 173.99C157.278 173.99 160.103 173.385 162.121 172.174C164.139 170.964 165.147 168.946 165.147 166.121C165.147 162.835 163.36 160.212 159.786 158.252C156.269 156.292 150.591 153.813 142.75 150.815C134.333 147.587 128.309 144.127 124.677 140.438C121.102 136.691 119.315 131.906 119.315 126.083C119.315 117.896 122.89 111.382 130.038 106.539C137.245 101.639 147.218 99.1888 159.959 99.1888Z"/><path stroke="#1A1A1A" d="M238.095 114.149C233.829 114.149 230.572 115.879 228.323 119.338C226.075 122.797 224.922 128.821 224.864 137.411H229.447C235.847 137.411 240.718 137.238 244.062 136.892C247.463 136.489 249.452 135.855 250.029 134.99C250.605 134.067 250.893 132.569 250.893 130.493C250.893 125.305 249.769 121.298 247.521 118.473C245.273 115.59 242.131 114.149 238.095 114.149ZM241.554 99.1888C253.545 99.1888 262.251 101.927 267.67 107.404C273.089 112.823 275.798 121.413 275.798 133.174C275.798 138.997 274.645 143.147 272.339 145.626C270.033 148.105 264.989 149.345 257.206 149.345H225.037C225.21 156.897 226.911 162.835 230.139 167.159C233.368 171.425 239.046 173.558 247.175 173.558C255.131 173.558 263.317 171.252 271.734 166.64C274.732 169.58 276.231 172.751 276.231 176.152C276.231 180.764 272.829 183.993 266.027 185.838C259.282 187.625 251.355 188.518 242.246 188.518C226.565 188.518 215.179 185.348 208.088 179.006C200.997 172.665 197.451 162.201 197.451 147.615C197.451 132.453 201.429 120.606 209.385 112.074C217.398 103.484 228.121 99.1888 241.554 99.1888Z"/><path stroke="#1A1A1A" d="M294.266 145.54C294.266 119.367 294.151 102.936 293.92 96.2487C293.69 89.5612 293.257 85.0068 292.623 82.5855C291.989 80.1065 290.865 78.5211 289.251 77.8293C287.694 77.0799 285.648 76.7051 283.111 76.7051C282.073 74.3414 281.554 71.9778 281.554 69.6141C281.554 67.1928 282.448 65.665 284.235 65.0309C286.08 64.3391 291.903 63.9932 301.703 63.9932C307.814 63.9932 311.994 64.2526 314.242 64.7714C316.491 65.2327 317.759 66.1262 318.047 67.4522C318.393 68.7782 318.566 70.6518 318.566 73.0731V139.573C318.566 156.061 318.71 167.995 318.998 175.374H330.067C331.047 177.277 331.537 179.41 331.537 181.773C331.537 183.791 331.105 185.204 330.24 186.011C329.433 186.818 327.819 187.221 325.398 187.221H283.111C282.073 184.8 281.554 182.523 281.554 180.39C281.554 178.603 281.958 177.334 282.765 176.585C283.572 175.778 284.869 175.374 286.656 175.374H293.747C294.093 167.995 294.266 158.05 294.266 145.54Z"/><path stroke="#1A1A1A" d="M384.423 175.374C385.403 177.277 385.893 179.41 385.893 181.773C385.893 183.791 385.489 185.204 384.682 186.011C383.875 186.818 382.232 187.221 379.753 187.221H334.785C333.805 184.8 333.315 182.523 333.315 180.39C333.315 178.603 333.719 177.334 334.526 176.585C335.333 175.778 336.63 175.374 338.417 175.374H345.508C345.797 167.995 345.941 160.126 345.941 151.766V114.582H334.785C333.748 112.103 333.229 109.595 333.229 107.058C333.229 105.098 333.604 103.714 334.353 102.907C335.16 102.1 336.486 101.697 338.331 101.697H345.941C346.287 87.5723 349.688 77.7717 356.145 72.2949C362.659 66.7604 373.065 63.9932 387.363 63.9932C395.664 63.9932 401.718 64.8003 405.523 66.4145C409.385 67.9711 411.317 70.5653 411.317 74.1973C411.317 77.8293 409.789 81.6054 406.733 85.5257C395.146 80.5677 386.642 78.0887 381.223 78.0887C376.611 78.0887 373.642 79.6165 372.316 82.672C370.99 85.6698 370.327 90.5413 370.327 97.2864V101.697H393.762C394.742 104.003 395.232 106.453 395.232 109.047C395.232 111.238 394.829 112.708 394.021 113.457C393.214 114.207 391.658 114.582 389.352 114.582H370.327V151.766C370.327 160.126 370.471 167.995 370.759 175.374H384.423Z"/><path stroke="#1A1A1A" d="M441.199 111.641C437.106 111.641 434.051 112.939 432.033 115.533C430.015 118.127 429.006 123.258 429.006 130.925C429.006 138.017 430.044 142.917 432.119 145.626C434.195 148.278 437.308 149.604 441.459 149.604C445.667 149.604 448.78 148.336 450.798 145.799C452.816 143.205 453.825 138.074 453.825 130.407C453.825 123.834 452.758 119.078 450.625 116.138C448.55 113.14 445.408 111.641 441.199 111.641ZM473.455 110.69C476.28 116.686 477.692 122.595 477.692 128.418C477.692 138.68 474.291 146.866 467.488 152.977C460.685 159.03 450.683 162.057 437.481 162.057C431.773 162.057 428.17 162.605 426.671 163.7C425.23 164.795 424.509 166.467 424.509 168.715C424.509 170.964 425.403 172.665 427.19 173.818C428.977 174.913 438.23 175.461 454.949 175.461C469.534 175.461 479.133 177.104 483.745 180.39C488.415 183.618 490.75 188.345 490.75 194.572C490.75 204.084 485.648 211.579 475.444 217.055C465.239 222.532 449.357 225.271 427.795 225.271C417.764 225.271 411.106 224.002 407.819 221.466C404.533 218.929 402.89 215.384 402.89 210.829C402.89 207.485 403.784 204.113 405.571 200.712C407.416 197.368 409.953 194.082 413.181 190.853C410.241 189.873 407.848 188.201 406.003 185.838C404.216 183.474 403.323 180.591 403.323 177.19C403.323 173.155 404.678 169.609 407.387 166.554C410.097 163.498 413.729 160.933 418.283 158.857C414.478 157.243 411.336 154.389 408.857 150.296C406.436 146.203 405.196 140.986 405.139 134.644C405.139 124.44 408.511 115.994 415.256 109.307C422.002 102.561 432.119 99.1888 445.609 99.1888C452.412 99.1888 459.013 100.313 465.412 102.561C473.656 98.6988 478.557 96.7675 480.113 96.7675C488.473 96.7675 493.056 96.9981 493.863 97.4593C494.728 97.8629 495.16 98.6412 495.16 99.7942C495.16 101.466 494.324 103.974 492.652 107.318C491.038 110.604 489.482 112.247 487.983 112.247C486.484 112.247 482.16 110.863 475.011 108.096L473.455 110.69ZM427.709 192.064C426.383 193.621 425.316 195.408 424.509 197.425C423.76 199.501 423.385 201.519 423.385 203.479C423.443 206.88 424.481 209.273 426.498 210.656C428.574 212.098 432.811 212.818 439.21 212.818C448.146 212.818 454.805 211.809 459.186 209.791C463.625 207.774 465.845 204.776 465.845 200.798C465.845 197.454 464.231 195.148 461.002 193.88C457.774 192.669 446.676 192.064 427.709 192.064Z"/><path stroke="#1A1A1A" d="M552.888 180.563C548.564 182.753 543.635 184.713 538.101 186.443C532.566 188.115 527.349 188.951 522.448 188.951C514.089 188.951 507.949 187.02 504.029 183.157C500.167 179.294 498.235 173.875 498.235 166.899C498.235 157.157 501.579 149.921 508.266 145.194C514.954 140.467 525.504 138.103 539.917 138.103H549.342C548.824 129.225 547.354 123.171 544.932 119.943C542.511 116.657 538.879 115.014 534.036 115.014C531.384 115.014 528.502 115.36 525.389 116.052C523.371 119.857 522.16 121.874 521.757 122.105C521.411 122.336 519.422 122.854 515.79 123.662C512.216 124.469 509.679 124.209 508.18 122.883C506.681 121.557 505.153 119.222 503.597 115.879C502.098 112.535 501.348 109.71 501.348 107.404C501.348 105.963 501.925 104.839 503.078 104.031C504.289 103.224 508.67 102.36 516.222 101.437C523.774 100.515 531.817 100.054 540.349 100.054C550.495 100.054 558.451 101.812 564.216 105.329C569.981 108.788 572.864 115.533 572.864 125.564V148.48C572.864 161.221 573.412 169.061 574.507 172.002C575.602 174.884 577.562 176.008 580.387 175.374C581.252 176.988 581.684 178.574 581.684 180.13C581.684 182.725 580.128 184.713 577.015 186.097C573.959 187.423 569.808 188.086 564.562 188.086C562.256 188.086 560.44 187.798 559.114 187.221C557.788 186.645 555.713 184.425 552.888 180.563ZM549.342 151.853C545.192 150.988 540.983 150.556 536.717 150.556C531.874 150.556 528.415 151.363 526.34 152.977C524.264 154.591 523.227 157.647 523.227 162.143C523.227 166.064 524.236 169.033 526.253 171.05C528.329 173.01 531.327 173.99 535.247 173.99C538.36 173.99 541.098 173.328 543.462 172.002C545.883 170.676 547.469 168.802 548.218 166.381C548.968 163.902 549.342 160.702 549.342 156.782V151.853Z"/><path stroke="#1A1A1A" d="M659.907 107.318C659.907 109.97 658.725 113.227 656.362 117.089C653.998 120.952 650.049 127.207 644.514 135.855C639.038 144.502 634.166 152.343 629.9 159.376C625.691 166.352 623.212 171.396 622.463 174.509H635.261C640.219 174.509 648.78 172.376 660.945 168.11C662.732 171.915 663.597 175.662 663.539 179.352C663.539 182.235 662.761 184.281 661.204 185.492C659.648 186.645 656.217 187.221 650.914 187.221H593.753C589.602 187.221 587.527 185.29 587.527 181.427C587.527 179.41 588.507 176.931 590.467 173.99C592.485 171.05 597.068 164.709 604.217 154.966C611.365 145.223 616.698 137.209 620.215 130.925C623.789 124.584 626.527 119.107 628.43 114.495H611.567C607.531 114.495 600.815 116.657 591.418 120.981C588.593 116.888 587.181 112.737 587.181 108.528C587.181 106.222 587.844 104.522 589.17 103.426C590.496 102.273 593.032 101.697 596.78 101.697H651.778C654.488 101.697 656.506 102.1 657.832 102.907C659.215 103.657 659.907 105.127 659.907 107.318Z"/><path stroke="#1A1A1A" d="M710.717 114.149C706.451 114.149 703.193 115.879 700.945 119.338C698.697 122.797 697.544 128.821 697.486 137.411H702.069C708.468 137.411 713.34 137.238 716.684 136.892C720.085 136.489 722.074 135.855 722.651 134.99C723.227 134.067 723.515 132.569 723.515 130.493C723.515 125.305 722.391 121.298 720.143 118.473C717.894 115.59 714.752 114.149 710.717 114.149ZM714.176 99.1888C726.167 99.1888 734.872 101.927 740.292 107.404C745.711 112.823 748.42 121.413 748.42 133.174C748.42 138.997 747.267 143.147 744.961 145.626C742.655 148.105 737.611 149.345 729.828 149.345H697.659C697.832 156.897 699.533 162.835 702.761 167.159C705.989 171.425 711.668 173.558 719.797 173.558C727.753 173.558 735.939 171.252 744.356 166.64C747.354 169.58 748.853 172.751 748.853 176.152C748.853 180.764 745.451 183.993 738.649 185.838C731.903 187.625 723.976 188.518 714.868 188.518C699.187 188.518 687.801 185.348 680.71 179.006C673.619 172.665 670.073 162.201 670.073 147.615C670.073 132.453 674.051 120.606 682.007 112.074C690.02 103.484 700.743 99.1888 714.176 99.1888Z"/><path stroke="#1A1A1A" d="M756.252 105.934C756.252 103.859 757.001 102.504 758.5 101.87C760.056 101.235 769.598 100.659 787.123 100.14C787.412 102.561 787.412 105.905 787.123 110.171C794.387 105.905 800.96 103.023 806.84 101.524C812.72 100.025 817.909 99.2753 822.406 99.2753C824.481 99.2753 825.865 99.5348 826.556 100.054C827.248 100.515 827.594 101.639 827.594 103.426C827.594 106.597 827.104 109.912 826.124 113.371C825.202 116.772 824.02 118.963 822.579 119.943C821.195 120.923 818.975 121.644 815.92 122.105C812.864 122.566 811.077 122.681 810.558 122.451C810.097 122.22 808.483 120.289 805.716 116.657C801.45 116.657 798.164 118.214 795.858 121.327C793.609 124.382 792.485 132.309 792.485 145.108C792.485 156.811 792.629 166.899 792.917 175.374H806.494C807.532 177.277 808.051 179.41 808.051 181.773C808.051 183.791 807.618 185.204 806.754 186.011C805.946 186.818 804.332 187.221 801.911 187.221H757.808C756.77 184.8 756.252 182.523 756.252 180.39C756.252 178.603 756.655 177.334 757.462 176.585C758.269 175.778 759.566 175.374 761.354 175.374H767.666C767.955 166.899 768.099 157.07 768.099 145.886C768.099 129.744 767.32 120.202 765.764 117.262C764.265 114.322 761.613 112.852 757.808 112.852C756.77 110.546 756.252 108.24 756.252 105.934Z"/><mask id="mask1_38_5124" style="mask-type:alpha" width="879" height="224" x="33" y="28" maskUnits="userSpaceOnUse"><rect width="878.753" height="223.412" x="33.242" y="28" fill="#000" rx="111.706"/></mask><g mask="url(#mask1_38_5124)"><rect width="36.293" height="33.563" x="634.565" y="29.835" fill="#182A4E" stroke="#1A1A1A" stroke-width="3.673"/><rect width="36.293" height="33.563" x="674.529" y="104.306" fill="#182A4E" stroke="#1A1A1A" stroke-width="3.673"/><rect width="36.293" height="33.563" x="714.5" y="67.07" fill="#182A4E" stroke="#1A1A1A" stroke-width="3.673"/><rect width="36.293" height="33.563" x="794.426" y="104.306" fill="#182A4E" stroke="#1A1A1A" stroke-width="3.673"/><rect width="36.293" height="33.563" x="754.461" y="29.834" fill="#182A4E" stroke="#1A1A1A" stroke-width="3.673"/><rect width="36.293" height="33.563" x="634.565" y="67.07" fill="#B17102" stroke="#1A1A1A" stroke-width="3.673"/><rect width="36.293" height="33.563" x="754.461" y="67.07" fill="#B17102" stroke="#1A1A1A" stroke-width="3.673"/><rect width="36.293" height="33.563" x="674.529" y="29.834" fill="#B17102" stroke="#1A1A1A" stroke-width="3.673"/><rect width="36.293" height="33.563" x="714.5" y="104.306" fill="#B17102" stroke="#1A1A1A" stroke-width="3.673"/><rect width="36.293" height="33.563" x="794.426" y="29.834" fill="#B17102" stroke="#1A1A1A" stroke-width="3.673"/><rect width="36.293" height="33.563" x="634.565" y="104.306" fill="#A01A12" stroke="#1A1A1A" stroke-width="3.673"/><rect width="36.293" height="33.563" x="674.529" y="67.07" fill="#A01A12" stroke="#1A1A1A" stroke-width="3.673"/><rect width="36.293" height="33.563" x="794.426" y="67.07" fill="#A01A12" stroke="#1A1A1A" stroke-width="3.673"/><rect width="36.293" height="33.563" x="754.461" y="104.306" fill="#A01A12" stroke="#1A1A1A" stroke-width="3.673"/><rect width="36.293" height="33.563" x="714.5" y="29.834" fill="#A01A12" stroke="#1A1A1A" stroke-width="3.673"/><rect width="36.293" height="33.563" x="35.086" y="29.834" fill="#182A4E" stroke="#1A1A1A" stroke-width="3.673"/><rect width="36.293" height="33.563" x="75.051" y="104.306" fill="#182A4E" stroke="#1A1A1A" stroke-width="3.673"/><rect width="36.293" height="33.563" x="115.018" y="67.07" fill="#182A4E" stroke="#1A1A1A" stroke-width="3.673"/><rect width="36.293" height="33.563" x="194.95" y="104.306" fill="#182A4E" stroke="#1A1A1A" stroke-width="3.673"/><rect width="36.293" height="33.563" x="154.983" y="29.834" fill="#182A4E" stroke="#1A1A1A" stroke-width="3.673"/><rect width="36.293" height="33.563" x="35.086" y="67.07" fill="#B17102" stroke="#1A1A1A" stroke-width="3.673"/><rect width="36.293" height="33.563" x="154.983" y="67.07" fill="#B17102" stroke="#1A1A1A" stroke-width="3.673"/><rect width="36.293" height="33.563" x="75.051" y="29.834" fill="#B17102" stroke="#1A1A1A" stroke-width="3.673"/><rect width="36.293" height="33.563" x="115.018" y="104.306" fill="#B17102" stroke="#1A1A1A" stroke-width="3.673"/><rect width="36.293" height="33.563" x="194.95" y="29.834" fill="#B17102" stroke="#1A1A1A" stroke-width="3.673"/><rect width="36.293" height="33.563" x="35.086" y="104.306" fill="#A01A12" stroke="#1A1A1A" stroke-width="3.673"/><rect width="36.293" height="33.563" x="75.051" y="67.07" fill="#A01A12" stroke="#1A1A1A" stroke-width="3.673"/><rect width="36.293" height="33.563" x="194.95" y="67.07" fill="#A01A12" stroke="#1A1A1A" stroke-width="3.673"/><rect width="36.293" height="33.563" x="154.983" y="104.306" fill="#A01A12" stroke="#1A1A1A" stroke-width="3.673"/><rect width="36.293" height="33.563" x="115.018" y="29.834" fill="#A01A12" stroke="#1A1A1A" stroke-width="3.673"/><rect width="36.293" height="33.563" x="35.086" y="141.54" fill="#182A4E" stroke="#1A1A1A" stroke-width="3.673"/><rect width="36.293" height="33.563" x="75.051" y="216.012" fill="#182A4E" stroke="#1A1A1A" stroke-width="3.673"/><rect width="36.293" height="33.563" x="115.018" y="178.776" fill="#182A4E" stroke="#1A1A1A" stroke-width="3.673"/><rect width="36.293" height="33.563" x="194.95" y="216.012" fill="#182A4E" stroke="#1A1A1A" stroke-width="3.673"/><rect width="36.293" height="33.563" x="154.983" y="141.54" fill="#182A4E" stroke="#1A1A1A" stroke-width="3.673"/><rect width="36.293" height="33.563" x="35.086" y="178.776" fill="#B17102" stroke="#1A1A1A" stroke-width="3.673"/><rect width="36.293" height="33.563" x="154.983" y="178.776" fill="#B17102" stroke="#1A1A1A" stroke-width="3.673"/><rect width="36.293" height="33.563" x="75.051" y="141.54" fill="#B17102" stroke="#1A1A1A" stroke-width="3.673"/><rect width="36.293" height="33.563" x="115.018" y="216.012" fill="#B17102" stroke="#1A1A1A" stroke-width="3.673"/><rect width="36.293" height="33.563" x="194.95" y="141.54" fill="#B17102" stroke="#1A1A1A" stroke-width="3.673"/><rect width="36.293" height="33.563" x="35.086" y="216.012" fill="#A01A12" stroke="#1A1A1A" stroke-width="3.673"/><rect width="36.293" height="33.563" x="75.051" y="178.776" fill="#A01A12" stroke="#1A1A1A" stroke-width="3.673"/><rect width="36.293" height="33.563" x="194.95" y="178.776" fill="#A01A12" stroke="#1A1A1A" stroke-width="3.673"/><rect width="36.293" height="33.563" x="154.983" y="216.012" fill="#A01A12" stroke="#1A1A1A" stroke-width="3.673"/><rect width="36.293" height="33.563" x="115.018" y="141.54" fill="#A01A12" stroke="#1A1A1A" stroke-width="3.673"/><rect width="36.293" height="33.563" x="234.913" y="29.834" fill="#182A4E" stroke="#1A1A1A" stroke-width="3.673"/><rect width="36.293" height="33.563" x="274.877" y="104.306" fill="#182A4E" stroke="#1A1A1A" stroke-width="3.673"/><rect width="36.293" height="33.563" x="314.844" y="67.07" fill="#182A4E" stroke="#1A1A1A" stroke-width="3.673"/><rect width="36.293" height="33.563" x="394.776" y="104.306" fill="#182A4E" stroke="#1A1A1A" stroke-width="3.673"/><rect width="36.293" height="33.563" x="354.809" y="29.834" fill="#182A4E" stroke="#1A1A1A" stroke-width="3.673"/><rect width="36.293" height="33.563" x="234.913" y="67.07" fill="#B17102" stroke="#1A1A1A" stroke-width="3.673"/><rect width="36.293" height="33.563" x="354.809" y="67.07" fill="#B17102" stroke="#1A1A1A" stroke-width="3.673"/><rect width="36.293" height="33.563" x="274.877" y="29.834" fill="#B17102" stroke="#1A1A1A" stroke-width="3.673"/><rect width="36.293" height="33.563" x="314.844" y="104.306" fill="#B17102" stroke="#1A1A1A" stroke-width="3.673"/><rect width="36.293" height="33.563" x="394.776" y="29.834" fill="#B17102" stroke="#1A1A1A" stroke-width="3.673"/><rect width="36.293" height="33.563" x="234.913" y="104.306" fill="#A01A12" stroke="#1A1A1A" stroke-width="3.673"/><rect width="36.293" height="33.563" x="274.877" y="67.07" fill="#A01A12" stroke="#1A1A1A" stroke-width="3.673"/><rect width="36.293" height="33.563" x="394.776" y="67.07" fill="#A01A12" stroke="#1A1A1A" stroke-width="3.673"/><rect width="36.293" height="33.563" x="354.809" y="104.306" fill="#A01A12" stroke="#1A1A1A" stroke-width="3.673"/><rect width="36.293" height="33.563" x="314.844" y="29.834" fill="#A01A12" stroke="#1A1A1A" stroke-width="3.673"/><rect width="36.293" height="33.563" x="234.913" y="141.54" fill="#182A4E" stroke="#1A1A1A" stroke-width="3.673"/><rect width="36.293" height="33.563" x="274.877" y="216.012" fill="#182A4E" stroke="#1A1A1A" stroke-width="3.673"/><rect width="36.293" height="33.563" x="314.844" y="178.776" fill="#182A4E" stroke="#1A1A1A" stroke-width="3.673"/><rect width="36.293" height="33.563" x="394.776" y="216.012" fill="#182A4E" stroke="#1A1A1A" stroke-width="3.673"/><rect width="36.293" height="33.563" x="354.809" y="141.54" fill="#182A4E" stroke="#1A1A1A" stroke-width="3.673"/><rect width="36.293" height="33.563" x="234.913" y="178.776" fill="#B17102" stroke="#1A1A1A" stroke-width="3.673"/><rect width="36.293" height="33.563" x="354.809" y="178.776" fill="#B17102" stroke="#1A1A1A" stroke-width="3.673"/><rect width="36.293" height="33.563" x="274.877" y="141.54" fill="#B17102" stroke="#1A1A1A" stroke-width="3.673"/><rect width="36.293" height="33.563" x="314.844" y="216.012" fill="#B17102" stroke="#1A1A1A" stroke-width="3.673"/><rect width="36.293" height="33.563" x="394.776" y="141.54" fill="#B17102" stroke="#1A1A1A" stroke-width="3.673"/><rect width="36.293" height="33.563" x="234.913" y="216.012" fill="#A01A12" stroke="#1A1A1A" stroke-width="3.673"/><rect width="36.293" height="33.563" x="274.877" y="178.776" fill="#A01A12" stroke="#1A1A1A" stroke-width="3.673"/><rect width="36.293" height="33.563" x="394.776" y="178.776" fill="#A01A12" stroke="#1A1A1A" stroke-width="3.673"/><rect width="36.293" height="33.563" x="354.809" y="216.012" fill="#A01A12" stroke="#1A1A1A" stroke-width="3.673"/><rect width="36.293" height="33.563" x="314.844" y="141.54" fill="#A01A12" stroke="#1A1A1A" stroke-width="3.673"/><rect width="36.293" height="33.563" x="434.737" y="29.834" fill="#182A4E" stroke="#1A1A1A" stroke-width="3.673"/><rect width="36.293" height="33.563" x="474.702" y="104.306" fill="#182A4E" stroke="#1A1A1A" stroke-width="3.673"/><rect width="36.293" height="33.563" x="514.672" y="67.07" fill="#182A4E" stroke="#1A1A1A" stroke-width="3.673"/><rect width="36.293" height="33.563" x="594.6" y="104.306" fill="#182A4E" stroke="#1A1A1A" stroke-width="3.673"/><rect width="36.293" height="33.563" x="554.633" y="29.834" fill="#182A4E" stroke="#1A1A1A" stroke-width="3.673"/><rect width="36.293" height="33.563" x="434.737" y="67.07" fill="#B17102" stroke="#1A1A1A" stroke-width="3.673"/><rect width="36.293" height="33.563" x="554.633" y="67.07" fill="#B17102" stroke="#1A1A1A" stroke-width="3.673"/><rect width="36.293" height="33.563" x="474.702" y="29.834" fill="#B17102" stroke="#1A1A1A" stroke-width="3.673"/><rect width="36.293" height="33.563" x="514.672" y="104.306" fill="#B17102" stroke="#1A1A1A" stroke-width="3.673"/><rect width="36.293" height="33.563" x="594.6" y="29.834" fill="#B17102" stroke="#1A1A1A" stroke-width="3.673"/><rect width="36.293" height="33.563" x="434.737" y="104.306" fill="#A01A12" stroke="#1A1A1A" stroke-width="3.673"/><rect width="36.293" height="33.563" x="474.702" y="67.07" fill="#A01A12" stroke="#1A1A1A" stroke-width="3.673"/><rect width="36.293" height="33.563" x="594.6" y="67.07" fill="#A01A12" stroke="#1A1A1A" stroke-width="3.673"/><rect width="36.293" height="33.563" x="554.633" y="104.306" fill="#A01A12" stroke="#1A1A1A" stroke-width="3.673"/><rect width="36.293" height="33.563" x="514.672" y="29.834" fill="#A01A12" stroke="#1A1A1A" stroke-width="3.673"/><rect width="36.293" height="33.563" x="434.737" y="141.54" fill="#182A4E" stroke="#1A1A1A" stroke-width="3.673"/><rect width="36.293" height="33.563" x="474.702" y="216.012" fill="#182A4E" stroke="#1A1A1A" stroke-width="3.673"/><rect width="36.293" height="33.563" x="514.672" y="178.776" fill="#182A4E" stroke="#1A1A1A" stroke-width="3.673"/><rect width="36.293" height="33.563" x="594.6" y="216.012" fill="#182A4E" stroke="#1A1A1A" stroke-width="3.673"/><rect width="36.293" height="33.563" x="554.633" y="141.54" fill="#182A4E" stroke="#1A1A1A" stroke-width="3.673"/><rect width="36.293" height="33.563" x="434.737" y="178.776" fill="#B17102" stroke="#1A1A1A" stroke-width="3.673"/><rect width="36.293" height="33.563" x="554.633" y="178.776" fill="#B17102" stroke="#1A1A1A" stroke-width="3.673"/><rect width="36.293" height="33.563" x="474.702" y="141.54" fill="#B17102" stroke="#1A1A1A" stroke-width="3.673"/><rect width="36.293" height="33.563" x="514.672" y="216.012" fill="#B17102" stroke="#1A1A1A" stroke-width="3.673"/><rect width="36.293" height="33.563" x="594.6" y="141.54" fill="#B17102" stroke="#1A1A1A" stroke-width="3.673"/><rect width="36.293" height="33.563" x="434.737" y="216.012" fill="#A01A12" stroke="#1A1A1A" stroke-width="3.673"/><rect width="36.293" height="33.563" x="474.702" y="178.776" fill="#A01A12" stroke="#1A1A1A" stroke-width="3.673"/><rect width="36.293" height="33.563" x="594.6" y="178.776" fill="#A01A12" stroke="#1A1A1A" stroke-width="3.673"/><rect width="36.293" height="33.563" x="554.633" y="216.012" fill="#A01A12" stroke="#1A1A1A" stroke-width="3.673"/><rect width="36.293" height="33.563" x="514.672" y="141.54" fill="#A01A12" stroke="#1A1A1A" stroke-width="3.673"/><rect width="36.293" height="33.563" x="634.567" y="141.541" fill="#182A4E" stroke="#1A1A1A" stroke-width="3.673"/><rect width="36.293" height="33.563" x="674.532" y="216.012" fill="#182A4E" stroke="#1A1A1A" stroke-width="3.673"/><rect width="36.293" height="33.563" x="714.502" y="178.776" fill="#182A4E" stroke="#1A1A1A" stroke-width="3.673"/><rect width="36.293" height="33.563" x="794.428" y="216.012" fill="#182A4E" stroke="#1A1A1A" stroke-width="3.673"/><rect width="36.293" height="33.563" x="754.463" y="141.54" fill="#182A4E" stroke="#1A1A1A" stroke-width="3.673"/><rect width="36.293" height="33.563" x="634.567" y="178.776" fill="#B17102" stroke="#1A1A1A" stroke-width="3.673"/><rect width="36.293" height="33.563" x="754.463" y="178.776" fill="#B17102" stroke="#1A1A1A" stroke-width="3.673"/><rect width="36.293" height="33.563" x="674.532" y="141.54" fill="#B17102" stroke="#1A1A1A" stroke-width="3.673"/><rect width="36.293" height="33.563" x="714.502" y="216.012" fill="#B17102" stroke="#1A1A1A" stroke-width="3.673"/><rect width="36.293" height="33.563" x="794.428" y="141.54" fill="#B17102" stroke="#1A1A1A" stroke-width="3.673"/><rect width="36.293" height="33.563" x="634.567" y="216.012" fill="#A01A12" stroke="#1A1A1A" stroke-width="3.673"/><rect width="36.293" height="33.563" x="674.532" y="178.776" fill="#A01A12" stroke="#1A1A1A" stroke-width="3.673"/><rect width="36.293" height="33.563" x="794.428" y="178.776" fill="#A01A12" stroke="#1A1A1A" stroke-width="3.673"/><rect width="36.293" height="33.563" x="754.463" y="216.012" fill="#A01A12" stroke="#1A1A1A" stroke-width="3.673"/><rect width="36.293" height="33.563" x="714.502" y="141.54" fill="#A01A12" stroke="#1A1A1A" stroke-width="3.673"/><rect width="36.293" height="33.563" x="834.403" y="29.836" fill="#182A4E" stroke="#1A1A1A" stroke-width="3.673"/><rect width="36.293" height="33.563" x="874.368" y="104.307" fill="#182A4E" stroke="#1A1A1A" stroke-width="3.673"/><rect width="36.293" height="33.563" x="834.403" y="67.07" fill="#B17102" stroke="#1A1A1A" stroke-width="3.673"/><rect width="36.293" height="33.563" x="874.368" y="29.835" fill="#B17102" stroke="#1A1A1A" stroke-width="3.673"/><rect width="36.293" height="33.563" x="834.403" y="104.307" fill="#A01A12" stroke="#1A1A1A" stroke-width="3.673"/><rect width="36.293" height="33.563" x="874.368" y="67.07" fill="#A01A12" stroke="#1A1A1A" stroke-width="3.673"/><rect width="36.293" height="33.563" x="834.403" y="141.542" fill="#182A4E" stroke="#1A1A1A" stroke-width="3.673"/><rect width="36.293" height="33.563" x="874.368" y="216.013" fill="#182A4E" stroke="#1A1A1A" stroke-width="3.673"/><rect width="36.293" height="33.563" x="834.403" y="178.776" fill="#B17102" stroke="#1A1A1A" stroke-width="3.673"/><rect width="36.293" height="33.563" x="874.368" y="141.541" fill="#B17102" stroke="#1A1A1A" stroke-width="3.673"/><rect width="36.293" height="33.563" x="834.403" y="216.013" fill="#A01A12" stroke="#1A1A1A" stroke-width="3.673"/><rect width="36.293" height="33.563" x="874.368" y="178.776" fill="#A01A12" stroke="#1A1A1A" stroke-width="3.673"/></g><path fill="#fff" d="M159.959 99.1888C168.664 99.1888 175.38 100.025 180.108 101.697C184.835 103.311 187.199 106.049 187.199 109.912C187.199 114.005 185.556 118.156 182.27 122.364C169.817 116.888 160.276 114.149 153.646 114.149C150.129 114.149 147.506 114.812 145.777 116.138C144.105 117.464 143.269 119.367 143.269 121.846C143.269 124.44 144.393 126.688 146.642 128.591C148.948 130.493 154.223 132.914 162.467 135.855C172.094 139.141 178.926 142.744 182.961 146.664C187.055 150.584 189.101 155.744 189.101 162.143C189.101 170.791 185.556 177.421 178.465 182.033C171.431 186.645 161.89 188.951 149.841 188.951C138.715 188.951 130.788 188.201 126.06 186.702C121.333 185.146 118.94 181.975 118.883 177.19C118.883 173.616 120.295 170.099 123.12 166.64C134.593 171.54 144.768 173.99 153.646 173.99C157.278 173.99 160.103 173.385 162.121 172.174C164.139 170.964 165.147 168.946 165.147 166.121C165.147 162.835 163.36 160.212 159.786 158.252C156.269 156.292 150.591 153.813 142.75 150.815C134.333 147.587 128.309 144.127 124.677 140.438C121.102 136.691 119.315 131.906 119.315 126.083C119.315 117.896 122.89 111.382 130.038 106.539C137.245 101.639 147.218 99.1888 159.959 99.1888Z"/><path fill="#fff" d="M238.095 114.149C233.829 114.149 230.572 115.879 228.323 119.338C226.075 122.797 224.922 128.821 224.864 137.411H229.447C235.847 137.411 240.718 137.238 244.062 136.892C247.463 136.489 249.452 135.855 250.029 134.99C250.605 134.067 250.893 132.569 250.893 130.493C250.893 125.305 249.769 121.298 247.521 118.473C245.273 115.59 242.131 114.149 238.095 114.149ZM241.554 99.1888C253.545 99.1888 262.251 101.927 267.67 107.404C273.089 112.823 275.798 121.413 275.798 133.174C275.798 138.997 274.645 143.147 272.339 145.626C270.033 148.105 264.989 149.345 257.206 149.345H225.037C225.21 156.897 226.911 162.835 230.139 167.159C233.368 171.425 239.046 173.558 247.175 173.558C255.131 173.558 263.317 171.252 271.734 166.64C274.732 169.58 276.231 172.751 276.231 176.152C276.231 180.764 272.829 183.993 266.027 185.838C259.282 187.625 251.355 188.518 242.246 188.518C226.565 188.518 215.179 185.348 208.088 179.006C200.997 172.665 197.451 162.201 197.451 147.615C197.451 132.453 201.429 120.606 209.385 112.074C217.398 103.484 228.121 99.1888 241.554 99.1888Z"/><path fill="#fff" d="M294.266 145.54C294.266 119.367 294.151 102.936 293.92 96.2487C293.69 89.5612 293.257 85.0068 292.623 82.5855C291.989 80.1065 290.865 78.5211 289.251 77.8293C287.694 77.0799 285.648 76.7051 283.111 76.7051C282.073 74.3414 281.554 71.9778 281.554 69.6141C281.554 67.1928 282.448 65.665 284.235 65.0309C286.08 64.3391 291.903 63.9932 301.703 63.9932C307.814 63.9932 311.994 64.2526 314.242 64.7714C316.491 65.2327 317.759 66.1262 318.047 67.4522C318.393 68.7782 318.566 70.6518 318.566 73.0731V139.573C318.566 156.061 318.71 167.995 318.998 175.374H330.067C331.047 177.277 331.537 179.41 331.537 181.773C331.537 183.791 331.105 185.204 330.24 186.011C329.433 186.818 327.819 187.221 325.398 187.221H283.111C282.073 184.8 281.554 182.523 281.554 180.39C281.554 178.603 281.958 177.334 282.765 176.585C283.572 175.778 284.869 175.374 286.656 175.374H293.747C294.093 167.995 294.266 158.05 294.266 145.54Z"/><path fill="#fff" d="M384.423 175.374C385.403 177.277 385.893 179.41 385.893 181.773C385.893 183.791 385.489 185.204 384.682 186.011C383.875 186.818 382.232 187.221 379.753 187.221H334.785C333.805 184.8 333.315 182.523 333.315 180.39C333.315 178.603 333.719 177.334 334.526 176.585C335.333 175.778 336.63 175.374 338.417 175.374H345.508C345.797 167.995 345.941 160.126 345.941 151.766V114.582H334.785C333.748 112.103 333.229 109.595 333.229 107.058C333.229 105.098 333.604 103.714 334.353 102.907C335.16 102.1 336.486 101.697 338.331 101.697H345.941C346.287 87.5723 349.688 77.7717 356.145 72.2949C362.659 66.7604 373.065 63.9932 387.363 63.9932C395.664 63.9932 401.718 64.8003 405.523 66.4145C409.385 67.9711 411.317 70.5653 411.317 74.1973C411.317 77.8293 409.789 81.6054 406.733 85.5257C395.146 80.5677 386.642 78.0887 381.223 78.0887C376.611 78.0887 373.642 79.6165 372.316 82.672C370.99 85.6698 370.327 90.5413 370.327 97.2864V101.697H393.762C394.742 104.003 395.232 106.453 395.232 109.047C395.232 111.238 394.829 112.708 394.021 113.457C393.214 114.207 391.658 114.582 389.352 114.582H370.327V151.766C370.327 160.126 370.471 167.995 370.759 175.374H384.423Z"/><path fill="#fff" d="M441.199 111.641C437.106 111.641 434.051 112.939 432.033 115.533C430.015 118.127 429.006 123.258 429.006 130.925C429.006 138.017 430.044 142.917 432.119 145.626C434.195 148.278 437.308 149.604 441.459 149.604C445.667 149.604 448.78 148.336 450.798 145.799C452.816 143.205 453.825 138.074 453.825 130.407C453.825 123.834 452.758 119.078 450.625 116.138C448.55 113.14 445.408 111.641 441.199 111.641ZM473.455 110.69C476.28 116.686 477.692 122.595 477.692 128.418C477.692 138.68 474.291 146.866 467.488 152.977C460.685 159.03 450.683 162.057 437.481 162.057C431.773 162.057 428.17 162.605 426.671 163.7C425.23 164.795 424.509 166.467 424.509 168.715C424.509 170.964 425.403 172.665 427.19 173.818C428.977 174.913 438.23 175.461 454.949 175.461C469.534 175.461 479.133 177.104 483.745 180.39C488.415 183.618 490.75 188.345 490.75 194.572C490.75 204.084 485.648 211.579 475.444 217.055C465.239 222.532 449.357 225.271 427.795 225.271C417.764 225.271 411.106 224.002 407.819 221.466C404.533 218.929 402.89 215.384 402.89 210.829C402.89 207.485 403.784 204.113 405.571 200.712C407.416 197.368 409.953 194.082 413.181 190.853C410.241 189.873 407.848 188.201 406.003 185.838C404.216 183.474 403.323 180.591 403.323 177.19C403.323 173.155 404.678 169.609 407.387 166.554C410.097 163.498 413.729 160.933 418.283 158.857C414.478 157.243 411.336 154.389 408.857 150.296C406.436 146.203 405.196 140.986 405.139 134.644C405.139 124.44 408.511 115.994 415.256 109.307C422.002 102.561 432.119 99.1888 445.609 99.1888C452.412 99.1888 459.013 100.313 465.412 102.561C473.656 98.6988 478.557 96.7675 480.113 96.7675C488.473 96.7675 493.056 96.9981 493.863 97.4593C494.728 97.8629 495.16 98.6412 495.16 99.7942C495.16 101.466 494.324 103.974 492.652 107.318C491.038 110.604 489.482 112.247 487.983 112.247C486.484 112.247 482.16 110.863 475.011 108.096L473.455 110.69ZM427.709 192.064C426.383 193.621 425.316 195.408 424.509 197.425C423.76 199.501 423.385 201.519 423.385 203.479C423.443 206.88 424.481 209.273 426.498 210.656C428.574 212.098 432.811 212.818 439.21 212.818C448.146 212.818 454.805 211.809 459.186 209.791C463.625 207.774 465.845 204.776 465.845 200.798C465.845 197.454 464.231 195.148 461.002 193.88C457.774 192.669 446.676 192.064 427.709 192.064Z"/><path fill="#fff" d="M552.888 180.563C548.564 182.753 543.635 184.713 538.101 186.443C532.566 188.115 527.349 188.951 522.448 188.951C514.089 188.951 507.949 187.02 504.029 183.157C500.167 179.294 498.235 173.875 498.235 166.899C498.235 157.157 501.579 149.921 508.266 145.194C514.954 140.467 525.504 138.103 539.917 138.103H549.342C548.824 129.225 547.354 123.171 544.932 119.943C542.511 116.657 538.879 115.014 534.036 115.014C531.384 115.014 528.502 115.36 525.389 116.052C523.371 119.857 522.16 121.874 521.757 122.105C521.411 122.336 519.422 122.854 515.79 123.662C512.216 124.469 509.679 124.209 508.18 122.883C506.681 121.557 505.153 119.222 503.597 115.879C502.098 112.535 501.348 109.71 501.348 107.404C501.348 105.963 501.925 104.839 503.078 104.031C504.289 103.224 508.67 102.36 516.222 101.437C523.774 100.515 531.817 100.054 540.349 100.054C550.495 100.054 558.451 101.812 564.216 105.329C569.981 108.788 572.864 115.533 572.864 125.564V148.48C572.864 161.221 573.412 169.061 574.507 172.002C575.602 174.884 577.562 176.008 580.387 175.374C581.252 176.988 581.684 178.574 581.684 180.13C581.684 182.725 580.128 184.713 577.015 186.097C573.959 187.423 569.808 188.086 564.562 188.086C562.256 188.086 560.44 187.798 559.114 187.221C557.788 186.645 555.713 184.425 552.888 180.563ZM549.342 151.853C545.192 150.988 540.983 150.556 536.717 150.556C531.874 150.556 528.415 151.363 526.34 152.977C524.264 154.591 523.227 157.647 523.227 162.143C523.227 166.064 524.236 169.033 526.253 171.05C528.329 173.01 531.327 173.99 535.247 173.99C538.36 173.99 541.098 173.328 543.462 172.002C545.883 170.676 547.469 168.802 548.218 166.381C548.968 163.902 549.342 160.702 549.342 156.782V151.853Z"/><path fill="#fff" d="M659.907 107.318C659.907 109.97 658.725 113.227 656.362 117.089C653.998 120.952 650.049 127.207 644.514 135.855C639.038 144.502 634.166 152.343 629.9 159.376C625.691 166.352 623.212 171.396 622.463 174.509H635.261C640.219 174.509 648.78 172.376 660.945 168.11C662.732 171.915 663.597 175.662 663.539 179.352C663.539 182.235 662.761 184.281 661.204 185.492C659.648 186.645 656.217 187.221 650.914 187.221H593.753C589.602 187.221 587.527 185.29 587.527 181.427C587.527 179.41 588.507 176.931 590.467 173.99C592.485 171.05 597.068 164.709 604.217 154.966C611.365 145.223 616.698 137.209 620.215 130.925C623.789 124.584 626.527 119.107 628.43 114.495H611.567C607.531 114.495 600.815 116.657 591.418 120.981C588.593 116.888 587.181 112.737 587.181 108.528C587.181 106.222 587.844 104.522 589.17 103.426C590.496 102.273 593.032 101.697 596.78 101.697H651.778C654.488 101.697 656.506 102.1 657.832 102.907C659.215 103.657 659.907 105.127 659.907 107.318Z"/><path fill="#fff" d="M710.717 114.149C706.451 114.149 703.193 115.879 700.945 119.338C698.697 122.797 697.544 128.821 697.486 137.411H702.069C708.468 137.411 713.34 137.238 716.684 136.892C720.085 136.489 722.074 135.855 722.651 134.99C723.227 134.067 723.515 132.569 723.515 130.493C723.515 125.305 722.391 121.298 720.143 118.473C717.894 115.59 714.752 114.149 710.717 114.149ZM714.176 99.1888C726.167 99.1888 734.872 101.927 740.292 107.404C745.711 112.823 748.42 121.413 748.42 133.174C748.42 138.997 747.267 143.147 744.961 145.626C742.655 148.105 737.611 149.345 729.828 149.345H697.659C697.832 156.897 699.533 162.835 702.761 167.159C705.989 171.425 711.668 173.558 719.797 173.558C727.753 173.558 735.939 171.252 744.356 166.64C747.354 169.58 748.853 172.751 748.853 176.152C748.853 180.764 745.451 183.993 738.649 185.838C731.903 187.625 723.976 188.518 714.868 188.518C699.187 188.518 687.801 185.348 680.71 179.006C673.619 172.665 670.073 162.201 670.073 147.615C670.073 132.453 674.051 120.606 682.007 112.074C690.02 103.484 700.743 99.1888 714.176 99.1888Z"/><path fill="#fff" d="M756.252 105.934C756.252 103.859 757.001 102.504 758.5 101.87C760.056 101.235 769.598 100.659 787.123 100.14C787.412 102.561 787.412 105.905 787.123 110.171C794.387 105.905 800.96 103.023 806.84 101.524C812.72 100.025 817.909 99.2753 822.406 99.2753C824.481 99.2753 825.865 99.5348 826.556 100.054C827.248 100.515 827.594 101.639 827.594 103.426C827.594 106.597 827.104 109.912 826.124 113.371C825.202 116.772 824.02 118.963 822.579 119.943C821.195 120.923 818.975 121.644 815.92 122.105C812.864 122.566 811.077 122.681 810.558 122.451C810.097 122.22 808.483 120.289 805.716 116.657C801.45 116.657 798.164 118.214 795.858 121.327C793.609 124.382 792.485 132.309 792.485 145.108C792.485 156.811 792.629 166.899 792.917 175.374H806.494C807.532 177.277 808.051 179.41 808.051 181.773C808.051 183.791 807.618 185.204 806.754 186.011C805.946 186.818 804.332 187.221 801.911 187.221H757.808C756.77 184.8 756.252 182.523 756.252 180.39C756.252 178.603 756.655 177.334 757.462 176.585C758.269 175.778 759.566 175.374 761.354 175.374H767.666C767.955 166.899 768.099 157.07 768.099 145.886C768.099 129.744 767.32 120.202 765.764 117.262C764.265 114.322 761.613 112.852 757.808 112.852C756.77 110.546 756.252 108.24 756.252 105.934Z"/><path stroke="#1A1A1A" d="M159.959 99.1888C168.664 99.1888 175.38 100.025 180.108 101.697C184.835 103.311 187.199 106.049 187.199 109.912C187.199 114.005 185.556 118.156 182.27 122.364C169.817 116.888 160.276 114.149 153.646 114.149C150.129 114.149 147.506 114.812 145.777 116.138C144.105 117.464 143.269 119.367 143.269 121.846C143.269 124.44 144.393 126.688 146.642 128.591C148.948 130.493 154.223 132.914 162.467 135.855C172.094 139.141 178.926 142.744 182.961 146.664C187.055 150.584 189.101 155.744 189.101 162.143C189.101 170.791 185.556 177.421 178.465 182.033C171.431 186.645 161.89 188.951 149.841 188.951C138.715 188.951 130.788 188.201 126.06 186.702C121.333 185.146 118.94 181.975 118.883 177.19C118.883 173.616 120.295 170.099 123.12 166.64C134.593 171.54 144.768 173.99 153.646 173.99C157.278 173.99 160.103 173.385 162.121 172.174C164.139 170.964 165.147 168.946 165.147 166.121C165.147 162.835 163.36 160.212 159.786 158.252C156.269 156.292 150.591 153.813 142.75 150.815C134.333 147.587 128.309 144.127 124.677 140.438C121.102 136.691 119.315 131.906 119.315 126.083C119.315 117.896 122.89 111.382 130.038 106.539C137.245 101.639 147.218 99.1888 159.959 99.1888Z"/><path stroke="#1A1A1A" d="M238.095 114.149C233.829 114.149 230.572 115.879 228.323 119.338C226.075 122.797 224.922 128.821 224.864 137.411H229.447C235.847 137.411 240.718 137.238 244.062 136.892C247.463 136.489 249.452 135.855 250.029 134.99C250.605 134.067 250.893 132.569 250.893 130.493C250.893 125.305 249.769 121.298 247.521 118.473C245.273 115.59 242.131 114.149 238.095 114.149ZM241.554 99.1888C253.545 99.1888 262.251 101.927 267.67 107.404C273.089 112.823 275.798 121.413 275.798 133.174C275.798 138.997 274.645 143.147 272.339 145.626C270.033 148.105 264.989 149.345 257.206 149.345H225.037C225.21 156.897 226.911 162.835 230.139 167.159C233.368 171.425 239.046 173.558 247.175 173.558C255.131 173.558 263.317 171.252 271.734 166.64C274.732 169.58 276.231 172.751 276.231 176.152C276.231 180.764 272.829 183.993 266.027 185.838C259.282 187.625 251.355 188.518 242.246 188.518C226.565 188.518 215.179 185.348 208.088 179.006C200.997 172.665 197.451 162.201 197.451 147.615C197.451 132.453 201.429 120.606 209.385 112.074C217.398 103.484 228.121 99.1888 241.554 99.1888Z"/><path stroke="#1A1A1A" d="M294.266 145.54C294.266 119.367 294.151 102.936 293.92 96.2487C293.69 89.5612 293.257 85.0068 292.623 82.5855C291.989 80.1065 290.865 78.5211 289.251 77.8293C287.694 77.0799 285.648 76.7051 283.111 76.7051C282.073 74.3414 281.554 71.9778 281.554 69.6141C281.554 67.1928 282.448 65.665 284.235 65.0309C286.08 64.3391 291.903 63.9932 301.703 63.9932C307.814 63.9932 311.994 64.2526 314.242 64.7714C316.491 65.2327 317.759 66.1262 318.047 67.4522C318.393 68.7782 318.566 70.6518 318.566 73.0731V139.573C318.566 156.061 318.71 167.995 318.998 175.374H330.067C331.047 177.277 331.537 179.41 331.537 181.773C331.537 183.791 331.105 185.204 330.24 186.011C329.433 186.818 327.819 187.221 325.398 187.221H283.111C282.073 184.8 281.554 182.523 281.554 180.39C281.554 178.603 281.958 177.334 282.765 176.585C283.572 175.778 284.869 175.374 286.656 175.374H293.747C294.093 167.995 294.266 158.05 294.266 145.54Z"/><path stroke="#1A1A1A" d="M384.423 175.374C385.403 177.277 385.893 179.41 385.893 181.773C385.893 183.791 385.489 185.204 384.682 186.011C383.875 186.818 382.232 187.221 379.753 187.221H334.785C333.805 184.8 333.315 182.523 333.315 180.39C333.315 178.603 333.719 177.334 334.526 176.585C335.333 175.778 336.63 175.374 338.417 175.374H345.508C345.797 167.995 345.941 160.126 345.941 151.766V114.582H334.785C333.748 112.103 333.229 109.595 333.229 107.058C333.229 105.098 333.604 103.714 334.353 102.907C335.16 102.1 336.486 101.697 338.331 101.697H345.941C346.287 87.5723 349.688 77.7717 356.145 72.2949C362.659 66.7604 373.065 63.9932 387.363 63.9932C395.664 63.9932 401.718 64.8003 405.523 66.4145C409.385 67.9711 411.317 70.5653 411.317 74.1973C411.317 77.8293 409.789 81.6054 406.733 85.5257C395.146 80.5677 386.642 78.0887 381.223 78.0887C376.611 78.0887 373.642 79.6165 372.316 82.672C370.99 85.6698 370.327 90.5413 370.327 97.2864V101.697H393.762C394.742 104.003 395.232 106.453 395.232 109.047C395.232 111.238 394.829 112.708 394.021 113.457C393.214 114.207 391.658 114.582 389.352 114.582H370.327V151.766C370.327 160.126 370.471 167.995 370.759 175.374H384.423Z"/><path stroke="#1A1A1A" d="M441.199 111.641C437.106 111.641 434.051 112.939 432.033 115.533C430.015 118.127 429.006 123.258 429.006 130.925C429.006 138.017 430.044 142.917 432.119 145.626C434.195 148.278 437.308 149.604 441.459 149.604C445.667 149.604 448.78 148.336 450.798 145.799C452.816 143.205 453.825 138.074 453.825 130.407C453.825 123.834 452.758 119.078 450.625 116.138C448.55 113.14 445.408 111.641 441.199 111.641ZM473.455 110.69C476.28 116.686 477.692 122.595 477.692 128.418C477.692 138.68 474.291 146.866 467.488 152.977C460.685 159.03 450.683 162.057 437.481 162.057C431.773 162.057 428.17 162.605 426.671 163.7C425.23 164.795 424.509 166.467 424.509 168.715C424.509 170.964 425.403 172.665 427.19 173.818C428.977 174.913 438.23 175.461 454.949 175.461C469.534 175.461 479.133 177.104 483.745 180.39C488.415 183.618 490.75 188.345 490.75 194.572C490.75 204.084 485.648 211.579 475.444 217.055C465.239 222.532 449.357 225.271 427.795 225.271C417.764 225.271 411.106 224.002 407.819 221.466C404.533 218.929 402.89 215.384 402.89 210.829C402.89 207.485 403.784 204.113 405.571 200.712C407.416 197.368 409.953 194.082 413.181 190.853C410.241 189.873 407.848 188.201 406.003 185.838C404.216 183.474 403.323 180.591 403.323 177.19C403.323 173.155 404.678 169.609 407.387 166.554C410.097 163.498 413.729 160.933 418.283 158.857C414.478 157.243 411.336 154.389 408.857 150.296C406.436 146.203 405.196 140.986 405.139 134.644C405.139 124.44 408.511 115.994 415.256 109.307C422.002 102.561 432.119 99.1888 445.609 99.1888C452.412 99.1888 459.013 100.313 465.412 102.561C473.656 98.6988 478.557 96.7675 480.113 96.7675C488.473 96.7675 493.056 96.9981 493.863 97.4593C494.728 97.8629 495.16 98.6412 495.16 99.7942C495.16 101.466 494.324 103.974 492.652 107.318C491.038 110.604 489.482 112.247 487.983 112.247C486.484 112.247 482.16 110.863 475.011 108.096L473.455 110.69ZM427.709 192.064C426.383 193.621 425.316 195.408 424.509 197.425C423.76 199.501 423.385 201.519 423.385 203.479C423.443 206.88 424.481 209.273 426.498 210.656C428.574 212.098 432.811 212.818 439.21 212.818C448.146 212.818 454.805 211.809 459.186 209.791C463.625 207.774 465.845 204.776 465.845 200.798C465.845 197.454 464.231 195.148 461.002 193.88C457.774 192.669 446.676 192.064 427.709 192.064Z"/><path stroke="#1A1A1A" d="M552.888 180.563C548.564 182.753 543.635 184.713 538.101 186.443C532.566 188.115 527.349 188.951 522.448 188.951C514.089 188.951 507.949 187.02 504.029 183.157C500.167 179.294 498.235 173.875 498.235 166.899C498.235 157.157 501.579 149.921 508.266 145.194C514.954 140.467 525.504 138.103 539.917 138.103H549.342C548.824 129.225 547.354 123.171 544.932 119.943C542.511 116.657 538.879 115.014 534.036 115.014C531.384 115.014 528.502 115.36 525.389 116.052C523.371 119.857 522.16 121.874 521.757 122.105C521.411 122.336 519.422 122.854 515.79 123.662C512.216 124.469 509.679 124.209 508.18 122.883C506.681 121.557 505.153 119.222 503.597 115.879C502.098 112.535 501.348 109.71 501.348 107.404C501.348 105.963 501.925 104.839 503.078 104.031C504.289 103.224 508.67 102.36 516.222 101.437C523.774 100.515 531.817 100.054 540.349 100.054C550.495 100.054 558.451 101.812 564.216 105.329C569.981 108.788 572.864 115.533 572.864 125.564V148.48C572.864 161.221 573.412 169.061 574.507 172.002C575.602 174.884 577.562 176.008 580.387 175.374C581.252 176.988 581.684 178.574 581.684 180.13C581.684 182.725 580.128 184.713 577.015 186.097C573.959 187.423 569.808 188.086 564.562 188.086C562.256 188.086 560.44 187.798 559.114 187.221C557.788 186.645 555.713 184.425 552.888 180.563ZM549.342 151.853C545.192 150.988 540.983 150.556 536.717 150.556C531.874 150.556 528.415 151.363 526.34 152.977C524.264 154.591 523.227 157.647 523.227 162.143C523.227 166.064 524.236 169.033 526.253 171.05C528.329 173.01 531.327 173.99 535.247 173.99C538.36 173.99 541.098 173.328 543.462 172.002C545.883 170.676 547.469 168.802 548.218 166.381C548.968 163.902 549.342 160.702 549.342 156.782V151.853Z"/><path stroke="#1A1A1A" d="M659.907 107.318C659.907 109.97 658.725 113.227 656.362 117.089C653.998 120.952 650.049 127.207 644.514 135.855C639.038 144.502 634.166 152.343 629.9 159.376C625.691 166.352 623.212 171.396 622.463 174.509H635.261C640.219 174.509 648.78 172.376 660.945 168.11C662.732 171.915 663.597 175.662 663.539 179.352C663.539 182.235 662.761 184.281 661.204 185.492C659.648 186.645 656.217 187.221 650.914 187.221H593.753C589.602 187.221 587.527 185.29 587.527 181.427C587.527 179.41 588.507 176.931 590.467 173.99C592.485 171.05 597.068 164.709 604.217 154.966C611.365 145.223 616.698 137.209 620.215 130.925C623.789 124.584 626.527 119.107 628.43 114.495H611.567C607.531 114.495 600.815 116.657 591.418 120.981C588.593 116.888 587.181 112.737 587.181 108.528C587.181 106.222 587.844 104.522 589.17 103.426C590.496 102.273 593.032 101.697 596.78 101.697H651.778C654.488 101.697 656.506 102.1 657.832 102.907C659.215 103.657 659.907 105.127 659.907 107.318Z"/><path stroke="#1A1A1A" d="M710.717 114.149C706.451 114.149 703.193 115.879 700.945 119.338C698.697 122.797 697.544 128.821 697.486 137.411H702.069C708.468 137.411 713.34 137.238 716.684 136.892C720.085 136.489 722.074 135.855 722.651 134.99C723.227 134.067 723.515 132.569 723.515 130.493C723.515 125.305 722.391 121.298 720.143 118.473C717.894 115.59 714.752 114.149 710.717 114.149ZM714.176 99.1888C726.167 99.1888 734.872 101.927 740.292 107.404C745.711 112.823 748.42 121.413 748.42 133.174C748.42 138.997 747.267 143.147 744.961 145.626C742.655 148.105 737.611 149.345 729.828 149.345H697.659C697.832 156.897 699.533 162.835 702.761 167.159C705.989 171.425 711.668 173.558 719.797 173.558C727.753 173.558 735.939 171.252 744.356 166.64C747.354 169.58 748.853 172.751 748.853 176.152C748.853 180.764 745.451 183.993 738.649 185.838C731.903 187.625 723.976 188.518 714.868 188.518C699.187 188.518 687.801 185.348 680.71 179.006C673.619 172.665 670.073 162.201 670.073 147.615C670.073 132.453 674.051 120.606 682.007 112.074C690.02 103.484 700.743 99.1888 714.176 99.1888Z"/><path stroke="#1A1A1A" d="M756.252 105.934C756.252 103.859 757.001 102.504 758.5 101.87C760.056 101.235 769.598 100.659 787.123 100.14C787.412 102.561 787.412 105.905 787.123 110.171C794.387 105.905 800.96 103.023 806.84 101.524C812.72 100.025 817.909 99.2753 822.406 99.2753C824.481 99.2753 825.865 99.5348 826.556 100.054C827.248 100.515 827.594 101.639 827.594 103.426C827.594 106.597 827.104 109.912 826.124 113.371C825.202 116.772 824.02 118.963 822.579 119.943C821.195 120.923 818.975 121.644 815.92 122.105C812.864 122.566 811.077 122.681 810.558 122.451C810.097 122.22 808.483 120.289 805.716 116.657C801.45 116.657 798.164 118.214 795.858 121.327C793.609 124.382 792.485 132.309 792.485 145.108C792.485 156.811 792.629 166.899 792.917 175.374H806.494C807.532 177.277 808.051 179.41 808.051 181.773C808.051 183.791 807.618 185.204 806.754 186.011C805.946 186.818 804.332 187.221 801.911 187.221H757.808C756.77 184.8 756.252 182.523 756.252 180.39C756.252 178.603 756.655 177.334 757.462 176.585C758.269 175.778 759.566 175.374 761.354 175.374H767.666C767.955 166.899 768.099 157.07 768.099 145.886C768.099 129.744 767.32 120.202 765.764 117.262C764.265 114.322 761.613 112.852 757.808 112.852C756.77 110.546 756.252 108.24 756.252 105.934Z"/><path stroke="#191919" stroke-width="14.691" d="M143.706 35.3462H800.288C857.924 35.3462 904.648 82.0699 904.648 139.706C904.648 197.343 857.924 244.067 800.288 244.067H143.706C86.0692 244.067 39.3456 197.343 39.3456 139.706C39.3456 82.0699 86.0692 35.3462 143.706 35.3462Z"/><g filter="url(#filter1_f_38_5124)"><path stroke="#000" stroke-opacity=".3" stroke-width="4.897" d="M146.807 42.8592H798.425C852.254 42.8592 895.891 86.4963 895.891 140.325C895.891 194.154 852.254 237.791 798.425 237.791H146.807C92.9781 237.791 49.3411 194.154 49.3411 140.325C49.3411 86.4963 92.9782 42.8592 146.807 42.8592Z"/></g></g><defs><filter id="filter0_d_38_5124" width="943.995" height="287.412" x="0" y="0" color-interpolation-filters="sRGB" filterUnits="userSpaceOnUse"><feFlood flood-opacity="0" result="BackgroundImageFix"/><feColorMatrix in="SourceAlpha" result="hardAlpha" type="matrix" values="0 0 0 0 0 0 0 0 0 0 0 0 0 0 0 0 0 0 127 0"/><feOffset dy="4"/><feGaussianBlur stdDeviation="16"/><feComposite in2="hardAlpha" operator="out"/><feColorMatrix type="matrix" values="0 0 0 0 0 0 0 0 0 0 0 0 0 0 0 0 0 0 0.18 0"/><feBlend in2="BackgroundImageFix" mode="normal" result="effect1_dropShadow_38_5124"/><feBlend in="SourceGraphic" in2="effect1_dropShadow_38_5124" mode="normal" result="shape"/></filter><filter id="filter1_f_38_5124" width="867.447" height="215.829" x="38.893" y="32.411" color-interpolation-filters="sRGB" filterUnits="userSpaceOnUse"><feFlood flood-opacity="0" result="BackgroundImageFix"/><feBlend in="SourceGraphic" in2="BackgroundImageFix" mode="normal" result="shape"/><feGaussianBlur result="effect1_foregroundBlur_38_5124" stdDeviation="4"/></filter></defs></svg>